<svg width="488" height="157" viewBox="0 0 488 157" fill="none" xmlns="http://www.w3.org/2000/svg">
<g clip-path="url(#clip0_280_3690)">
<path d="M89.817 91.9838V92.5706H90.5167L90.3949 91.8816L89.817 91.9838ZM80.6532 40.1557L81.231 40.0535L81.1454 39.5688H80.6532V40.1557ZM62.4758 40.1557V39.5688H62.1108L61.9494 39.8963L62.4758 40.1557ZM36.9373 91.9838L36.4109 91.7244L35.994 92.5706H36.9373V91.9838ZM54.0631 91.9838V92.5706H54.4522L54.6036 92.2122L54.0631 91.9838ZM57.1428 84.6978V84.111H56.7537L56.6022 84.4693L57.1428 84.6978ZM71.1889 84.6978L71.7727 84.6376L71.7184 84.111H71.1889V84.6978ZM71.9401 91.9838L71.3563 92.0439L71.4106 92.5706H71.9401V91.9838ZM69.8369 71.6281V72.2149H70.4925L70.4201 71.5633L69.8369 71.6281ZM62.626 71.6281L62.0854 71.3998L61.7413 72.2149H62.626V71.6281ZM68.3346 58.1077L68.9179 58.0429L68.6693 55.8063L67.794 57.8795L68.3346 58.1077ZM90.3949 91.8816L81.231 40.0535L80.0753 40.2578L89.2391 92.0859L90.3949 91.8816ZM80.6532 39.5688H62.4758V40.7425H80.6532V39.5688ZM61.9494 39.8963L36.4109 91.7244L37.4637 92.2431L63.0022 40.415L61.9494 39.8963ZM36.9373 92.5706H54.0631V91.3969H36.9373V92.5706ZM54.6036 92.2122L57.6833 84.9263L56.6022 84.4693L53.5226 91.7553L54.6036 92.2122ZM57.1428 85.2846H71.1889V84.111H57.1428V85.2846ZM70.6052 84.758L71.3563 92.0439L72.5238 91.9236L71.7727 84.6376L70.6052 84.758ZM71.9401 92.5706H89.817V91.3969H71.9401V92.5706ZM69.8369 71.0413H62.626V72.2149H69.8369V71.0413ZM63.1666 71.8563L68.8752 58.336L67.794 57.8795L62.0854 71.3998L63.1666 71.8563ZM67.7514 58.1725L69.2537 71.6929L70.4201 71.5633L68.9179 58.0429L67.7514 58.1725ZM157.229 40.1557L157.813 40.2157L157.88 39.5688H157.229V40.1557ZM136.198 40.1557V39.5688H135.794L135.65 39.9459L136.198 40.1557ZM125.532 68.0227L124.946 68.0605L126.08 68.2324L125.532 68.0227ZM123.729 40.1557L124.314 40.1178L124.279 39.5688H123.729V40.1557ZM102.697 40.1557V39.5688H102.223L102.123 40.0326L102.697 40.1557ZM91.5804 91.9838L91.0066 91.8607L90.8544 92.5706H91.5804V91.9838ZM107.73 91.9838V92.5706H108.221L108.307 92.0868L107.73 91.9838ZM112.913 62.915L113.498 62.8801L112.335 62.812L112.913 62.915ZM114.64 91.9838L114.054 92.0186L114.087 92.5706H114.64V91.9838ZM128.837 91.9838V92.5706H129.242L129.386 92.1909L128.837 91.9838ZM139.803 62.915L140.384 62.9961L139.254 62.7078L139.803 62.915ZM135.747 91.9838L135.166 91.9027L135.073 92.5706H135.747V91.9838ZM151.896 91.9838V92.5706H152.426L152.48 92.0438L151.896 91.9838ZM157.229 39.5688H136.198V40.7425H157.229V39.5688ZM135.65 39.9459L124.984 67.8129L126.08 68.2324L136.746 40.3654L135.65 39.9459ZM126.117 67.9848L124.314 40.1178L123.143 40.1935L124.946 68.0605L126.117 67.9848ZM123.729 39.5688H102.697V40.7425H123.729V39.5688ZM102.123 40.0326L91.0066 91.8607L92.1542 92.1068L103.271 40.2787L102.123 40.0326ZM91.5804 92.5706H107.73V91.3969H91.5804V92.5706ZM108.307 92.0868L113.49 63.018L112.335 62.812L107.152 91.8808L108.307 92.0868ZM112.327 62.9498L114.054 92.0186L115.226 91.949L113.498 62.8801L112.327 62.9498ZM114.64 92.5706H128.837V91.3969H114.64V92.5706ZM129.386 92.1909L140.352 63.1221L139.254 62.7078L128.287 91.7766L129.386 92.1909ZM139.222 62.8339L135.166 91.9027L136.328 92.0649L140.384 62.9961L139.222 62.8339ZM135.747 92.5706H151.896V91.3969H135.747V92.5706ZM152.48 92.0438L157.813 40.2157L156.646 40.0956L151.313 91.9237L152.48 92.0438ZM201.641 40.1557L202.22 40.2495L202.33 39.5688H201.641V40.1557ZM166.112 40.1557V39.5688H165.611L165.532 40.0641L166.112 40.1557ZM157.925 91.9838L157.345 91.8922L157.238 92.5706H157.925V91.9838ZM194.129 91.9838V92.5706H194.63L194.709 92.0766L194.129 91.9838ZM196.308 78.3883L196.887 78.4811L196.996 77.8015H196.308V78.3883ZM176.478 78.3883L175.898 78.299L175.794 78.9751H176.478V78.3883ZM177.379 72.5294V71.9426H176.876L176.799 72.4402L177.379 72.5294ZM195.406 72.5294V73.1163H195.908L195.986 72.6201L195.406 72.5294ZM197.509 59.0842L198.089 59.1749L198.195 58.4974H197.509V59.0842ZM179.482 59.0842L178.903 58.989L178.791 59.671H179.482V59.0842ZM180.384 53.6009V53.0141H179.885L179.804 53.5057L180.384 53.6009ZM199.462 53.6009V54.1877H199.962L200.042 53.6948L199.462 53.6009ZM201.641 39.5688H166.112V40.7425H201.641V39.5688ZM165.532 40.0641L157.345 91.8922L158.504 92.0753L166.692 40.2472L165.532 40.0641ZM157.925 92.5706H194.129V91.3969H157.925V92.5706ZM194.709 92.0766L196.887 78.4811L195.728 78.2954L193.55 91.8909L194.709 92.0766ZM196.308 77.8015H176.478V78.9751H196.308V77.8015ZM177.058 78.4775L177.959 72.6187L176.799 72.4402L175.898 78.299L177.058 78.4775ZM177.379 73.1163H195.406V71.9426H177.379V73.1163ZM195.986 72.6201L198.089 59.1749L196.93 58.9935L194.826 72.4388L195.986 72.6201ZM197.509 58.4974H179.482V59.671H197.509V58.4974ZM180.061 59.1794L180.963 53.6961L179.804 53.5057L178.903 58.989L180.061 59.1794ZM180.384 54.1877H199.462V53.0141H180.384V54.1877ZM200.042 53.6948L202.22 40.2495L201.061 40.0618L198.883 53.5071L200.042 53.6948ZM208.29 40.1557V39.5688H207.788L207.71 40.0641L208.29 40.1557ZM200.103 91.9838L199.523 91.8922L199.416 92.5706H200.103V91.9838ZM216.552 91.9838V92.5706H217.054L217.132 92.0749L216.552 91.9838ZM219.256 74.7828V74.196H218.755L218.677 74.6917L219.256 74.7828ZM221.284 74.7828L221.846 74.6135L221.72 74.196H221.284V74.7828ZM226.467 91.9838L225.905 92.1531L226.031 92.5706H226.467V91.9838ZM245.396 91.9838V92.5706H246.272L245.938 91.7601L245.396 91.9838ZM237.284 72.3041L236.999 71.7911L236.542 72.0448L236.741 72.5277L237.284 72.3041ZM221.209 61.8634L220.63 61.7701L220.52 62.4502H221.209V61.8634ZM222.636 53V52.4132H222.137L222.057 52.9067L222.636 53ZM248.837 53.9014C248.837 48.2935 246.462 44.6649 242.866 42.4714C239.314 40.3051 234.624 39.5688 229.998 39.5688V40.7425C234.535 40.7425 238.971 41.4709 242.255 43.4734C245.493 45.4487 247.663 48.6929 247.663 53.9014H248.837ZM229.998 39.5688H208.29V40.7425H229.998V39.5688ZM207.71 40.0641L199.523 91.8922L200.682 92.0753L208.869 40.2472L207.71 40.0641ZM200.103 92.5706H216.552V91.3969H200.103V92.5706ZM217.132 92.0749L219.836 74.874L218.677 74.6917L215.973 91.8926L217.132 92.0749ZM219.256 75.3697H221.284V74.196H219.256V75.3697ZM220.723 74.9521L225.905 92.1531L227.029 91.8145L221.846 74.6135L220.723 74.9521ZM226.467 92.5706H245.396V91.3969H226.467V92.5706ZM245.938 91.7601L237.826 72.0805L236.741 72.5277L244.853 92.2074L245.938 91.7601ZM237.569 72.8171C244.507 68.9621 248.837 61.9348 248.837 53.9014H247.663C247.663 61.4915 243.58 68.1348 236.999 71.7911L237.569 72.8171ZM230.838 56.5303C230.838 58.0901 230.234 59.2561 229.293 60.0421C228.339 60.8383 226.997 61.2766 225.491 61.2766V62.4502C227.214 62.4502 228.839 61.9495 230.045 60.943C231.263 59.9263 232.012 58.4257 232.012 56.5303H230.838ZM225.491 61.2766H221.209V62.4502H225.491V61.2766ZM221.789 61.9567L223.216 53.0933L222.057 52.9067L220.63 61.7701L221.789 61.9567ZM222.636 53.5868H226.693V52.4132H222.636V53.5868ZM226.693 53.5868C227.756 53.5868 228.819 53.8018 229.596 54.2793C230.342 54.7373 230.838 55.4396 230.838 56.5303H232.012C232.012 54.9922 231.268 53.9293 230.211 53.2794C229.185 52.6489 227.883 52.4132 226.693 52.4132V53.5868ZM273.006 40.1557L273.585 40.2472L273.693 39.5688H273.006V40.1557ZM256.556 40.1557V39.5688H256.055L255.976 40.0641L256.556 40.1557ZM248.369 91.9838L247.789 91.8922L247.682 92.5706H248.369V91.9838ZM264.818 91.9838V92.5706H265.32L265.398 92.0753L264.818 91.9838ZM273.006 39.5688H256.556V40.7425H273.006V39.5688ZM255.976 40.0641L247.789 91.8922L248.948 92.0753L257.136 40.2472L255.976 40.0641ZM248.369 92.5706H264.818V91.3969H248.369V92.5706ZM265.398 92.0753L273.585 40.2472L272.426 40.0641L264.239 91.8922L265.398 92.0753ZM314.2 58.7086L313.779 59.1175L314.374 59.7295L314.732 58.9554L314.2 58.7086ZM320.885 44.2869L321.417 44.5337L321.586 44.1702L321.309 43.8809L320.885 44.2869ZM315.327 86.3503L315.715 86.7899L315.966 86.5682L315.903 86.2395L315.327 86.3503ZM312.698 72.6797L313.274 72.5689L313.079 71.5539L312.307 72.2416L312.698 72.6797ZM314.732 58.9554L321.417 44.5337L320.353 44.0401L313.668 58.4618L314.732 58.9554ZM321.309 43.8809C319.468 41.96 316.523 40.7047 313.521 39.9257C310.502 39.1422 307.335 38.8177 304.961 38.8177V39.9914C307.244 39.9914 310.312 40.3053 313.226 41.0617C316.158 41.8225 318.847 43.0084 320.461 44.6929L321.309 43.8809ZM304.961 38.8177C286.067 38.8177 272.977 52.6936 272.977 71.4779H274.151C274.151 53.3064 286.75 39.9914 304.961 39.9914V38.8177ZM272.977 71.4779C272.977 78.4977 275.456 84.0166 279.68 87.7746C283.896 91.5246 289.792 93.4719 296.548 93.4719V92.2983C290.01 92.2983 284.414 90.4149 280.461 86.8977C276.516 83.3885 274.151 78.2038 274.151 71.4779H272.977ZM296.548 93.4719C303.491 93.4719 310.401 91.4882 315.715 86.7899L314.938 85.9106C309.887 90.3762 303.277 92.2983 296.548 92.2983V93.4719ZM315.903 86.2395L313.274 72.5689L312.121 72.7905L314.75 86.4611L315.903 86.2395ZM312.307 72.2416C308.965 75.2207 304.524 76.825 300.079 76.825V77.9986C304.797 77.9986 309.52 76.2979 313.088 73.1177L312.307 72.2416ZM300.079 76.825C297.374 76.825 295.103 76.0324 293.516 74.5923C291.936 73.1591 290.976 71.0342 290.976 68.248H289.802C289.802 71.3207 290.871 73.7776 292.727 75.4616C294.576 77.1388 297.15 77.9986 300.079 77.9986V76.825ZM290.976 68.248C290.976 60.7081 296.021 54.7135 303.759 54.7135V53.5399C295.273 53.5399 289.802 60.1643 289.802 68.248H290.976ZM303.759 54.7135C307.191 54.7135 311.325 56.5912 313.779 59.1175L314.621 58.2997C311.967 55.5681 307.538 53.5399 303.759 53.5399V54.7135ZM366.503 91.9838V92.5706H367.203L367.081 91.8816L366.503 91.9838ZM357.34 40.1557L357.917 40.0535L357.832 39.5688H357.34V40.1557ZM339.162 40.1557V39.5688H338.797L338.636 39.8963L339.162 40.1557ZM313.624 91.9838L313.097 91.7244L312.68 92.5706H313.624V91.9838ZM330.75 91.9838V92.5706H331.139L331.29 92.2122L330.75 91.9838ZM333.829 84.6978V84.111H333.44L333.289 84.4693L333.829 84.6978ZM347.875 84.6978L348.459 84.6376L348.405 84.111H347.875V84.6978ZM348.626 91.9838L348.043 92.0439L348.097 92.5706H348.626V91.9838ZM346.523 71.6281V72.2149H347.179L347.107 71.5633L346.523 71.6281ZM339.312 71.6281L338.772 71.3998L338.428 72.2149H339.312V71.6281ZM345.021 58.1077L345.604 58.0429L345.356 55.8063L344.48 57.8795L345.021 58.1077ZM367.081 91.8816L357.917 40.0535L356.762 40.2578L365.926 92.0859L367.081 91.8816ZM357.34 39.5688H339.162V40.7425H357.34V39.5688ZM338.636 39.8963L313.097 91.7244L314.15 92.2431L339.689 40.415L338.636 39.8963ZM313.624 92.5706H330.75V91.3969H313.624V92.5706ZM331.29 92.2122L334.37 84.9263L333.289 84.4693L330.209 91.7553L331.29 92.2122ZM333.829 85.2846H347.875V84.111H333.829V85.2846ZM347.292 84.758L348.043 92.0439L349.21 91.9236L348.459 84.6376L347.292 84.758ZM348.626 92.5706H366.503V91.3969H348.626V92.5706ZM346.523 71.0413H339.312V72.2149H346.523V71.0413ZM339.853 71.8563L345.562 58.336L344.48 57.8795L338.772 71.3998L339.853 71.8563ZM344.438 58.1725L345.94 71.6929L347.107 71.5633L345.604 58.0429L344.438 58.1725ZM392.973 40.1557L393.488 40.4374L393.963 39.5688H392.973V40.1557ZM377.65 40.1557V39.5688H377.275L377.118 39.909L377.65 40.1557ZM367.735 61.5629L367.203 61.3163L366.817 62.1497H367.735V61.5629ZM381.256 61.5629V62.1497H381.603L381.77 61.8447L381.256 61.5629ZM392.973 39.5688H377.65V40.7425H392.973V39.5688ZM377.118 39.909L367.203 61.3163L368.268 61.8095L378.183 40.4023L377.118 39.909ZM367.735 62.1497H381.256V60.9761H367.735V62.1497ZM381.77 61.8447L393.488 40.4374L392.458 39.8739L380.741 61.2812L381.77 61.8447ZM426.72 57.9575L426.335 58.4006L426.839 58.8376L427.208 58.283L426.72 57.9575ZM434.832 45.7892L435.321 46.1147L435.593 45.7063L435.239 45.3662L434.832 45.7892ZM397.651 73.0552L398.077 72.6517L397.593 72.1405L397.178 72.7089L397.651 73.0552ZM388.262 85.8996L387.788 85.5533L387.47 85.9891L387.878 86.3428L388.262 85.8996ZM427.208 58.283L435.321 46.1147L434.344 45.4636L426.232 57.632L427.208 58.283ZM435.239 45.3662C433.207 43.4126 430.29 41.8178 427.22 40.7115C424.145 39.604 420.866 38.9679 418.082 38.9679V40.1416C420.706 40.1416 423.849 40.7449 426.822 41.8157C429.797 42.8877 432.551 44.41 434.426 46.2122L435.239 45.3662ZM418.082 38.9679C411.748 38.9679 405.752 40.7032 401.325 44.1922C396.883 47.6938 394.06 52.9343 394.06 59.8353H395.234C395.234 53.291 397.894 48.3913 402.052 45.1139C406.226 41.8239 411.947 40.1416 418.082 40.1416V38.9679ZM394.06 59.8353C394.06 63.4818 395.327 66.1434 397.24 68.1315C399.137 70.1016 401.642 71.3834 404.084 72.3433C405.308 72.8243 406.529 73.2292 407.661 73.5982C408.8 73.9695 409.837 74.3011 410.724 74.6427C411.617 74.9867 412.303 75.3213 412.76 75.6788C413.206 76.0282 413.364 76.3425 413.364 76.6607H414.538C414.538 75.8522 414.093 75.2323 413.483 74.7548C412.884 74.2854 412.062 73.9006 411.146 73.5475C410.223 73.1919 409.148 72.8487 408.025 72.4824C406.894 72.1137 405.702 71.7181 404.514 71.2509C402.13 70.3142 399.809 69.1078 398.086 67.3176C396.38 65.5453 395.234 63.1743 395.234 59.8353H394.06ZM413.364 76.6607C413.364 77.1331 413.016 77.5006 412.261 77.7698C411.533 78.0293 410.65 78.1019 410.12 78.1019V79.2756C410.717 79.2756 411.75 79.1979 412.655 78.8753C413.533 78.5624 414.538 77.9159 414.538 76.6607H413.364ZM410.12 78.1019C408.208 78.1019 405.855 77.4416 403.625 76.4098C401.399 75.3793 399.364 74.0097 398.077 72.6517L397.225 73.4588C398.643 74.9551 400.815 76.4023 403.132 77.4749C405.447 78.5463 407.976 79.2756 410.12 79.2756V78.1019ZM397.178 72.7089L387.788 85.5533L388.736 86.2459L398.125 73.4015L397.178 72.7089ZM387.878 86.3428C393.083 90.8592 399.527 93.4719 406.44 93.4719V92.2983C399.832 92.2983 393.657 89.8033 388.647 85.4564L387.878 86.3428ZM406.44 93.4719C412.779 93.4719 419.015 91.64 423.68 88.0352C428.36 84.419 431.438 79.0309 431.438 72.0037H430.265C430.265 78.647 427.371 83.6997 422.962 87.1065C418.539 90.5248 412.569 92.2983 406.44 92.2983V93.4719ZM431.438 72.0037C431.438 68.428 430.159 65.76 428.238 63.7298C426.332 61.7162 423.813 60.3492 421.352 59.3132C420.118 58.794 418.888 58.3536 417.745 57.9568C416.595 57.5575 415.548 57.207 414.649 56.8587C413.744 56.5082 413.044 56.1798 412.577 55.8424C412.106 55.5025 411.984 55.2378 411.984 55.0281H410.81C410.81 55.7948 411.296 56.3658 411.889 56.794C412.486 57.2247 413.306 57.5971 414.225 57.9531C415.15 58.3113 416.23 58.6732 417.36 59.0655C418.497 59.4604 419.699 59.8908 420.897 60.395C423.299 61.4058 425.644 62.696 427.385 64.5366C429.112 66.3607 430.265 68.744 430.265 72.0037H431.438ZM411.984 55.0281C411.984 54.5557 412.332 54.1881 413.087 53.919C413.815 53.6595 414.698 53.5868 415.228 53.5868V52.4132C414.631 52.4132 413.598 52.4908 412.693 52.8134C411.815 53.1264 410.81 53.7729 410.81 55.0281H411.984ZM415.228 53.5868C417.067 53.5868 419.14 54.1735 421.124 55.0827C423.103 55.9897 424.952 57.199 426.335 58.4006L427.105 57.5144C425.634 56.2372 423.69 54.9678 421.613 54.0158C419.54 53.0659 417.295 52.4132 415.228 52.4132V53.5868Z" fill="#FBBF17"/>
<path d="M37.5566 137.435H20.581L26.5901 99.5778H10.2154L2.02806 151.406H35.3783L37.5566 137.435ZM89.5015 151.406L80.3377 99.5778H62.1603L36.6218 151.406H53.7476L56.8272 144.12H70.8734L71.6245 151.406H89.5015ZM69.5214 131.05H62.3105L68.0191 117.53L69.5214 131.05ZM139.713 110.695C139.713 100.554 129.197 99.5778 121.535 99.5778H100.879L92.692 151.406H117.63C128.145 151.406 138.511 146.524 138.511 134.205C138.511 129.248 135.507 125.642 130.85 124.14C136.032 122.037 139.713 117.605 139.713 110.695ZM122.963 114.751C122.963 117.905 120.709 119.258 117.855 119.258H114.174L115.301 111.896H119.057C120.935 111.896 122.963 112.422 122.963 114.751ZM122.136 133.754C122.136 137.059 119.733 138.712 116.653 138.712H111.095L112.372 130.6H117.705C119.808 130.6 122.136 131.2 122.136 133.754ZM197.078 120.234C197.078 106.263 187.238 98.7516 173.793 98.7516C155.165 98.7516 142.02 112.122 142.02 130.825C142.02 144.796 151.935 152.307 165.305 152.307C184.009 152.307 197.078 138.937 197.078 120.234ZM180.403 122.562C180.403 129.924 175.596 137.21 167.709 137.21C162.075 137.21 158.846 133.304 158.846 127.82C158.846 120.459 163.653 113.173 171.54 113.173C177.173 113.173 180.403 117.079 180.403 122.562ZM246.174 113.324C246.174 102.507 237.085 99.5778 227.922 99.5778H206.214L198.027 151.406H214.476L217.18 134.205H219.208L224.391 151.406H243.32L235.208 131.726C241.968 127.971 246.174 121.135 246.174 113.324ZM229.349 115.953C229.349 119.408 226.645 121.286 223.415 121.286H219.133L220.56 112.422H224.617C226.87 112.422 229.349 113.324 229.349 115.953ZM302.441 118.131L309.127 103.709C305.671 100.104 297.86 98.8267 293.203 98.8267C274.65 98.8267 261.805 112.422 261.805 130.9C261.805 144.646 271.495 152.307 284.79 152.307C291.625 152.307 298.385 150.354 303.568 145.772L300.939 132.102C297.484 135.181 292.902 136.834 288.32 136.834C282.687 136.834 278.631 133.529 278.631 127.67C278.631 119.858 283.888 113.549 292.001 113.549C295.606 113.549 299.888 115.502 302.441 118.131ZM354.589 113.324C354.589 102.507 345.501 99.5778 336.337 99.5778H314.629L306.442 151.406H322.892L325.596 134.205H327.624L332.807 151.406H351.735L343.623 131.726C350.383 127.971 354.589 121.135 354.589 113.324ZM337.764 115.953C337.764 119.408 335.06 121.286 331.83 121.286H327.549L328.976 112.422H333.032C335.285 112.422 337.764 113.324 337.764 115.953ZM379.345 99.5778H362.895L354.708 151.406H371.158L379.345 99.5778ZM413.935 117.38L422.047 105.211C418.141 101.456 410.705 98.9769 405.297 98.9769C392.828 98.9769 381.861 105.812 381.861 119.258C381.861 133.229 401.165 131.576 401.165 136.083C401.165 137.81 398.461 138.111 397.335 138.111C393.279 138.111 387.57 135.332 384.866 132.477L375.477 145.322C380.584 149.753 386.894 152.307 393.654 152.307C406.123 152.307 418.066 145.096 418.066 131.426C418.066 117.755 398.612 118.356 398.612 114.45C398.612 112.723 401.316 112.422 402.442 112.422C406.348 112.422 411.08 114.901 413.935 117.38ZM443.969 99.5778H427.519L419.332 151.406H435.781L443.969 99.5778ZM478.558 117.38L486.671 105.211C482.765 101.456 475.329 98.9769 469.92 98.9769C457.452 98.9769 446.485 105.812 446.485 119.258C446.485 133.229 465.789 131.576 465.789 136.083C465.789 137.81 463.085 138.111 461.958 138.111C457.902 138.111 452.194 135.332 449.49 132.477L440.1 145.322C445.208 149.753 451.518 152.307 458.278 152.307C470.747 152.307 482.69 145.096 482.69 131.426C482.69 117.755 463.235 118.356 463.235 114.45C463.235 112.723 465.939 112.422 467.066 112.422C470.972 112.422 475.704 114.901 478.558 117.38Z" fill="white"/>
<path d="M93.1537 89.7932L83.9899 37.9651H65.8125L40.274 89.7932H57.3998L60.4795 82.5072H74.5256L75.2768 89.7932H93.1537ZM73.1736 69.4375H65.9627L71.6713 55.9171L73.1736 69.4375ZM160.566 37.9651H139.534L128.868 65.832L127.066 37.9651H106.034L94.9171 89.7932H111.066L116.249 60.7243L117.977 89.7932H132.173L143.14 60.7243L139.084 89.7932H155.233L160.566 37.9651ZM204.977 37.9651H169.449L161.261 89.7932H197.466L199.644 76.1977H179.814L180.716 70.3388H198.743L200.846 56.8936H182.819L183.72 51.4103H202.799L204.977 37.9651ZM251.587 51.7108C251.587 40.8945 242.498 37.9651 233.334 37.9651H211.627L203.439 89.7932H219.889L222.593 72.5922H224.621L229.804 89.7932H248.732L240.62 70.1135C247.38 66.3578 251.587 59.5225 251.587 51.7108ZM234.761 54.3397C234.761 57.7949 232.057 59.6728 228.827 59.6728H224.546L225.973 50.8094H230.029C232.283 50.8094 234.761 51.7108 234.761 54.3397ZM276.342 37.9651H259.893L251.705 89.7932H268.155L276.342 37.9651ZM317.537 56.518L324.222 42.0963C320.767 38.4908 312.955 37.2139 308.298 37.2139C289.745 37.2139 276.9 50.8094 276.9 69.2873C276.9 83.033 286.59 90.6945 299.885 90.6945C306.72 90.6945 313.481 88.7416 318.663 84.1597L316.034 70.4891C312.579 73.5687 307.997 75.2212 303.415 75.2212C297.782 75.2212 293.726 71.9162 293.726 66.0574C293.726 58.2456 298.984 51.9361 307.096 51.9361C310.701 51.9361 314.983 53.889 317.537 56.518ZM369.84 89.7932L360.676 37.9651H342.499L316.96 89.7932H334.086L337.166 82.5072H351.212L351.963 89.7932H369.84ZM349.86 69.4375H342.649L348.358 55.9171L349.86 69.4375ZM396.31 37.9651H380.987L371.072 59.3723H384.592L396.31 37.9651ZM430.057 55.7669L438.169 43.5985C434.263 39.8429 426.827 37.3641 421.419 37.3641C408.95 37.3641 397.984 44.1994 397.984 57.6447C397.984 71.6158 417.288 69.9633 417.288 74.4701C417.288 76.1977 414.584 76.4981 413.457 76.4981C409.401 76.4981 403.692 73.7189 400.988 70.8646L391.599 83.709C396.707 88.1407 403.016 90.6945 409.776 90.6945C422.245 90.6945 434.188 83.4836 434.188 69.813C434.188 56.1424 414.734 56.7433 414.734 52.8375C414.734 51.1099 417.438 50.8094 418.565 50.8094C422.47 50.8094 427.203 53.2881 430.057 55.7669Z" fill="white"/>
<path d="M337.242 10.1359C337.242 9.33306 337.725 8.61098 338.463 8.30601C339.2 8.00103 340.05 8.17146 340.618 8.73656C341.181 9.30166 341.351 10.1583 341.047 10.8983C340.743 11.6383 340.019 12.1227 339.223 12.1182C338.7 12.1182 338.195 11.9119 337.823 11.5396C337.448 11.1674 337.242 10.6606 337.242 10.1359ZM337.502 10.1359C337.502 10.831 337.913 11.4544 338.552 11.7235C339.192 11.9926 339.925 11.8446 340.417 11.3558C340.908 10.8669 341.056 10.1314 340.792 9.49003C340.528 8.84868 339.907 8.4271 339.214 8.4271C338.275 8.4271 337.51 9.18954 337.502 10.1359ZM339.169 10.378H338.767V11.275H338.467V9.00117H339.393C339.786 8.98323 340.113 9.29718 340.108 9.69185C340.117 10.0327 339.867 10.3197 339.531 10.3646L340.135 11.2705H339.764L339.169 10.378ZM338.767 9.26578V10.1089H339.393C339.616 10.1089 339.795 9.92955 339.795 9.7053C339.809 9.47209 339.625 9.27475 339.393 9.27475L338.767 9.26578Z" fill="white"/>
<path d="M147.847 16.1726H155.3V12.5981H147.847V8.69171H155.742V5.1217H143.402V24.232H155.993V20.6037H147.847V16.1726Z" fill="white"/>
<path d="M166.039 10.3287C164.081 10.3287 162.838 11.3244 162.091 12.5443H162.037L162.064 10.5799H157.647V24.2365H162.064V17.4732C162.064 15.5088 162.587 13.957 164.492 13.957C166.316 13.957 166.589 15.316 166.589 17.1144V24.232H171.006V16.1726C171.011 12.8762 169.987 10.3287 166.039 10.3287Z" fill="white"/>
<path d="M178.133 6.89325H173.689V10.6068H171.757V13.957H173.689V19.2492C173.689 22.3797 174.435 24.5414 177.968 24.5414C179.568 24.5414 180.784 24.1826 181.115 24.0974L180.892 20.6306C180.892 20.6306 180.257 20.8817 179.568 20.8817C178.213 20.8817 178.133 20.052 178.133 18.859V13.957H181.142V10.6068H178.133V6.89325Z" fill="white"/>
<path d="M186.918 12.5129H186.865L186.891 10.5754H182.474V24.232H186.891V18.1639C186.891 16.3654 187.441 14.3158 189.623 14.3158C190.397 14.3158 190.978 14.5087 191.224 14.6477H191.416L191.666 10.5754C191.666 10.5754 191.197 10.3242 190.285 10.3242C188.823 10.3287 187.692 11.0194 186.918 12.5129Z" fill="white"/>
<path d="M199.129 10.3287C195.096 10.3287 191.783 12.9031 191.783 17.4194C191.783 21.9357 194.85 24.537 199.044 24.537C203.269 24.537 205.062 22.6533 205.504 22.3214L203.765 20.0207C202.991 20.5454 201.445 21.3213 199.678 21.3213C197.886 21.3213 196.392 20.4333 196.2 18.4689H205.893C205.893 18.4689 205.947 17.6661 205.947 17.0023C205.947 13.0152 203.161 10.3287 199.129 10.3287ZM196.231 15.9483C196.285 14.6477 197.224 13.2081 199.048 13.2081C200.899 13.2081 201.811 14.7015 201.838 15.9483H196.231Z" fill="white"/>
<path d="M211.885 5.1217H207.44V24.232H218.484V20.5185H211.885V5.1217Z" fill="white"/>
<path d="M225.937 10.3287C221.904 10.3287 218.591 12.9031 218.591 17.4194C218.591 21.9357 221.658 24.537 225.852 24.537C230.077 24.537 231.87 22.6533 232.312 22.3214L230.573 20.0207C229.8 20.5454 228.253 21.3213 226.487 21.3213C224.694 21.3213 223.2 20.4333 223.008 18.4689H232.701C232.701 18.4689 232.755 17.6661 232.755 17.0023C232.755 13.0152 229.965 10.3287 225.937 10.3287ZM223.035 15.9483C223.089 14.6477 224.028 13.2081 225.852 13.2081C227.703 13.2081 228.615 14.7015 228.642 15.9483H223.035Z" fill="white"/>
<path d="M239.738 10.3287C237.199 10.3287 235.071 11.1315 233.913 11.7146L235.071 14.5939C235.759 14.1499 237.498 13.374 239.242 13.374C241.008 13.374 242.032 14.123 242.032 15.5626V15.8676L238.607 16.0067C236.095 16.1188 233.305 17.1413 233.305 20.1911C233.305 23.2364 235.844 24.5415 238.245 24.5415C240.454 24.5415 241.558 23.3799 242.139 22.7968L242.224 24.2365H246.449V16.5314C246.449 12.1003 243.99 10.3287 239.738 10.3287ZM242.059 20.4647C241.782 20.9356 240.981 21.7115 239.797 21.7115C238.58 21.7115 237.726 21.0746 237.726 20.0207C237.726 18.9981 238.527 18.4151 239.882 18.3568L242.063 18.2177V20.4647H242.059Z" fill="white"/>
<path d="M258.294 7.70054V12.2393C257.851 11.5755 256.469 10.3287 253.988 10.3287C250.04 10.3287 247.554 13.4009 247.554 17.4194C247.554 21.4379 250.04 24.537 253.988 24.537C255.812 24.537 257.44 23.8463 258.459 22.4604L258.544 22.4335L258.517 24.232H262.715V5.13965L258.294 7.70054ZM255.253 20.9087C253.349 20.9087 252.052 19.469 252.052 17.3656C252.052 15.2621 253.349 13.8225 255.253 13.8225C257.158 13.8225 258.428 15.2621 258.428 17.3656C258.432 19.469 257.162 20.9087 255.253 20.9087Z" fill="white"/>
<path d="M271.46 10.3287C267.427 10.3287 264.114 12.9031 264.114 17.4194C264.114 21.9357 267.177 24.537 271.375 24.537C275.6 24.537 277.393 22.6533 277.836 22.3214L276.097 20.0207C275.323 20.5454 273.776 21.3213 272.01 21.3213C270.217 21.3213 268.724 20.4333 268.532 18.4689H278.225C278.225 18.4689 278.278 17.6661 278.278 17.0023C278.278 13.0152 275.493 10.3287 271.46 10.3287ZM268.563 15.9483C268.617 14.6477 269.555 13.2081 271.38 13.2081C273.231 13.2081 274.143 14.7015 274.17 15.9483H268.563Z" fill="white"/>
<path d="M287.305 10.3287C285.843 10.3287 284.708 11.0194 283.939 12.5174H283.885L283.912 10.5799H279.495V24.2365H283.912V18.1639C283.912 16.3654 284.466 14.3158 286.644 14.3158C287.417 14.3158 287.998 14.5087 288.244 14.6477H288.437L288.687 10.5754C288.687 10.5754 288.218 10.3287 287.305 10.3287Z" fill="white"/>
<path d="M295.304 15.5895C294.365 15.3115 293.315 14.9796 293.315 14.262C293.315 13.5399 293.896 13.2663 294.942 13.2663C296.046 13.2663 297.593 13.9884 298.367 14.5939L299.802 11.9881C299.029 11.3513 297.428 10.2973 294.584 10.2973C291.741 10.2973 289.42 11.9298 289.42 14.5894C289.42 17.4149 291.41 18.2177 293.672 18.8007C294.169 18.9667 296.158 19.4107 296.158 20.2942C296.158 21.1822 295.385 21.4558 294.28 21.4558C293.176 21.4558 291.352 20.7337 290.248 19.7919L288.589 22.4245C290.136 23.8911 292.291 24.528 294.334 24.528C297.151 24.528 300.106 23.2812 300.106 20.0117C300.106 17.0023 297.647 16.2802 295.304 15.5895Z" fill="white"/>
<path d="M309.455 10.3287C307.439 10.3287 306.142 11.3244 305.453 12.5443C305.453 12.5443 305.48 11.0508 305.48 9.66494V5.1217L301.063 7.67811V24.232H305.48V17.527C305.48 15.5043 306.062 13.9525 307.908 13.9525C309.755 13.9525 309.978 15.3922 309.978 17.0561V24.2275H314.422V16.1726C314.427 12.8448 313.407 10.3287 309.455 10.3287Z" fill="white"/>
<path d="M320.462 10.5754H316.045V24.232H320.462V10.5754Z" fill="white"/>
<path d="M318.254 4.39966C316.765 4.39966 315.741 5.34149 315.741 6.70043C315.741 8.08627 316.765 9.00119 318.254 9.00119C319.743 9.00119 320.767 8.08627 320.767 6.70043C320.767 5.34149 319.747 4.39966 318.254 4.39966Z" fill="white"/>
<path d="M330.835 10.3287C328.765 10.3287 327.303 11.1315 326.306 12.3245H326.252L326.279 10.5799H322.081V29.2417H326.498V22.5143C327.352 23.788 328.792 24.537 330.804 24.537C334.752 24.537 337.238 21.4334 337.238 17.4194C337.238 13.4054 334.756 10.3287 330.835 10.3287ZM329.539 20.9087C327.661 20.9087 326.364 19.469 326.364 17.3656C326.364 15.2622 327.661 13.8225 329.539 13.8225C331.443 13.8225 332.74 15.2622 332.74 17.3656C332.74 19.469 331.443 20.9087 329.539 20.9087Z" fill="white"/>
</g>
<defs>
<clipPath id="clip0_280_3690">
<rect width="488" height="157" fill="white"/>
</clipPath>
</defs>
</svg>
