<?xml version="1.0" encoding="utf-8"?>
<!-- Generator: Adobe Illustrator 27.2.0, SVG Export Plug-In . SVG Version: 6.00 Build 0)  -->
<svg version="1.1" id="Layer_1" xmlns="http://www.w3.org/2000/svg" xmlns:xlink="http://www.w3.org/1999/xlink" x="0px" y="0px"
	 viewBox="0 0 372 99" style="enable-background:new 0 0 372 99;" xml:space="preserve">
<style type="text/css">
	.st0{clip-path:url(#SVGID_00000162349786610622985960000005354222968568721597_);}
	.st1{fill:#FBBF17;}
	.st2{fill:#FFFFFF;}
	.st3{clip-path:url(#SVGID_00000108997577565016942010000013886641569221572759_);}
	.st4{fill:#E54B3F;}
</style>
<g>
	<defs>
		<rect id="SVGID_1_" x="34.5" width="303" height="99"/>
	</defs>
	<clipPath id="SVGID_00000139988997313175796470000011181801822015171225_">
		<use xlink:href="#SVGID_1_"  style="overflow:visible;"/>
	</clipPath>
	<g style="clip-path:url(#SVGID_00000139988997313175796470000011181801822015171225_);">
		<path class="st1" d="M107.9,46v0.3h0.4l-0.1-0.4L107.9,46z M103.2,19.3l0.3-0.1l0-0.2h-0.3V19.3z M93.8,19.3V19h-0.2l-0.1,0.2
			L93.8,19.3z M80.7,46l-0.3-0.1l-0.2,0.4h0.5V46z M89.5,46v0.3h0.2l0.1-0.2L89.5,46z M91.1,42.2v-0.3h-0.2l-0.1,0.2L91.1,42.2z
			 M98.3,42.2l0.3,0l0-0.3h-0.3V42.2z M98.7,46l-0.3,0l0,0.3h0.3V46z M97.6,35.5v0.3h0.3l0-0.3L97.6,35.5z M93.9,35.5l-0.3-0.1
			l-0.2,0.4h0.5V35.5z M96.8,28.5l0.3,0L97,27.4l-0.5,1.1L96.8,28.5z M108.2,45.9l-4.7-26.7l-0.6,0.1l4.7,26.7L108.2,45.9z
			 M103.2,19h-9.3v0.6h9.3V19z M93.6,19.2L80.4,45.8l0.5,0.3l13.1-26.7L93.6,19.2z M80.7,46.3h8.8v-0.6h-8.8V46.3z M89.8,46.1
			l1.6-3.7l-0.6-0.2l-1.6,3.7L89.8,46.1z M91.1,42.5h7.2v-0.6h-7.2V42.5z M98,42.2l0.4,3.7l0.6-0.1l-0.4-3.7L98,42.2z M98.7,46.3
			h9.2v-0.6h-9.2V46.3z M97.6,35.2h-3.7v0.6h3.7V35.2z M94.2,35.6l2.9-7l-0.6-0.2l-2.9,7L94.2,35.6z M96.5,28.6l0.8,7l0.6-0.1
			l-0.8-7L96.5,28.6z M142.6,19.3l0.3,0l0-0.3h-0.3V19.3z M131.7,19.3V19h-0.2l-0.1,0.2L131.7,19.3z M126.3,33.6l-0.3,0l0.6,0.1
			L126.3,33.6z M125.3,19.3l0.3,0l0-0.3h-0.3V19.3z M114.5,19.3V19h-0.2l-0.1,0.2L114.5,19.3z M108.8,46l-0.3-0.1l-0.1,0.4h0.4V46z
			 M117.1,46v0.3h0.3l0-0.2L117.1,46z M119.8,31l0.3,0l-0.6,0L119.8,31z M120.7,46l-0.3,0l0,0.3h0.3V46z M128,46v0.3h0.2l0.1-0.2
			L128,46z M133.6,31l0.3,0l-0.6-0.1L133.6,31z M131.5,46l-0.3,0l0,0.3h0.3V46z M139.8,46v0.3h0.3l0-0.3L139.8,46z M142.6,19h-10.8
			v0.6h10.8V19z M131.5,19.2L126,33.5l0.6,0.2l5.5-14.3L131.5,19.2z M126.6,33.6l-0.9-14.3l-0.6,0l0.9,14.3L126.6,33.6z M125.3,19
			h-10.8v0.6h10.8V19z M114.2,19.2l-5.7,26.7l0.6,0.1l5.7-26.7L114.2,19.2z M108.8,46.3h8.3v-0.6h-8.3V46.3z M117.4,46l2.7-15
			l-0.6-0.1l-2.7,15L117.4,46z M119.5,31l0.9,15l0.6,0l-0.9-15L119.5,31z M120.7,46.3h7.3v-0.6h-7.3V46.3z M128.2,46.1l5.6-15
			l-0.6-0.2l-5.6,15L128.2,46.1z M133.3,31l-2.1,15l0.6,0.1l2.1-15L133.3,31z M131.5,46.3h8.3v-0.6h-8.3V46.3z M140.1,46l2.7-26.7
			l-0.6-0.1l-2.7,26.7L140.1,46z M165.4,19.3l0.3,0l0.1-0.4h-0.4V19.3z M147.1,19.3V19h-0.3l0,0.3L147.1,19.3z M142.9,46l-0.3,0
			l-0.1,0.3h0.4V46z M161.5,46v0.3h0.3l0-0.3L161.5,46z M162.7,39l0.3,0l0.1-0.3h-0.4V39z M152.5,39l-0.3,0l-0.1,0.3h0.4V39z
			 M152.9,36v-0.3h-0.3l0,0.3L152.9,36z M162.2,36v0.3h0.3l0-0.3L162.2,36z M163.3,29l0.3,0l0.1-0.3h-0.4V29z M154,29l-0.3,0
			l-0.1,0.4h0.4V29z M154.5,26.2v-0.3h-0.3l0,0.3L154.5,26.2z M164.3,26.2v0.3h0.3l0-0.3L164.3,26.2z M165.4,19h-18.3v0.6h18.3V19z
			 M146.8,19.3l-4.2,26.7l0.6,0.1l4.2-26.7L146.8,19.3z M142.9,46.3h18.6v-0.6h-18.6V46.3z M161.8,46l1.1-7l-0.6-0.1l-1.1,7
			L161.8,46z M162.7,38.7h-10.2v0.6h10.2V38.7z M152.8,39l0.5-3l-0.6-0.1l-0.5,3L152.8,39z M152.9,36.3h9.3v-0.6h-9.3V36.3z
			 M162.5,36l1.1-6.9L163,29l-1.1,6.9L162.5,36z M163.3,28.7H154v0.6h9.3V28.7z M154.3,29.1l0.5-2.8l-0.6-0.1l-0.5,2.8L154.3,29.1z
			 M154.5,26.5h9.8v-0.6h-9.8V26.5z M164.6,26.3l1.1-6.9l-0.6-0.1l-1.1,6.9L164.6,26.3z M168.8,19.3V19h-0.3l0,0.3L168.8,19.3z
			 M164.6,46l-0.3,0l-0.1,0.3h0.4V46z M173.1,46v0.3h0.3l0-0.3L173.1,46z M174.5,37.1v-0.3h-0.3l0,0.3L174.5,37.1z M175.5,37.1
			l0.3-0.1l-0.1-0.2h-0.2V37.1z M178.2,46l-0.3,0.1l0.1,0.2h0.2V46z M187.9,46v0.3h0.5l-0.2-0.4L187.9,46z M183.7,35.8l-0.1-0.3
			l-0.2,0.1l0.1,0.2L183.7,35.8z M175.5,30.5l-0.3,0l-0.1,0.3h0.4V30.5z M176.2,25.9v-0.3h-0.3l0,0.3L176.2,25.9z M189.7,26.4
			c0-2.9-1.2-4.8-3.1-5.9c-1.8-1.1-4.2-1.5-6.6-1.5v0.6c2.3,0,4.6,0.4,6.3,1.4c1.7,1,2.8,2.7,2.8,5.4H189.7z M180,19h-11.2v0.6H180
			V19z M168.5,19.3l-4.2,26.7l0.6,0.1l4.2-26.7L168.5,19.3z M164.6,46.3h8.5v-0.6h-8.5V46.3z M173.4,46l1.4-8.8l-0.6-0.1l-1.4,8.8
			L173.4,46z M174.5,37.4h1v-0.6h-1V37.4z M175.2,37.2l2.7,8.8l0.6-0.2l-2.7-8.8L175.2,37.2z M178.2,46.3h9.7v-0.6h-9.7V46.3z
			 M188.2,45.8L184,35.7l-0.6,0.2l4.2,10.1L188.2,45.8z M183.9,36.1c3.6-2,5.8-5.6,5.8-9.7h-0.6c0,3.9-2.1,7.3-5.5,9.2L183.9,36.1z
			 M180.4,27.7c0,0.8-0.3,1.4-0.8,1.8c-0.5,0.4-1.2,0.6-2,0.6v0.6c0.9,0,1.7-0.3,2.3-0.8c0.6-0.5,1-1.3,1-2.3H180.4z M177.7,30.2
			h-2.2v0.6h2.2V30.2z M175.8,30.5l0.7-4.6l-0.6-0.1l-0.7,4.6L175.8,30.5z M176.2,26.2h2.1v-0.6h-2.1V26.2z M178.3,26.2
			c0.5,0,1.1,0.1,1.5,0.4c0.4,0.2,0.6,0.6,0.6,1.2h0.6c0-0.8-0.4-1.3-0.9-1.7c-0.5-0.3-1.2-0.4-1.8-0.4V26.2z M202.1,19.3l0.3,0
			l0.1-0.3h-0.4V19.3z M193.6,19.3V19h-0.3l0,0.3L193.6,19.3z M189.4,46l-0.3,0l-0.1,0.3h0.4V46z M197.9,46v0.3h0.3l0-0.3L197.9,46z
			 M202.1,19h-8.5v0.6h8.5V19z M193.3,19.3l-4.2,26.7l0.6,0.1l4.2-26.7L193.3,19.3z M189.4,46.3h8.5v-0.6h-8.5V46.3z M198.2,46
			l4.2-26.7l-0.6-0.1l-4.2,26.7L198.2,46z M223.3,28.9l-0.2,0.2l0.3,0.3l0.2-0.4L223.3,28.9z M226.7,21.4l0.3,0.1l0.1-0.2l-0.1-0.1
			L226.7,21.4z M223.9,43.1l0.2,0.2l0.1-0.1l0-0.2L223.9,43.1z M222.5,36l0.3-0.1l-0.1-0.5l-0.4,0.4L222.5,36z M223.6,29l3.4-7.4
			l-0.5-0.3l-3.4,7.4L223.6,29z M227,21.2c-0.9-1-2.5-1.6-4-2c-1.6-0.4-3.2-0.6-4.4-0.6v0.6c1.2,0,2.8,0.2,4.3,0.6
			c1.5,0.4,2.9,1,3.7,1.9L227,21.2z M218.5,18.6c-9.7,0-16.5,7.1-16.5,16.8h0.6c0-9.3,6.5-16.2,15.8-16.2V18.6z M202.1,35.4
			c0,3.6,1.3,6.4,3.4,8.4c2.2,1.9,5.2,2.9,8.7,2.9v-0.6c-3.4,0-6.2-1-8.3-2.8c-2-1.8-3.2-4.5-3.2-7.9H202.1z M214.2,46.7
			c3.6,0,7.1-1,9.9-3.4l-0.4-0.5c-2.6,2.3-6,3.3-9.5,3.3V46.7z M224.2,43l-1.4-7l-0.6,0.1l1.4,7L224.2,43z M222.3,35.8
			c-1.7,1.5-4,2.4-6.3,2.4v0.6c2.4,0,4.9-0.9,6.7-2.5L222.3,35.8z M216,38.2c-1.4,0-2.6-0.4-3.4-1.1c-0.8-0.7-1.3-1.8-1.3-3.3h-0.6
			c0,1.6,0.6,2.8,1.5,3.7c1,0.9,2.3,1.3,3.8,1.3V38.2z M211.4,33.8c0-3.9,2.6-7,6.6-7v-0.6c-4.4,0-7.2,3.4-7.2,7.6H211.4z
			 M217.9,26.8c1.8,0,3.9,1,5.2,2.3l0.4-0.4c-1.4-1.4-3.6-2.4-5.6-2.4V26.8z M250.2,46v0.3h0.4l-0.1-0.4L250.2,46z M245.5,19.3
			l0.3-0.1l0-0.2h-0.3V19.3z M236.1,19.3V19h-0.2l-0.1,0.2L236.1,19.3z M223,46l-0.3-0.1l-0.2,0.4h0.5V46z M231.8,46v0.3h0.2
			l0.1-0.2L231.8,46z M233.4,42.2v-0.3h-0.2l-0.1,0.2L233.4,42.2z M240.6,42.2l0.3,0l0-0.3h-0.3V42.2z M241,46l-0.3,0l0,0.3h0.3V46z
			 M239.9,35.5v0.3h0.3l0-0.3L239.9,35.5z M236.2,35.5l-0.3-0.1l-0.2,0.4h0.5V35.5z M239.1,28.5l0.3,0l-0.1-1.2l-0.5,1.1L239.1,28.5
			z M250.5,45.9l-4.7-26.7l-0.6,0.1l4.7,26.7L250.5,45.9z M245.5,19h-9.3v0.6h9.3V19z M235.9,19.2l-13.1,26.7l0.5,0.3l13.1-26.7
			L235.9,19.2z M223,46.3h8.8v-0.6H223V46.3z M232.1,46.1l1.6-3.7l-0.6-0.2l-1.6,3.7L232.1,46.1z M233.4,42.5h7.2v-0.6h-7.2V42.5z
			 M240.3,42.2l0.4,3.7l0.6-0.1l-0.4-3.7L240.3,42.2z M241,46.3h9.2v-0.6H241V46.3z M239.9,35.2h-3.7v0.6h3.7V35.2z M236.5,35.6
			l2.9-7l-0.6-0.2l-2.9,7L236.5,35.6z M238.8,28.6l0.8,7l0.6-0.1l-0.8-7L238.8,28.6z M263.8,19.3l0.3,0.1l0.2-0.4h-0.5V19.3z
			 M255.9,19.3V19h-0.2l-0.1,0.2L255.9,19.3z M250.8,30.3l-0.3-0.1l-0.2,0.4h0.5V30.3z M257.8,30.3v0.3h0.2l0.1-0.2L257.8,30.3z
			 M263.8,19h-7.9v0.6h7.9V19z M255.7,19.2l-5.1,11l0.5,0.3l5.1-11L255.7,19.2z M250.8,30.6h7V30h-7V30.6z M258,30.5l6-11l-0.5-0.3
			l-6,11L258,30.5z M281.2,28.5l-0.2,0.2l0.3,0.2l0.2-0.3L281.2,28.5z M285.3,22.2l0.3,0.2l0.1-0.2l-0.2-0.2L285.3,22.2z
			 M266.2,36.2l0.2-0.2l-0.2-0.3l-0.2,0.3L266.2,36.2z M261.4,42.8l-0.2-0.2l-0.2,0.2l0.2,0.2L261.4,42.8z M281.4,28.6l4.2-6.3
			l-0.5-0.3l-4.2,6.3L281.4,28.6z M285.5,22c-1-1-2.5-1.8-4.1-2.4c-1.6-0.6-3.3-0.9-4.7-0.9v0.6c1.3,0,3,0.3,4.5,0.9
			c1.5,0.6,2.9,1.3,3.9,2.3L285.5,22z M276.7,18.7c-3.3,0-6.3,0.9-8.6,2.7c-2.3,1.8-3.7,4.5-3.7,8h0.6c0-3.4,1.4-5.9,3.5-7.6
			c2.1-1.7,5.1-2.6,8.2-2.6V18.7z M264.4,29.4c0,1.9,0.7,3.2,1.6,4.3c1,1,2.3,1.7,3.5,2.2c0.6,0.2,1.3,0.5,1.8,0.6
			c0.6,0.2,1.1,0.4,1.6,0.5c0.5,0.2,0.8,0.3,1,0.5c0.2,0.2,0.3,0.3,0.3,0.5h0.6c0-0.4-0.2-0.7-0.5-1c-0.3-0.2-0.7-0.4-1.2-0.6
			c-0.5-0.2-1-0.4-1.6-0.5c-0.6-0.2-1.2-0.4-1.8-0.6c-1.2-0.5-2.4-1.1-3.3-2c-0.9-0.9-1.5-2.1-1.5-3.8H264.4z M274.3,38.1
			c0,0.2-0.2,0.4-0.6,0.6c-0.4,0.1-0.8,0.2-1.1,0.2v0.6c0.3,0,0.8,0,1.3-0.2c0.5-0.2,1-0.5,1-1.1H274.3z M272.6,38.8
			c-1,0-2.2-0.3-3.3-0.9c-1.1-0.5-2.2-1.2-2.9-1.9l-0.4,0.4c0.7,0.8,1.8,1.5,3,2.1c1.2,0.6,2.5,0.9,3.6,0.9V38.8z M266,36.1
			l-4.8,6.6l0.5,0.4l4.8-6.6L266,36.1z M261.2,43.1c2.7,2.3,6,3.7,9.5,3.7v-0.6c-3.4,0-6.6-1.3-9.2-3.5L261.2,43.1z M270.7,46.7
			c3.3,0,6.5-0.9,8.9-2.8c2.4-1.9,4-4.6,4-8.2H283c0,3.4-1.5,6-3.8,7.8c-2.3,1.8-5.3,2.7-8.5,2.7V46.7z M283.6,35.7
			c0-1.8-0.7-3.2-1.6-4.3c-1-1-2.3-1.7-3.5-2.3c-0.6-0.3-1.3-0.5-1.9-0.7c-0.6-0.2-1.1-0.4-1.6-0.6c-0.5-0.2-0.8-0.3-1.1-0.5
			c-0.2-0.2-0.3-0.3-0.3-0.4H273c0,0.4,0.2,0.7,0.6,0.9c0.3,0.2,0.7,0.4,1.2,0.6c0.5,0.2,1,0.4,1.6,0.6c0.6,0.2,1.2,0.4,1.8,0.7
			c1.2,0.5,2.4,1.2,3.3,2.1c0.9,0.9,1.5,2.2,1.5,3.8H283.6z M273.6,27c0-0.2,0.2-0.4,0.6-0.6c0.4-0.1,0.8-0.2,1.1-0.2v-0.6
			c-0.3,0-0.8,0-1.3,0.2c-0.5,0.2-1,0.5-1,1.1H273.6z M275.3,26.2c0.9,0,2,0.3,3,0.8c1,0.5,2,1.1,2.7,1.7l0.4-0.5
			c-0.8-0.7-1.8-1.3-2.8-1.8c-1.1-0.5-2.2-0.8-3.3-0.8V26.2z"/>
		<path class="st2" d="M80.8,69.3h-8.7l3.1-19.5h-8.4l-4.2,26.7h17.2L80.8,69.3z M107.5,76.5l-4.7-26.7h-9.3L80.3,76.5h8.8l1.6-3.7
			H98l0.4,3.7H107.5z M97.3,66.1h-3.7l2.9-7L97.3,66.1z M133.4,55.6c0-5.2-5.4-5.7-9.3-5.7h-10.6l-4.2,26.7H122
			c5.4,0,10.7-2.5,10.7-8.8c0-2.5-1.5-4.4-3.9-5.2C131.5,61.4,133.4,59.1,133.4,55.6z M124.7,57.7c0,1.6-1.2,2.3-2.6,2.3h-1.9
			l0.6-3.8h1.9C123.7,56.2,124.7,56.5,124.7,57.7z M124.3,67.4c0,1.7-1.2,2.5-2.8,2.5h-2.9l0.7-4.2h2.7
			C123.1,65.8,124.3,66.1,124.3,67.4z M162.9,60.5c0-7.2-5.1-11-12-11c-9.6,0-16.3,6.9-16.3,16.5c0,7.2,5.1,11,12,11
			C156.1,77,162.9,70.1,162.9,60.5z M154.3,61.7c0,3.8-2.5,7.5-6.5,7.5c-2.9,0-4.6-2-4.6-4.8c0-3.8,2.5-7.5,6.5-7.5
			C152.6,56.9,154.3,58.9,154.3,61.7z M188.1,56.9c0-5.6-4.7-7.1-9.4-7.1h-11.2l-4.2,26.7h8.5l1.4-8.8h1l2.7,8.8h9.7l-4.2-10.1
			C186,64.5,188.1,61,188.1,56.9z M179.5,58.3c0,1.8-1.4,2.7-3.1,2.7h-2.2l0.7-4.6h2.1C178.2,56.5,179.5,56.9,179.5,58.3z
			 M217.1,59.4l3.4-7.4c-1.8-1.9-5.8-2.5-8.2-2.5c-9.5,0-16.1,7-16.1,16.5c0,7.1,5,11,11.8,11c3.5,0,7-1,9.7-3.4l-1.4-7
			c-1.8,1.6-4.1,2.4-6.5,2.4c-2.9,0-5-1.7-5-4.7c0-4,2.7-7.3,6.9-7.3C213.5,57.1,215.7,58.1,217.1,59.4z M243.9,56.9
			c0-5.6-4.7-7.1-9.4-7.1h-11.2l-4.2,26.7h8.5l1.4-8.8h1l2.7,8.8h9.7l-4.2-10.1C241.7,64.5,243.9,61,243.9,56.9z M235.2,58.3
			c0,1.8-1.4,2.7-3.1,2.7H230l0.7-4.6h2.1C234,56.5,235.2,56.9,235.2,58.3z M256.6,49.9h-8.5l-4.2,26.7h8.5L256.6,49.9z M274.4,59
			l4.2-6.3c-2-1.9-5.8-3.2-8.6-3.2c-6.4,0-12.1,3.5-12.1,10.4c0,7.2,9.9,6.3,9.9,8.7c0,0.9-1.4,1-2,1c-2.1,0-5-1.4-6.4-2.9l-4.8,6.6
			c2.6,2.3,5.9,3.6,9.3,3.6c6.4,0,12.6-3.7,12.6-10.7c0-7-10-6.7-10-8.7c0-0.9,1.4-1,2-1C270.5,56.5,272.9,57.8,274.4,59z
			 M289.9,49.9h-8.5l-4.2,26.7h8.5L289.9,49.9z M307.6,59l4.2-6.3c-2-1.9-5.8-3.2-8.6-3.2c-6.4,0-12.1,3.5-12.1,10.4
			c0,7.2,9.9,6.3,9.9,8.7c0,0.9-1.4,1-2,1c-2.1,0-5-1.4-6.4-2.9l-4.8,6.6c2.6,2.3,5.9,3.6,9.4,3.6c6.4,0,12.6-3.7,12.6-10.7
			c0-7-10-6.7-10-8.7c0-0.9,1.4-1,2-1C303.7,56.5,306.2,57.8,307.6,59z"/>
		<path class="st2" d="M109.4,44.8l-4.7-26.7h-9.3L82.2,44.8H91l1.6-3.7h7.2l0.4,3.7H109.4z M99.1,34.4h-3.7l2.9-7L99.1,34.4z
			 M144.1,18.2h-10.8l-5.5,14.3l-0.9-14.3H116l-5.7,26.7h8.3l2.7-15l0.9,15h7.3l5.6-15l-2.1,15h8.3L144.1,18.2z M166.9,18.2h-18.3
			l-4.2,26.7h18.6l1.1-7H154l0.5-3h9.3l1.1-6.9h-9.3l0.5-2.8h9.8L166.9,18.2z M190.9,25.3c0-5.6-4.7-7.1-9.4-7.1h-11.2l-4.2,26.7
			h8.5L176,36h1l2.7,8.8h9.7l-4.2-10.1C188.7,32.8,190.9,29.3,190.9,25.3z M182.2,26.6c0,1.8-1.4,2.7-3.1,2.7H177l0.7-4.6h2.1
			C181,24.8,182.2,25.3,182.2,26.6z M203.6,18.2h-8.5L191,44.8h8.5L203.6,18.2z M224.8,27.7l3.4-7.4c-1.8-1.9-5.8-2.5-8.2-2.5
			c-9.5,0-16.1,7-16.1,16.5c0,7.1,5,11,11.8,11c3.5,0,7-1,9.7-3.4l-1.4-7c-1.8,1.6-4.1,2.4-6.5,2.4c-2.9,0-5-1.7-5-4.7
			c0-4,2.7-7.3,6.9-7.3C221.3,25.4,223.5,26.4,224.8,27.7z M251.7,44.8L247,18.2h-9.3l-13.1,26.7h8.8l1.6-3.7h7.2l0.4,3.7H251.7z
			 M241.4,34.4h-3.7l2.9-7L241.4,34.4z M265.3,18.2h-7.9l-5.1,11h7L265.3,18.2z M282.7,27.3l4.2-6.3c-2-1.9-5.8-3.2-8.6-3.2
			c-6.4,0-12.1,3.5-12.1,10.4c0,7.2,9.9,6.3,9.9,8.7c0,0.9-1.4,1-2,1c-2.1,0-5-1.4-6.4-2.9l-4.8,6.6c2.6,2.3,5.9,3.6,9.4,3.6
			c6.4,0,12.6-3.7,12.6-10.7s-10-6.7-10-8.7c0-0.9,1.4-1,2-1C278.8,24.8,281.2,26.1,282.7,27.3z"/>
		<g>
			<defs>
				<rect id="SVGID_00000054236112707048512950000003426539712733267892_" x="134.3" y="-1" width="103.5" height="15.7"/>
			</defs>
			<clipPath id="SVGID_00000108307874466176599830000018242044291136989092_">
				<use xlink:href="#SVGID_00000054236112707048512950000003426539712733267892_"  style="overflow:visible;"/>
			</clipPath>
			<g style="clip-path:url(#SVGID_00000108307874466176599830000018242044291136989092_);">
				<path class="st2" d="M235,4.2c0-0.4,0.2-0.8,0.6-0.9c0.4-0.2,0.8-0.1,1.1,0.2c0.3,0.3,0.4,0.7,0.2,1.1c-0.2,0.4-0.5,0.6-0.9,0.6
					c-0.3,0-0.5-0.1-0.7-0.3C235.1,4.7,235,4.5,235,4.2z M235.1,4.2c0,0.4,0.2,0.7,0.5,0.8c0.3,0.1,0.7,0.1,1-0.2
					c0.3-0.3,0.3-0.6,0.2-1c-0.1-0.3-0.5-0.5-0.8-0.5C235.5,3.3,235.1,3.7,235.1,4.2z M235.9,4.3h-0.2v0.5h-0.2V3.6h0.5
					c0.2,0,0.4,0.2,0.4,0.4c0,0.2-0.1,0.3-0.3,0.3l0.3,0.5h-0.2L235.9,4.3z M235.7,3.8v0.4h0.3c0.1,0,0.2-0.1,0.2-0.2
					c0-0.1-0.1-0.2-0.2-0.2L235.7,3.8z"/>
				<path class="st2" d="M137.5,7.3h3.8V5.5h-3.8v-2h4.1V1.6h-6.3v9.8h6.5V9.6h-4.2V7.3z"/>
				<path class="st2" d="M146.9,4.3c-1,0-1.6,0.5-2,1.1h0l0-1h-2.3v7h2.3V8c0-1,0.3-1.8,1.2-1.8c0.9,0,1.1,0.7,1.1,1.6v3.7h2.3V7.3
					C149.5,5.6,148.9,4.3,146.9,4.3z"/>
				<path class="st2" d="M153.1,2.5h-2.3v1.9h-1v1.7h1v2.7c0,1.6,0.4,2.7,2.2,2.7c0.8,0,1.4-0.2,1.6-0.2l-0.1-1.8
					c0,0-0.3,0.1-0.7,0.1c-0.7,0-0.7-0.4-0.7-1V6.2h1.5V4.5h-1.5V2.5L153.1,2.5z"/>
				<path class="st2" d="M157.6,5.4L157.6,5.4l0-1h-2.3v7h2.3V8.3c0-0.9,0.3-2,1.4-2c0.4,0,0.7,0.1,0.8,0.2h0.1l0.1-2.1
					c0,0-0.2-0.1-0.7-0.1C158.6,4.3,158,4.7,157.6,5.4z"/>
				<path class="st2" d="M163.9,4.3c-2.1,0-3.8,1.3-3.8,3.6c0,2.3,1.6,3.7,3.7,3.7c2.2,0,3.1-1,3.3-1.1l-0.9-1.2
					c-0.4,0.3-1.2,0.7-2.1,0.7c-0.9,0-1.7-0.5-1.8-1.5h5c0,0,0-0.4,0-0.8C167.4,5.7,166,4.3,163.9,4.3z M162.4,7.2
					c0-0.7,0.5-1.4,1.4-1.4c1,0,1.4,0.8,1.4,1.4H162.4z"/>
				<path class="st2" d="M170.5,1.6h-2.3v9.8h5.7V9.6h-3.4V1.6z"/>
				<path class="st2" d="M177.7,4.3c-2.1,0-3.8,1.3-3.8,3.6c0,2.3,1.6,3.7,3.7,3.7c2.2,0,3.1-1,3.3-1.1l-0.9-1.2
					c-0.4,0.3-1.2,0.7-2.1,0.7c-0.9,0-1.7-0.5-1.8-1.5h5c0,0,0-0.4,0-0.8C181.2,5.7,179.8,4.3,177.7,4.3z M176.2,7.2
					c0-0.7,0.5-1.4,1.4-1.4c1,0,1.4,0.8,1.4,1.4H176.2z"/>
				<path class="st2" d="M184.8,4.3c-1.3,0-2.4,0.4-3,0.7l0.6,1.5c0.4-0.2,1.2-0.6,2.1-0.6c0.9,0,1.4,0.4,1.4,1.1v0.2l-1.8,0.1
					c-1.3,0.1-2.7,0.6-2.7,2.2c0,1.6,1.3,2.2,2.5,2.2c1.1,0,1.7-0.6,2-0.9l0,0.7h2.2v-4C188.3,5.2,187,4.3,184.8,4.3z M186,9.5
					c-0.1,0.2-0.6,0.6-1.2,0.6c-0.6,0-1.1-0.3-1.1-0.9c0-0.5,0.4-0.8,1.1-0.9l1.1-0.1L186,9.5L186,9.5z"/>
				<path class="st2" d="M194.4,3v2.3c-0.2-0.3-0.9-1-2.2-1c-2,0-3.3,1.6-3.3,3.6c0,2.1,1.3,3.7,3.3,3.7c0.9,0,1.8-0.4,2.3-1.1l0,0
					l0,0.9h2.2V1.6L194.4,3z M192.8,9.8c-1,0-1.6-0.7-1.6-1.8s0.7-1.8,1.6-1.8c1,0,1.6,0.7,1.6,1.8C194.4,9,193.8,9.8,192.8,9.8z"/>
				<path class="st2" d="M201.1,4.3c-2.1,0-3.8,1.3-3.8,3.6c0,2.3,1.6,3.7,3.7,3.7c2.2,0,3.1-1,3.3-1.1l-0.9-1.2
					c-0.4,0.3-1.2,0.7-2.1,0.7c-0.9,0-1.7-0.5-1.8-1.5h5c0,0,0-0.4,0-0.8C204.6,5.7,203.2,4.3,201.1,4.3z M199.6,7.2
					c0-0.7,0.5-1.4,1.4-1.4c1,0,1.4,0.8,1.4,1.4H199.6z"/>
				<path class="st2" d="M209.3,4.3c-0.8,0-1.3,0.4-1.7,1.1h0l0-1h-2.3v7h2.3V8.3c0-0.9,0.3-2,1.4-2c0.4,0,0.7,0.1,0.8,0.2h0.1
					l0.1-2.1C210,4.4,209.7,4.3,209.3,4.3z"/>
				<path class="st2" d="M213.4,7c-0.5-0.1-1-0.3-1-0.7c0-0.4,0.3-0.5,0.8-0.5c0.6,0,1.4,0.4,1.8,0.7l0.7-1.3
					c-0.4-0.3-1.2-0.9-2.7-0.9c-1.5,0-2.7,0.8-2.7,2.2c0,1.5,1,1.9,2.2,2.2c0.3,0.1,1.3,0.3,1.3,0.8c0,0.5-0.4,0.6-1,0.6
					s-1.5-0.4-2.1-0.9l-0.9,1.4c0.8,0.8,1.9,1.1,3,1.1c1.4,0,3-0.6,3-2.3C215.9,7.7,214.6,7.4,213.4,7z"/>
				<path class="st2" d="M220.7,4.3c-1,0-1.7,0.5-2.1,1.1c0,0,0-0.8,0-1.5V1.6l-2.3,1.3v8.5h2.3V8c0-1,0.3-1.8,1.2-1.8
					s1.1,0.7,1.1,1.6v3.7h2.3V7.3C223.2,5.6,222.7,4.3,220.7,4.3z"/>
				<path class="st2" d="M226.3,4.4h-2.3v7h2.3V4.4z"/>
				<path class="st2" d="M225.2,1.3c-0.8,0-1.3,0.5-1.3,1.2c0,0.7,0.5,1.2,1.3,1.2c0.8,0,1.3-0.5,1.3-1.2
					C226.5,1.7,226,1.3,225.2,1.3z"/>
				<path class="st2" d="M231.7,4.3c-1.1,0-1.8,0.4-2.3,1h0l0-0.9h-2.2V14h2.3v-3.5c0.4,0.7,1.2,1,2.2,1c2,0,3.3-1.6,3.3-3.7
					C235,5.9,233.7,4.3,231.7,4.3z M231,9.8c-1,0-1.6-0.7-1.6-1.8c0-1.1,0.7-1.8,1.6-1.8c1,0,1.6,0.7,1.6,1.8
					C232.6,9,232,9.8,231,9.8z"/>
			</g>
		</g>
		<path class="st4" d="M175.1,97.6h-33.4c-0.2,0-0.4,0-0.5-0.1c-0.2-0.1-0.3-0.2-0.5-0.3c-0.1-0.1-0.2-0.3-0.3-0.5
			c-0.1-0.2-0.1-0.4-0.1-0.5V84.9c0-0.4,0.1-0.7,0.4-1c0.3-0.3,0.6-0.4,1-0.4h33.4c0.4,0,0.7,0.1,1,0.4c0.3,0.3,0.4,0.6,0.4,1v11.3
			c0,0.2,0,0.4-0.1,0.5c-0.1,0.2-0.2,0.3-0.3,0.5c-0.1,0.1-0.3,0.2-0.5,0.3C175.5,97.6,175.3,97.6,175.1,97.6z"/>
		<path class="st2" d="M144.6,86.1h1.9v7h4.4v1.7h-6.3V86.1z"/>
		<path class="st2" d="M152.3,86.1h1.9v8.7h-1.9V86.1z"/>
		<path class="st2" d="M155.5,86.1h2.1l2.3,6.1l2.3-6.1h2.1l-3.5,8.8H159L155.5,86.1z"/>
		<path class="st2" d="M165.6,86.1h6.6v1.7h-4.7v1.8h4.1v1.7h-4.1v1.8h4.7v1.7h-6.6V86.1z"/>
		<path class="st2" d="M179.2,93.6l1.1-1.4c0.7,0.7,1.6,1,2.6,1.1c0.8,0,1.3-0.3,1.3-0.8v0c0-0.5-0.3-0.7-1.8-1.1
			c-1.8-0.4-2.9-0.9-2.9-2.7v0c0-1.6,1.3-2.6,3.1-2.6c1.2,0,2.3,0.4,3.2,1.1l-1,1.4c-0.7-0.5-1.4-0.8-2.3-0.9
			c-0.7,0-1.1,0.3-1.1,0.8v0c0,0.6,0.4,0.8,1.9,1.1c1.8,0.5,2.8,1.1,2.8,2.6v0c0,1.7-1.3,2.7-3.2,2.7
			C181.6,95,180.2,94.5,179.2,93.6z"/>
		<path class="st2" d="M189.9,87.9h-2.7v-1.8h7.2v1.8h-2.7v7h-1.9V87.9z"/>
		<path class="st2" d="M196,86.2h4c1.1,0,2,0.3,2.5,0.9c0.3,0.3,0.4,0.6,0.6,0.9c0.1,0.3,0.2,0.7,0.2,1.1v0c0,0.6-0.1,1.2-0.5,1.7
			c-0.3,0.5-0.8,0.9-1.4,1l2.1,3.1h-2.3l-1.9-2.8h-1.5v2.8H196L196,86.2z M199.9,90.4c0.9,0,1.5-0.5,1.5-1.2v0
			c0-0.8-0.6-1.2-1.5-1.2h-1.9v2.5L199.9,90.4z"/>
		<path class="st2" d="M204.7,86.2h6.6v1.7h-4.7v1.8h4.1v1.7h-4.1v1.8h4.7v1.7h-6.6V86.2z"/>
		<path class="st2" d="M216.4,86.1h1.8l3.7,8.8h-2l-0.8-2h-3.7l-0.8,2h-2L216.4,86.1z M218.4,91.2l-1.2-2.8l-1.2,2.8H218.4z"/>
		<path class="st2" d="M223.1,86.2h2.1l2.3,3.7l2.3-3.7h2.1v8.7h-1.9v-5.7l-2.5,3.7h0l-2.4-3.7v5.7h-1.9V86.2z"/>
	</g>
</g>
</svg>
