<svg width="48" height="48" viewBox="0 0 48 48" fill="none" xmlns="http://www.w3.org/2000/svg">
<path fill-rule="evenodd" clip-rule="evenodd" d="M8 3C6.89528 3 6 3.89528 6 5V43C6 44.1047 6.89528 45 8 45H40C41.1047 45 42 44.1047 42 43V5C42 3.89528 41.1047 3 40 3H8ZM4 5C4 2.79072 5.79072 1 8 1H40C42.2093 1 44 2.79072 44 5V43C44 45.2093 42.2093 47 40 47H8C5.79072 47 4 45.2093 4 43V5Z" fill="#69757A"/>
<path fill-rule="evenodd" clip-rule="evenodd" d="M10 8C10 7.44772 10.4477 7 11 7H37C37.5523 7 38 7.44772 38 8V16C38 16.5523 37.5523 17 37 17H11C10.4477 17 10 16.5523 10 16V8ZM12 9V15H36V9H12Z" fill="#0073B9"/>
<path fill-rule="evenodd" clip-rule="evenodd" d="M30 28C30 27.4477 30.4477 27 31 27H37C37.5523 27 38 27.4477 38 28V40C38 40.5523 37.5523 41 37 41H31C30.4477 41 30 40.5523 30 40V28ZM32 29V39H36V29H32Z" fill="#69757A"/>
<path fill-rule="evenodd" clip-rule="evenodd" d="M10 22C10 21.4477 10.4477 21 11 21H15C15.5523 21 16 21.4477 16 22C16 22.5523 15.5523 23 15 23H11C10.4477 23 10 22.5523 10 22Z" fill="#69757A"/>
<path fill-rule="evenodd" clip-rule="evenodd" d="M20 22C20 21.4477 20.4477 21 21 21H25C25.5523 21 26 21.4477 26 22C26 22.5523 25.5523 23 25 23H21C20.4477 23 20 22.5523 20 22Z" fill="#69757A"/>
<path fill-rule="evenodd" clip-rule="evenodd" d="M31 22C31 21.4477 31.4477 21 32 21H36C36.5523 21 37 21.4477 37 22C37 22.5523 36.5523 23 36 23H32C31.4477 23 31 22.5523 31 22Z" fill="#69757A"/>
<path fill-rule="evenodd" clip-rule="evenodd" d="M10 40C10 39.4477 10.4477 39 11 39H15C15.5523 39 16 39.4477 16 40C16 40.5523 15.5523 41 15 41H11C10.4477 41 10 40.5523 10 40Z" fill="#69757A"/>
<path fill-rule="evenodd" clip-rule="evenodd" d="M20 40C20 39.4477 20.4477 39 21 39H25C25.5523 39 26 39.4477 26 40C26 40.5523 25.5523 41 25 41H21C20.4477 41 20 40.5523 20 40Z" fill="#69757A"/>
<path fill-rule="evenodd" clip-rule="evenodd" d="M10 34C10 33.4477 10.4477 33 11 33H15C15.5523 33 16 33.4477 16 34C16 34.5523 15.5523 35 15 35H11C10.4477 35 10 34.5523 10 34Z" fill="#69757A"/>
<path fill-rule="evenodd" clip-rule="evenodd" d="M20 34C20 33.4477 20.4477 33 21 33H25C25.5523 33 26 33.4477 26 34C26 34.5523 25.5523 35 25 35H21C20.4477 35 20 34.5523 20 34Z" fill="#69757A"/>
<path fill-rule="evenodd" clip-rule="evenodd" d="M10 28C10 27.4477 10.4477 27 11 27H15C15.5523 27 16 27.4477 16 28C16 28.5523 15.5523 29 15 29H11C10.4477 29 10 28.5523 10 28Z" fill="#69757A"/>
<path fill-rule="evenodd" clip-rule="evenodd" d="M20 28C20 27.4477 20.4477 27 21 27H25C25.5523 27 26 27.4477 26 28C26 28.5523 25.5523 29 25 29H21C20.4477 29 20 28.5523 20 28Z" fill="#69757A"/>
</svg>
