<svg width="24" height="28" viewBox="0 0 24 28" fill="none" xmlns="http://www.w3.org/2000/svg">
<path d="M22 4.00075C18.843 4.00075 15.135 2.88975 12.555 1.16875C12.219 0.94375 11.782 0.94375 11.446 1.16875C8.865 2.88975 5.157 4.00075 2 4.00075C1.448 4.00075 1 4.44775 1 5.00075C1 13.3747 4.965 20.0738 11.606 22.9198C11.732 22.9738 11.866 23.0007 12 23.0007C12.134 23.0007 12.268 22.9738 12.394 22.9198C19.035 20.0738 23 13.3747 23 5.00075C23 4.44775 22.552 4.00075 22 4.00075ZM12 20.9058V12.0007H4.141C3.491 10.1607 3.107 8.13375 3.02 5.96775C6.074 5.77275 9.442 4.73275 12 3.18575V12.0007H19.859C18.429 16.0457 15.709 19.1868 12 20.9058Z" fill="#0073B9"/>
</svg>
