<svg width="48" height="48" viewBox="0 0 48 48" fill="none" xmlns="http://www.w3.org/2000/svg">
<path fill-rule="evenodd" clip-rule="evenodd" d="M9 6C7.34328 6 6 7.34328 6 9C6 10.6567 7.34328 12 9 12C10.6567 12 12 10.6567 12 9C12 7.34328 10.6567 6 9 6ZM4 9C4 6.23872 6.23872 4 9 4C11.7613 4 14 6.23872 14 9C14 11.7613 11.7613 14 9 14C6.23872 14 4 11.7613 4 9Z" fill="#69757A"/>
<path fill-rule="evenodd" clip-rule="evenodd" d="M6 19C4.34328 19 3 20.3433 3 22V30.2792L5.31623 31.0513C5.69314 31.177 5.95992 31.5138 5.99589 31.9095L6.91321 42H12C12.5523 42 13 42.4477 13 43C13 43.5523 12.5523 44 12 44H6C5.4828 44 5.05093 43.6056 5.00411 43.0905L4.06332 32.7419L1.68377 31.9487C1.27543 31.8126 1 31.4304 1 31V22C1 19.2387 3.23872 17 6 17H12C13.8192 17 15.4099 17.9733 16.2832 19.4203C16.5685 19.8932 16.4165 20.5078 15.9437 20.7932C15.4708 21.0785 14.8562 20.9265 14.5708 20.4537C14.0441 19.5807 13.0888 19 12 19H6Z" fill="#69757A"/>
<path fill-rule="evenodd" clip-rule="evenodd" d="M34 9C34 6.23872 36.2387 4 39 4C41.7613 4 44 6.23872 44 9C44 11.7613 41.7613 14 39 14C36.2387 14 34 11.7613 34 9ZM39 6C37.3433 6 36 7.34328 36 9C36 10.6567 37.3433 12 39 12C40.6567 12 42 10.6567 42 9C42 7.34328 40.6567 6 39 6Z" fill="#69757A"/>
<path fill-rule="evenodd" clip-rule="evenodd" d="M31.7168 19.4203C32.5901 17.9733 34.1809 17 36 17H42C44.7613 17 47 19.2387 47 22V31C47 31.4304 46.7246 31.8126 46.3163 31.9487L43.9367 32.7419L42.9959 43.0905C42.9491 43.6056 42.5172 44 42 44H36C35.4477 44 35 43.5523 35 43C35 42.4477 35.4477 42 36 42H41.0868L42.0041 31.9095C42.0401 31.5138 42.3069 31.177 42.6838 31.0513L45 30.2792V22C45 20.3433 43.6567 19 42 19H36C34.9112 19 33.956 19.5807 33.4292 20.4537C33.1439 20.9265 32.5292 21.0785 32.0564 20.7932C31.5835 20.5078 31.4315 19.8932 31.7168 19.4203Z" fill="#69757A"/>
<path fill-rule="evenodd" clip-rule="evenodd" d="M24 3C21.2383 3 19 5.23828 19 8C19 10.7617 21.2383 13 24 13C26.7617 13 29 10.7617 29 8C29 5.23828 26.7617 3 24 3ZM17 8C17 4.13372 20.1337 1 24 1C27.8663 1 31 4.13372 31 8C31 11.8663 27.8663 15 24 15C20.1337 15 17 11.8663 17 8Z" fill="#0073B9"/>
<path fill-rule="evenodd" clip-rule="evenodd" d="M18 20C16.3433 20 15 21.3433 15 23V32.2192L18.2425 33.0299C18.6578 33.1337 18.961 33.4903 18.9965 33.917L19.9201 45H28.0799L29.0035 33.917C29.039 33.4903 29.3422 33.1337 29.7575 33.0299L33 32.2192V23C33 21.3433 31.6567 20 30 20H18ZM13 23C13 20.2387 15.2387 18 18 18H30C32.7613 18 35 20.2387 35 23V33C35 33.4589 34.6877 33.8589 34.2425 33.9701L30.9371 34.7965L29.9965 46.083C29.9534 46.6013 29.5201 47 29 47H19C18.4799 47 18.0466 46.6013 18.0035 46.083L17.0629 34.7965L13.7575 33.9701C13.3123 33.8589 13 33.4589 13 33V23Z" fill="#0073B9"/>
</svg>
