<svg width="48" height="48" viewBox="0 0 48 48" fill="none" xmlns="http://www.w3.org/2000/svg">
<path fill-rule="evenodd" clip-rule="evenodd" d="M24 2C24.5523 2 25 2.44772 25 3V45C25 45.5523 24.5523 46 24 46C23.4477 46 23 45.5523 23 45V3C23 2.44772 23.4477 2 24 2Z" fill="#0073B9"/>
<path fill-rule="evenodd" clip-rule="evenodd" d="M4.35205 24C4.35205 23.4477 4.79977 23 5.35205 23H42.648C43.2003 23 43.648 23.4477 43.648 24C43.648 24.5523 43.2003 25 42.648 25H5.35205C4.79977 25 4.35205 24.5523 4.35205 24Z" fill="#0073B9"/>
<path fill-rule="evenodd" clip-rule="evenodd" d="M23.4453 2.16795C23.7812 1.94402 24.2188 1.94402 24.5547 2.16795C30.6526 6.23319 38.8464 8 45 8C45.5523 8 46 8.44772 46 9C46 23.944 39.5864 39.4081 24.3939 45.9191C24.1424 46.027 23.8576 46.027 23.6061 45.9191C8.41362 39.4081 2 23.944 2 9C2 8.44772 2.44772 8 3 8C9.15363 8 17.3474 6.23319 23.4453 2.16795ZM4.0096 9.98541C4.28265 23.9779 10.3914 37.8637 24 43.909C37.6086 37.8637 43.7174 23.9779 43.9904 9.98541C37.8629 9.81049 30.091 8.05331 24 4.19262C17.909 8.05331 10.1371 9.81049 4.0096 9.98541Z" fill="#69757A"/>
</svg>
