<svg width="24" height="28" viewBox="0 0 24 28" fill="none" xmlns="http://www.w3.org/2000/svg">
<g clip-path="url(#clip0_314_519)">
<path d="M23.633 10.2261L12.633 1.22609C12.4544 1.08004 12.2307 1.00024 12 1.00024C11.7692 1.00024 11.5456 1.08004 11.367 1.22609L4.99998 6.43509V4.50009C4.99998 4.36748 4.9473 4.24031 4.85353 4.14654C4.75976 4.05277 4.63259 4.00009 4.49998 4.00009H3.49998C3.36737 4.00009 3.24019 4.05277 3.14642 4.14654C3.05266 4.24031 2.99998 4.36748 2.99998 4.50009V8.07109L0.366977 10.2261C0.166303 10.3954 0.04027 10.6369 0.0160923 10.8983C-0.00808539 11.1597 0.0715317 11.4202 0.237753 11.6235C0.403973 11.8267 0.643461 11.9564 0.904506 11.9846C1.16555 12.0128 1.42721 11.9372 1.63298 11.7741L2.99998 10.6561V22.0001C2.99998 22.2653 3.10533 22.5197 3.29287 22.7072C3.48041 22.8947 3.73476 23.0001 3.99998 23.0001H9.99998V18.5001C9.99998 18.3675 10.0527 18.2403 10.1464 18.1465C10.2402 18.0528 10.3674 18.0001 10.5 18.0001H13.5C13.6326 18.0001 13.7598 18.0528 13.8535 18.1465C13.9473 18.2403 14 18.3675 14 18.5001V23.0001H20C20.2652 23.0001 20.5195 22.8947 20.7071 22.7072C20.8946 22.5197 21 22.2653 21 22.0001V10.6561L22.367 11.7741C22.5697 11.9452 22.8321 12.0287 23.0965 12.0063C23.3608 11.9838 23.6054 11.8574 23.7765 11.6546C23.9475 11.4518 24.0311 11.1894 24.0086 10.9251C23.9862 10.6608 23.8597 10.4162 23.657 10.2451L23.633 10.2261ZM13.5 14.0001H10.5C10.3674 14.0001 10.2402 13.9474 10.1464 13.8536C10.0527 13.7599 9.99998 13.6327 9.99998 13.5001V10.5001C9.99998 10.3675 10.0527 10.2403 10.1464 10.1465C10.2402 10.0528 10.3674 10.0001 10.5 10.0001H13.5C13.6326 10.0001 13.7598 10.0528 13.8535 10.1465C13.9473 10.2403 14 10.3675 14 10.5001V13.5001C14 13.6327 13.9473 13.7599 13.8535 13.8536C13.7598 13.9474 13.6326 14.0001 13.5 14.0001Z" fill="#0073B9"/>
</g>
<defs>
<clipPath id="clip0_314_519">
<rect width="24" height="28" fill="white"/>
</clipPath>
</defs>
</svg>
