<svg width="48" height="48" viewBox="0 0 48 48" fill="none" xmlns="http://www.w3.org/2000/svg">
<path fill-rule="evenodd" clip-rule="evenodd" d="M24 3C12.402 3 3 12.402 3 24C3 35.598 12.402 45 24 45C35.598 45 45 35.598 45 24C45 12.402 35.598 3 24 3ZM1 24C1 11.2975 11.2975 1 24 1C36.7025 1 47 11.2975 47 24C47 36.7025 36.7025 47 24 47C11.2975 47 1 36.7025 1 24Z" fill="#69757A"/>
<path d="M24 37C24.5523 37 25 36.5523 25 36C25 35.4477 24.5523 35 24 35C23.4477 35 23 35.4477 23 36C23 36.5523 23.4477 37 24 37Z" fill="black"/>
<path fill-rule="evenodd" clip-rule="evenodd" d="M25 36C25 36.5523 24.5523 37 24 37C23.4477 37 23 36.5523 23 36C23 35.4477 23.4477 35 24 35C24.5523 35 25 35.4477 25 36Z" fill="#69757A"/>
<path fill-rule="evenodd" clip-rule="evenodd" d="M22 36C22 34.8954 22.8954 34 24 34C25.1046 34 26 34.8954 26 36C26 37.1046 25.1046 38 24 38C22.8954 38 22 37.1046 22 36Z" fill="#0073B9"/>
<path fill-rule="evenodd" clip-rule="evenodd" d="M25.4656 12.0439C23.5519 11.8641 21.3378 12.2354 19.4045 13.0905C18.8994 13.3139 18.3089 13.0855 18.0855 12.5804C17.8621 12.0753 18.0904 11.4848 18.5955 11.2614C20.8202 10.2775 23.3761 9.83878 25.6527 10.0527C27.9049 10.2643 30.0779 11.1424 31.2297 13.0063C33.4476 16.5955 31.7679 20.5823 28.4429 23.3954C26.9065 24.6952 26.0612 25.6708 25.5907 26.5148C25.1386 27.3256 25 28.0728 25 28.9999C25 29.5522 24.5523 29.9999 24 29.9999C23.4477 29.9999 23 29.5522 23 28.9999C23 27.8271 23.1849 26.7228 23.8438 25.5409C24.4843 24.3921 25.5375 23.2337 27.1511 21.8685C30.1261 19.3516 30.9884 16.4204 29.5283 14.0576C28.8411 12.9455 27.4036 12.226 25.4656 12.0439Z" fill="#0073B9"/>
</svg>
