<svg width="24" height="28" viewBox="0 0 24 28" fill="none" xmlns="http://www.w3.org/2000/svg">
<path d="M17.1509 2.00002C16.1729 1.99766 15.206 2.20727 14.3168 2.61442C13.4275 3.02157 12.6371 3.61658 11.9998 4.3585C11.3626 3.61658 10.5721 3.02157 9.68286 2.61442C8.79361 2.20727 7.82669 1.99766 6.84867 2.00002C5.51031 1.997 4.20053 2.38708 3.08189 3.12182C1.96325 3.85657 1.08499 4.90363 0.556134 6.13307C0.0272734 7.36251 -0.12891 8.72019 0.106968 10.0376C0.342846 11.355 0.9604 12.5742 1.88298 13.5437L11.2133 23.2406C11.3151 23.3465 11.4372 23.4307 11.5724 23.4883C11.7075 23.5459 11.8529 23.5755 11.9998 23.5755C12.1467 23.5755 12.2921 23.5459 12.4273 23.4883C12.5624 23.4307 12.6845 23.3465 12.7863 23.2406L22.1166 13.5437L22.1243 13.5361C23.0448 12.5657 23.6603 11.3466 23.8944 10.0297C24.1286 8.71289 23.9712 7.35628 23.4417 6.12806C22.9122 4.89984 22.0339 3.85401 20.9157 3.12022C19.7974 2.38642 18.4884 1.99693 17.1509 2.00002V2.00002Z" fill="#0073B9"/>
</svg>
