<svg width="190" height="31" viewBox="0 0 190 31" fill="none" xmlns="http://www.w3.org/2000/svg">
<path d="M121.029 26.1163H116.622L109.296 6.3717H114.223L118.859 19.964L123.466 6.3717H128.357L121.029 26.1163Z" fill="#003561"/>
<path d="M140.285 20.1643H130.243C130.443 22.196 131.988 23.1117 133.846 23.1117C135.357 23.0755 136.826 22.6089 138.081 21.7667L139.884 24.1513C139.426 24.4947 137.566 26.4406 133.19 26.4406C128.815 26.4406 125.669 23.7412 125.669 19.0769C125.669 14.4126 129.103 11.7513 133.281 11.7513C137.459 11.7513 140.347 14.527 140.347 18.6477C140.342 19.3344 140.285 20.1643 140.285 20.1643ZM133.19 14.7178C131.302 14.7178 130.329 16.2058 130.272 17.5507H136.08C136.052 16.2726 135.108 14.7178 133.19 14.7178Z" fill="#003561"/>
<path d="M146.926 26.4311C144.808 26.4311 142.576 25.7729 140.964 24.2563L142.681 21.5378C143.826 22.5108 145.714 23.2548 146.859 23.2548C148.004 23.2548 148.802 22.9686 148.802 22.0625C148.802 21.1563 146.744 20.6889 146.227 20.5172C143.883 19.9163 141.823 19.0865 141.823 16.1677C141.823 13.4206 144.226 11.7323 147.171 11.7323C150.116 11.7323 151.778 12.8197 152.58 13.4778L151.101 16.1486C150.3 15.5191 148.7 14.7751 147.555 14.7751C146.468 14.7751 145.867 15.0612 145.867 15.8052C145.867 16.5492 146.952 16.8926 147.925 17.1788C150.357 17.8941 152.904 18.6381 152.904 21.7572C152.904 25.1434 149.844 26.4311 146.926 26.4311Z" fill="#003561"/>
<path d="M170.445 26.431C165.981 26.431 162.605 23.6553 162.605 19.1055C162.605 14.5556 165.981 11.7513 170.445 11.7513C174.909 11.7513 178.257 14.5556 178.257 19.1055C178.257 23.6553 174.909 26.431 170.445 26.431ZM170.445 15.3569C168.413 15.3569 167.24 16.9307 167.24 19.0196C167.24 21.1086 168.413 22.6824 170.445 22.6824C172.477 22.6824 173.65 21.1086 173.65 19.0196C173.65 16.9307 172.448 15.3569 170.445 15.3569Z" fill="#003561"/>
<path d="M188.902 16.2154H188.702C188.18 15.9722 187.608 15.8546 187.033 15.872C184.772 15.872 184.2 17.9896 184.2 19.8496V26.1163H179.621V12.009H184.2L184.171 14.012H184.228C185.029 12.4668 186.203 11.7514 187.719 11.7514C188.209 11.7296 188.698 11.8176 189.15 12.009L188.902 16.2154Z" fill="#003561"/>
<path d="M43.338 26.4596C40.4765 26.4596 37.9297 24.9716 36.3272 23.4836L38.6165 20.107C40.0472 21.595 42.2506 22.5966 43.7672 22.5966C45.2838 22.5966 46.3903 21.8812 46.3903 20.5649C46.3903 19.2486 44.9309 18.7049 44.0725 18.3901C43.214 18.0753 41.726 17.5603 41.0678 17.2741C40.5909 17.0356 39.5798 16.6732 38.7214 15.8433C37.8629 15.0135 37.1761 13.8975 37.1761 12.0279C37.1761 11.1998 37.3611 10.382 37.7176 9.63445C38.074 8.88688 38.5929 8.22838 39.2365 7.70702C40.3525 6.75318 42.1552 6.13318 44.4445 6.13318C46.7337 6.13318 49.3663 7.22056 50.7112 8.56549L48.7368 11.799C47.5921 10.6544 45.818 9.79595 44.33 9.79595C42.842 9.79595 41.7546 10.3683 41.7546 11.5701C41.7546 12.7719 42.8706 13.2393 43.7577 13.5732C44.6448 13.907 46.0755 14.4316 46.7051 14.6892C49.2232 15.6049 50.9974 17.2359 50.9974 20.0975C51.0069 24.3707 47.1725 26.4596 43.338 26.4596Z" fill="#003561"/>
<path d="M69.8072 26.1163V18.4473C69.8072 16.9307 69.5211 15.5 67.9472 15.5C66.3734 15.5 65.658 16.9307 65.658 18.8766V26.1163H61.0796V18.4473C61.0796 16.7018 60.6789 15.5 59.1909 15.5C57.5885 15.5 56.9017 16.9307 56.9017 18.8766V26.1163H52.3232V12.0089H56.9017L56.8731 14.0406L56.9303 14.012C57.3315 13.3338 57.9 12.7699 58.5813 12.3741C59.2627 11.9783 60.0342 11.7639 60.822 11.7513C62.7679 11.7513 64.3131 12.4095 65.0285 14.3267C66.03 12.6098 67.4322 11.7513 69.5211 11.7513C73.1266 11.7513 74.4143 14.2123 74.4143 17.6175V26.1163H69.8072Z" fill="#003561"/>
<path d="M85.002 26.1163L84.9162 24.6283C84.3152 25.2292 83.1706 26.4311 80.8814 26.4311C78.3918 26.4311 75.7592 25.0861 75.7592 21.9384C75.7592 18.7907 78.6494 17.732 81.2438 17.6175L84.7921 17.4744V17.1597C84.7921 15.6717 83.7334 14.8991 81.902 14.8991C80.3825 14.9452 78.8993 15.3751 77.5906 16.1486L76.3983 13.1726C78.2773 12.2465 80.3414 11.7574 82.4362 11.7418C86.8429 11.7418 89.3897 13.5732 89.3897 18.1517V26.1163H85.002ZM82.5697 20.0498C81.1675 20.1071 80.3377 20.708 80.3377 21.7667C80.3377 22.8255 81.2248 23.5123 82.4838 23.5123C82.9512 23.5098 83.4106 23.3907 83.8203 23.1659C84.23 22.941 84.5772 22.6175 84.8303 22.2246V19.9067L82.5697 20.0498Z" fill="#003561"/>
<path d="M101.628 9.06394L106.235 6.3717V12.0376H109.354V15.5H106.235V20.5649C106.235 21.7954 106.32 22.6539 107.723 22.6539C108.191 22.6441 108.656 22.557 109.096 22.3963L109.335 25.9732C108.272 26.2703 107.175 26.4242 106.072 26.4311C102.41 26.4311 101.637 24.1991 101.637 20.9655L101.628 9.06394Z" fill="#003561"/>
<path d="M154.285 9.06394L158.885 6.3717V12.0376H162.004V15.5H158.885V20.5649C158.885 21.7954 158.97 22.6539 160.373 22.6539C160.841 22.6441 161.305 22.557 161.746 22.3963L161.985 25.9732C160.922 26.2703 159.825 26.4242 158.722 26.4311C155.06 26.4311 154.287 24.1991 154.287 20.9655L154.285 9.06394Z" fill="#003561"/>
<path d="M100.392 16.337H100.192C99.608 16.0172 98.95 15.8568 98.2843 15.872C96.0237 15.872 95.4514 17.9896 95.4514 19.8496V26.1163H90.8729V12.009H95.4514L95.4228 14.012H95.48C96.2812 12.4668 97.4545 11.7514 98.9711 11.7514C99.4612 11.7296 99.9501 11.8176 100.402 12.009L100.392 16.337Z" fill="#003561"/>
<path d="M17.2193 6.92249C19.36 7.14295 21.3598 8.0925 22.8836 9.61201C24.4075 11.1315 25.3627 13.1286 25.5893 15.2686H31C30.7605 11.6946 29.2316 8.32904 26.6973 5.79746C24.1631 3.26587 20.796 1.74043 17.2217 1.50464L17.2193 6.92249Z" fill="#F58431"/>
<path d="M15.2782 25.5917C13.1387 25.3638 11.1423 24.4082 9.62306 22.8846C8.1038 21.361 7.15383 19.3618 6.93208 17.2217H1.51185C1.74771 20.7964 3.27348 24.1638 5.80556 26.6981C8.33764 29.2323 11.7038 30.761 15.2782 31V25.5917Z" fill="#F58431"/>
<path d="M25.5917 17.2217C25.3694 19.3663 24.4159 21.3691 22.8913 22.8937C21.3667 24.4182 19.3639 25.3718 17.2193 25.5941V31C20.7963 30.7644 24.1659 29.2371 26.7009 26.7025C29.236 24.168 30.7638 20.7987 31 17.2217H25.5917Z" fill="#F58431"/>
<path d="M15.2782 15.2782V0C11.3044 0.239353 7.55587 1.92586 4.74087 4.74087C1.92586 7.55587 0.239353 11.3044 0 15.2782H15.2782Z" fill="#F58431"/>
</svg>
