<svg width="170" height="32" viewBox="0 0 170 32" fill="none" xmlns="http://www.w3.org/2000/svg">
<path d="M41.1451 14.8644V1.59998H49.993V4.07998H44.3309V6.79109H49.6772V9.27109H44.3309V12.3466H50.1715V14.8644H41.1451Z" fill="#003561"/>
<path d="M57.8133 14.8644V9.92445C57.8133 8.67556 57.6165 7.73334 56.3096 7.73334C54.9365 7.73334 54.5657 8.80889 54.5657 10.1778V14.8689H51.3982V5.38667H54.5657L54.5474 6.75334H54.5863C54.8714 6.27287 55.2851 5.87625 55.7835 5.60552C56.2819 5.33479 56.8465 5.20005 57.4173 5.21556C60.2484 5.21556 60.9808 6.99334 60.9808 9.27111V14.8644H57.8133Z" fill="#003561"/>
<path d="M79.2738 15.0756C76.1842 15.0756 73.8475 13.2111 73.8475 10.1556C73.8475 7.10002 76.1842 5.21558 79.2738 5.21558C82.3635 5.21558 84.6773 7.0978 84.6773 10.1556C84.6773 13.2134 82.3612 15.0756 79.2738 15.0756ZM79.2738 7.63558C77.8663 7.63558 77.0561 8.69335 77.0561 10.0978C77.0561 11.5022 77.8663 12.5578 79.2738 12.5578C80.6813 12.5578 81.4892 11.5 81.4892 10.0978C81.4892 8.69558 80.6585 7.63558 79.2738 7.63558V7.63558Z" fill="#003561"/>
<path d="M92.1016 8.22225H91.9529C91.5942 8.0635 91.2025 7.98744 90.8086 8.00002C89.2454 8.00002 88.8495 9.42225 88.8495 10.6667V14.8756H85.6866V5.38669H88.8541L88.8335 6.73336H88.8747C89.4285 5.69558 90.2478 5.21558 91.2892 5.21558C91.6285 5.20095 91.9669 5.25938 92.2801 5.38669L92.1016 8.22225Z" fill="#003561"/>
<path d="M96.2578 15.0756C94.7931 15.0756 93.2482 14.6311 92.1383 13.6156L93.3261 11.7889C94.1179 12.4422 95.4247 12.9422 96.2166 12.9422C97.0085 12.9422 97.5623 12.7489 97.5623 12.1356C97.5623 11.5222 96.1365 11.2111 95.7795 11.0978C94.1568 10.6933 92.731 10.1356 92.731 8.17556C92.731 6.32889 94.3949 5.19556 96.434 5.19556C98.4732 5.19556 99.6221 5.92667 100.176 6.36889L99.1461 8.17556C98.5922 7.75111 97.4822 7.25111 96.6904 7.25111C95.9397 7.25111 95.5232 7.44445 95.5232 7.94445C95.5232 8.44445 96.2761 8.67556 96.949 8.86667C98.6311 9.34667 100.393 9.84667 100.393 11.9422C100.396 14.2222 98.2764 15.0756 96.2578 15.0756Z" fill="#003561"/>
<path d="M111.177 10.8667H104.215C104.355 12.2311 105.424 12.8467 106.71 12.8467C107.755 12.8221 108.772 12.5083 109.639 11.9422L110.887 13.5378C110.571 13.76 109.285 15.0756 106.255 15.0756C103.224 15.0756 101.048 13.2689 101.048 10.1356C101.048 7.00224 103.424 5.21558 106.312 5.21558C109.2 5.21558 111.203 7.08002 111.203 9.84669C111.205 10.3089 111.177 10.8667 111.177 10.8667ZM106.255 7.21335C105.994 7.20923 105.735 7.25506 105.492 7.34821C105.249 7.44136 105.028 7.58001 104.84 7.75624C104.653 7.93247 104.503 8.14283 104.399 8.37531C104.296 8.60778 104.24 8.85782 104.236 9.11113H108.255C108.253 8.85865 108.2 8.60901 108.098 8.37663C107.996 8.14426 107.848 7.93376 107.662 7.7573C107.476 7.58084 107.256 7.44192 107.014 7.34855C106.773 7.25519 106.515 7.20924 106.255 7.21335V7.21335Z" fill="#003561"/>
<path d="M41.1451 30.3977V17.1333H44.3309V27.8222H49.0638V30.3977H41.1451Z" fill="#003561"/>
<path d="M54.7053 30.6089C51.6179 30.6089 49.2812 28.7445 49.2812 25.6889C49.2812 22.6333 51.6179 20.7489 54.7053 20.7489C57.7927 20.7489 60.1088 22.6311 60.1088 25.6889C60.1088 28.7467 57.7927 30.6089 54.7053 30.6089ZM54.7053 23.1711C53.3001 23.1711 52.4876 24.2267 52.4876 25.6311C52.4876 27.0356 53.3001 28.0911 54.7053 28.0911C56.1105 28.0911 56.923 27.0333 56.923 25.6311C56.923 24.2289 56.0899 23.1711 54.7053 23.1711Z" fill="#003561"/>
<path d="M66.0295 30.6089C63.3564 30.6089 60.8823 28.8311 60.8823 25.6889C60.8823 22.5467 63.3998 20.7489 66.0684 20.7489C68.563 20.7489 69.6913 21.7467 69.6913 21.7467L69.0047 24.0733C68.2895 23.5206 67.4013 23.2219 66.4872 23.2267C65.1392 23.2267 64.0704 24.1311 64.0704 25.6311C64.0704 27.1311 65.0408 28.0756 66.5261 28.0756C67.4371 28.0616 68.3135 27.7349 69.0001 27.1533L69.7531 29.4756C69.6524 29.5556 68.6225 30.6089 66.0295 30.6089Z" fill="#003561"/>
<path d="M76.6785 30.3978L76.619 29.3978C76.2726 29.7844 75.8436 30.0931 75.3617 30.3023C74.8799 30.5115 74.3569 30.6161 73.8292 30.6089C72.1058 30.6089 70.2841 29.7067 70.2841 27.5911C70.2841 25.4755 72.2843 24.7667 74.0855 24.6889L76.5412 24.5933V24.3711C76.5412 23.3733 75.8088 22.8533 74.5409 22.8533C73.4867 22.8847 72.4581 23.176 71.552 23.7L70.7212 21.7C72.0213 21.0788 73.449 20.7507 74.898 20.74C77.9464 20.74 79.7041 21.9689 79.7041 25.0444V30.3778L76.6785 30.3978ZM74.9964 26.3222C74.026 26.36 73.4515 26.7667 73.4515 27.4755C73.4515 28.1844 74.0672 28.6489 74.9369 28.6489C75.2603 28.647 75.5782 28.5669 75.8618 28.416C76.1455 28.2651 76.386 28.0481 76.5618 27.7844V26.2289L74.9964 26.3222Z" fill="#003561"/>
<path d="M93.7037 25.4955H92.0215V30.3977H88.8174V17.1333H93.706C96.4981 17.1333 98.6952 18.3444 98.6952 21.3066C98.6952 24.2689 96.4958 25.4955 93.7037 25.4955ZM93.246 19.5377H91.9987V23.0933H93.246C94.4933 23.0933 95.4431 22.6711 95.4431 21.3155C95.4431 19.96 94.4704 19.5377 93.2482 19.5377H93.246Z" fill="#003561"/>
<path d="M105.914 23.7467H105.776C105.417 23.5882 105.026 23.5121 104.632 23.5245C103.067 23.5245 102.671 24.9467 102.671 26.1911V30.4H99.5054V20.92H102.673L102.655 22.2667H102.693C103.247 21.2289 104.067 20.7489 105.108 20.7489C105.447 20.7343 105.786 20.7927 106.099 20.92L105.914 23.7467Z" fill="#003561"/>
<path d="M111.619 30.6089C108.532 30.6089 106.195 28.7445 106.195 25.6889C106.195 22.6333 108.532 20.7489 111.619 20.7489C114.707 20.7489 117.025 22.6311 117.025 25.6889C117.025 28.7467 114.709 30.6089 111.619 30.6089ZM111.619 23.1711C110.214 23.1711 109.401 24.2267 109.401 25.6311C109.401 27.0356 110.214 28.0911 111.619 28.0911C113.024 28.0911 113.837 27.0333 113.837 25.6311C113.837 24.2289 113.008 23.1711 111.619 23.1711Z" fill="#003561"/>
<path d="M123.518 30.3978H120.543L116.544 20.92H119.851L122.067 26.92L124.266 20.92H127.532L123.518 30.3978Z" fill="#003561"/>
<path d="M129.594 19.8244C128.525 19.8244 127.793 19.1911 127.793 18.2289C127.793 17.2666 128.525 16.6333 129.594 16.6333C130.663 16.6333 131.395 17.3 131.395 18.2289C131.395 19.1577 130.663 19.8244 129.594 19.8244ZM128.01 30.3977V20.92H131.178V30.3977H128.01Z" fill="#003561"/>
<path d="M154.38 26.4H147.432C147.569 27.7645 148.638 28.38 149.926 28.38C150.972 28.3554 151.988 28.0416 152.856 27.4756L154.103 29.0711C153.785 29.2933 152.501 30.6089 149.471 30.6089C146.441 30.6089 144.264 28.8022 144.264 25.6689C144.264 22.5356 146.64 20.7489 149.528 20.7489C152.416 20.7489 154.417 22.6133 154.417 25.38C154.419 25.8422 154.38 26.4 154.38 26.4ZM149.471 22.7467C149.209 22.7429 148.95 22.7891 148.707 22.8827C148.464 22.9764 148.242 23.1156 148.054 23.2924C147.867 23.4693 147.717 23.6803 147.613 23.9134C147.509 24.1466 147.454 24.3972 147.45 24.6511H151.469C151.468 24.3982 151.416 24.1479 151.315 23.9147C151.214 23.6816 151.066 23.4703 150.88 23.2931C150.694 23.1159 150.474 22.9763 150.232 22.8825C149.99 22.7887 149.731 22.7426 149.471 22.7467Z" fill="#003561"/>
<path d="M161.804 23.7467H161.665C161.306 23.588 160.914 23.5119 160.52 23.5245C158.957 23.5245 158.561 24.9467 158.561 26.1912V30.4H155.389V20.92H158.552L158.532 22.2667H158.573C159.127 21.2289 159.946 20.7489 160.987 20.7489C161.326 20.7342 161.664 20.7926 161.976 20.92L161.804 23.7467Z" fill="#003561"/>
<path d="M165.862 30.6089C164.397 30.6089 162.853 30.1644 161.743 29.1489L162.93 27.3222C163.722 27.9755 165.027 28.4755 165.819 28.4755C166.611 28.4755 167.167 28.2822 167.167 27.6689C167.167 27.0555 165.741 26.7444 165.384 26.6311C163.761 26.2267 162.335 25.6689 162.335 23.7089C162.335 21.8622 163.999 20.7289 166.038 20.7289C168.078 20.7289 169.224 21.46 169.78 21.9022L168.75 23.7089C168.194 23.2844 167.087 22.7867 166.295 22.7867C165.542 22.7867 165.128 22.9778 165.128 23.4778C165.128 23.9778 165.878 24.2089 166.551 24.4C168.238 24.8889 169.995 25.38 169.995 27.4755C169.995 29.7444 167.881 30.6089 165.862 30.6089Z" fill="#003561"/>
<path d="M69.8103 14.8644L69.8309 13.6155L69.7714 13.6333C69.039 14.5955 67.8695 15.0755 66.5673 15.0755C63.7363 15.0755 61.9557 12.9222 61.9557 10.1355C61.9557 7.34886 63.7363 5.21553 66.5673 5.21553C68.3502 5.21553 69.3388 6.07998 69.657 6.54886V3.40886L72.8199 1.59998V14.8644H69.8103ZM67.4645 7.63775C66.0913 7.63775 65.1758 8.63553 65.1758 10.0978C65.1758 11.56 66.105 12.5578 67.4645 12.5578C68.8239 12.5578 69.7531 11.5555 69.7531 10.0978C69.7531 8.63998 68.8376 7.63775 67.4645 7.63775Z" fill="#003561"/>
<path d="M119.856 14.8644L119.877 13.6155L119.817 13.6333C119.085 14.5955 117.915 15.0755 116.613 15.0755C113.782 15.0755 112.001 12.9222 112.001 10.1355C112.001 7.34886 113.782 5.21553 116.613 5.21553C118.396 5.21553 119.384 6.07998 119.703 6.54886V3.40886L122.87 1.59998V14.8644H119.856ZM117.519 7.63775C116.146 7.63775 115.231 8.63553 115.231 10.0978C115.231 11.56 116.16 12.5578 117.519 12.5578C118.879 12.5578 119.796 11.5578 119.796 10.0978C119.796 8.63775 118.886 7.63775 117.519 7.63775Z" fill="#003561"/>
<path d="M140.126 30.3977L140.147 29.1489L140.088 29.1666C139.355 30.1289 138.186 30.6089 136.883 30.6089C134.052 30.6089 132.272 28.4555 132.272 25.6689C132.272 22.8822 134.052 20.7489 136.883 20.7489C138.666 20.7489 139.655 21.6133 139.973 22.0822V18.9422L143.141 17.1333V30.3977H140.126ZM137.79 23.1711C136.417 23.1711 135.501 24.1689 135.501 25.6311C135.501 27.0933 136.43 28.0911 137.79 28.0911C139.149 28.0911 140.078 27.0911 140.078 25.6311C140.078 24.1711 139.156 23.1711 137.79 23.1711V23.1711Z" fill="#003561"/>
<path d="M81.0933 30.3977V18.9422L84.2608 17.1333V30.3977H81.0933Z" fill="#003561"/>
<path d="M22.9138 21.4622C22.6845 21.6827 22.5193 21.9582 22.4349 22.2607C22.3505 22.5632 22.3501 22.882 22.4335 23.1848C22.5169 23.4876 22.6812 23.7635 22.9099 23.9847C23.1385 24.2059 23.4233 24.3645 23.7355 24.4444L29.0634 25.8311L32.9541 11.72L22.9138 21.4622Z" fill="#00B2F6"/>
<path d="M0 20.2866L3.89068 6.17554L9.22092 7.55554C9.53303 7.63543 9.81784 7.79401 10.0465 8.01522C10.2751 8.23643 10.4395 8.5124 10.5229 8.81516C10.6063 9.11792 10.6058 9.43672 10.5215 9.73923C10.4371 10.0417 10.2719 10.3172 10.0425 10.5378L0 20.2866Z" fill="#00B2F6"/>
<path d="M20.893 0L31.5329 10.3289L27.6422 14.1067C27.415 14.3277 27.132 14.4867 26.8215 14.5677C26.5109 14.6488 26.1839 14.649 25.8733 14.5683C25.5626 14.4877 25.2794 14.3291 25.0519 14.1083C24.8245 13.8876 24.6609 13.6127 24.5777 13.3111L20.893 0Z" fill="#00B2F6"/>
<path d="M8.38786 18.68C8.30462 18.3784 8.14105 18.1034 7.91362 17.8827C7.68618 17.662 7.4029 17.5034 7.09227 17.4228C6.78163 17.3421 6.45461 17.3423 6.14409 17.4234C5.83356 17.5044 5.5505 17.6634 5.32337 17.8844L1.43269 21.6622L12.0634 32L8.38786 18.68Z" fill="#00B2F6"/>
<path d="M4.41478 4.28669L18.9476 0.508911L20.3757 5.68002C20.4591 5.98153 20.4591 6.29903 20.376 6.60058C20.2928 6.90213 20.1294 7.1771 19.902 7.39784C19.6747 7.61858 19.3915 7.77731 19.0809 7.85805C18.7704 7.93879 18.4434 7.93871 18.1329 7.8578L4.41478 4.28669Z" fill="#00B2F6"/>
<path d="M28.5416 27.7134L14.0087 31.4912L12.5806 26.3201C12.4973 26.0186 12.4972 25.7011 12.5804 25.3995C12.6635 25.098 12.827 24.823 13.0543 24.6022C13.2817 24.3815 13.5649 24.2228 13.8754 24.142C14.186 24.0613 14.513 24.0614 14.8235 24.1423L28.5416 27.7134Z" fill="#00B2F6"/>
</svg>
