<svg width="300" height="48" viewBox="0 0 300 48" fill="none" xmlns="http://www.w3.org/2000/svg">
<path d="M165.286 36.8132H87.9273C87.4954 36.8132 87.0677 36.7281 86.6686 36.5628C86.2696 36.3975 85.907 36.1552 85.6016 35.8498C85.2961 35.5444 85.0538 35.1818 84.8885 34.7827C84.7233 34.3837 84.6382 33.956 84.6382 33.524V7.28914C84.6382 6.41681 84.9847 5.5802 85.6016 4.96337C86.2184 4.34653 87.055 4 87.9273 4H165.286C166.159 4 166.995 4.34653 167.612 4.96337C168.229 5.5802 168.576 6.41681 168.576 7.28914V33.5027C168.578 33.9364 168.495 34.3664 168.331 34.7679C168.167 35.1694 167.925 35.5346 167.62 35.8423C167.314 36.1499 166.95 36.3941 166.55 36.5608C166.15 36.7274 165.72 36.8132 165.286 36.8132Z" fill="#E54B3F"/>
<path d="M94.5728 10.2087H99.0224V26.3982H109.111V30.442H94.5728V10.2087Z" fill="white"/>
<path d="M112.362 10.2087H116.811V30.442H112.362V10.2087Z" fill="white"/>
<path d="M119.909 10.2087H124.822L130.111 24.4475L135.401 10.2087H140.199L132.019 30.5844H128.089L119.909 10.2087Z" fill="white"/>
<path d="M143.258 10.2087H158.522V14.1671H147.679V18.3035H157.219V22.2618H147.679V26.5335H158.664V30.4918H143.258V10.2087Z" fill="white"/>
<path d="M174.85 27.5565L177.477 24.4026C179.128 25.9251 181.276 26.7976 183.521 26.8588C185.344 26.8588 186.44 26.1468 186.44 24.9508V24.8938C186.44 23.7689 185.728 23.1852 182.361 22.3237C178.288 21.2843 175.654 20.1879 175.654 16.137V16.08C175.654 12.4064 178.602 9.97874 182.738 9.97874C185.466 9.93622 188.124 10.8449 190.256 12.5488L187.942 15.9021C186.431 14.7199 184.596 14.0247 182.681 13.9086C180.972 13.9086 180.082 14.6918 180.082 15.6742V15.7312C180.082 17.0625 180.951 17.4968 184.447 18.3938C188.554 19.4617 190.854 20.9354 190.854 24.4667V24.5236C190.854 28.5389 187.793 30.7958 183.428 30.7958C180.269 30.7998 177.218 29.6476 174.85 27.5565Z" fill="#003561"/>
<path d="M199.703 14.3855H193.545V10.2777H210.311V14.3855H204.153V30.518H199.703V14.3855Z" fill="#003561"/>
<path d="M213.786 10.2861H223.042C225.612 10.2861 227.612 10.998 228.937 12.3364C229.52 12.953 229.974 13.68 230.273 14.4747C230.571 15.2694 230.707 16.1158 230.674 16.964V17.021C230.736 18.3968 230.345 19.755 229.56 20.8869C228.776 22.0187 227.641 22.8616 226.331 23.286L231.272 30.5122H226.046L221.71 24.0336H218.215V30.5122H213.765L213.786 10.2861ZM222.75 20.1108C224.886 20.1108 226.16 18.9574 226.16 17.263V17.2061C226.16 15.2981 224.829 14.3156 222.664 14.3156H218.215V20.125L222.75 20.1108Z" fill="#003561"/>
<path d="M233.935 10.2861H249.199V14.2444H238.356V18.3523H247.896V22.3107H238.356V26.5823H249.341V30.5407H233.935V10.2861Z" fill="#003561"/>
<path d="M260.93 10.1345H265.038L273.71 30.5102H269.046L267.195 25.9751H258.652L256.801 30.5102H252.245L260.93 10.1345ZM265.608 22.0452L262.909 15.4527L260.218 22.0452H265.608Z" fill="#003561"/>
<path d="M276.591 10.2861H281.389L286.707 18.8293L292.026 10.2861H296.824V30.5193H292.403V17.3058L286.707 25.9487H286.594L280.955 17.4054V30.5264H276.591V10.2861Z" fill="#003561"/>
<path d="M77.813 36.6203C77.8517 36.7303 77.8961 36.7327 77.9018 36.625C77.8853 36.5162 77.8631 36.515 77.813 36.6203ZM76.2313 36.6445C76.3879 36.6312 76.5211 36.6383 76.6286 36.7087C76.7373 36.7577 76.8682 36.8078 77.0236 36.816C76.9849 36.706 76.833 36.6332 76.6355 36.5795C76.4158 36.5247 76.2814 36.5392 76.2313 36.6445ZM75.2797 36.9612C75.2854 36.8535 75.2632 36.8524 75.2353 36.9588C75.2518 37.0677 75.274 37.0689 75.2797 36.9612ZM74.9934 36.9028C74.9092 36.812 74.887 36.8108 74.8824 36.897C74.8557 36.9819 74.9001 36.9843 74.9934 36.9028ZM74.8933 36.2713C74.9132 36.3155 74.9553 36.361 74.9997 36.3633C75.0441 36.3657 75.0652 36.3884 75.0396 36.4518C75.175 36.4158 75.3315 36.4025 75.529 36.4561C75.7043 36.5086 75.903 36.5407 76.1027 36.5513C76.0185 36.4605 75.8444 36.3865 75.5592 36.3066C75.2974 36.2063 75.0755 36.1946 74.8933 36.2713ZM74.5495 36.8793C74.595 36.8601 74.6616 36.8637 74.727 36.8887C74.7925 36.9138 74.8158 36.8934 74.7982 36.8061C74.6229 36.7536 74.5552 36.7717 74.5495 36.8793ZM74.3365 37.5375C74.3764 37.626 74.4219 37.6068 74.4265 37.5206C74.431 37.4345 74.4088 37.4333 74.3365 37.5375ZM74.0692 35.8605C73.9804 35.8558 73.9571 35.8762 73.956 35.8977C74.0225 35.9012 74.0669 35.9036 74.0692 35.8605ZM73.6461 37.5441C73.6917 37.5249 73.7805 37.5296 73.8903 37.557C74.0002 37.5844 74.0457 37.5653 74.0059 37.4768L73.6507 37.458L73.6461 37.5441ZM73.4908 37.5359L73.6017 37.5417C73.6075 37.4341 73.5653 37.3887 73.4988 37.3851L73.4908 37.5359ZM73.3833 36.6232C73.4698 36.671 73.5353 36.696 73.5808 36.6768C73.5831 36.6338 73.541 36.5884 73.4755 36.5633C73.4101 36.5382 73.3867 36.5586 73.3833 36.6232ZM72.8847 36.7911C72.879 36.8988 72.9655 36.9466 73.1653 36.9572C73.1932 36.8507 73.1744 36.7849 73.0856 36.7802C72.998 36.7539 72.9302 36.772 72.8847 36.7911ZM73.1437 36.5241C73.1016 36.4787 73.0151 36.4309 72.9052 36.4035C72.7954 36.3761 72.7066 36.3714 72.6611 36.3906C72.7032 36.436 72.7885 36.5053 72.8762 36.5315C72.9627 36.5793 73.0515 36.584 73.1437 36.5241ZM72.4475 37.4806C72.6706 37.4708 72.8704 37.4814 73.0223 37.5542C73.1976 37.6067 73.3098 37.5911 73.3821 37.4869C73.2278 37.4572 73.0525 37.4047 72.8994 37.3534C72.723 37.3224 72.5875 37.3584 72.4475 37.4806ZM72.5057 36.3824C72.5455 36.4708 72.5899 36.4732 72.5945 36.3871C72.599 36.3009 72.5546 36.2986 72.5057 36.3824ZM72.4659 36.2939C72.3315 36.3083 72.1762 36.3001 72.0453 36.25C71.8922 36.1987 71.7157 36.1677 71.4938 36.156C71.6224 36.2492 71.7977 36.3017 72.0174 36.3565C72.237 36.4113 72.3714 36.3968 72.4659 36.2939ZM71.2907 35.3678C71.3794 35.3725 71.4028 35.3522 71.4039 35.3306C71.3373 35.3271 71.2918 35.3463 71.2907 35.3678ZM71.2405 36.3153C71.2416 36.2938 71.2871 36.2746 71.3981 36.2805C71.4249 36.1955 71.4272 36.1525 71.3606 36.1489C71.2951 36.1239 71.2519 36.1 71.2086 36.0761C71.1619 36.1168 71.1363 36.1802 71.1574 36.203C71.1995 36.2484 71.2205 36.2711 71.2405 36.3153ZM71.0009 36.2163C71.0031 36.1732 70.9844 36.1074 70.9201 36.0608C70.94 36.1051 70.9587 36.1708 71.0009 36.2163ZM70.7169 36.1148L70.8056 36.1195L70.8113 36.0119L70.7226 36.0072L70.7169 36.1148ZM70.4031 37.4155C70.6894 37.4738 70.9979 37.5334 71.3086 37.5498C71.6194 37.5663 71.9546 37.5409 72.3599 37.4544C72.0736 37.396 71.785 37.3807 71.5164 37.4097C71.2477 37.4386 70.9603 37.4018 70.6786 37.2573C70.6928 37.4092 70.6683 37.4511 70.5608 37.3806C70.4765 37.2898 70.4088 37.3078 70.4031 37.4155ZM70.656 36.0036C70.5438 36.0193 70.4761 36.0373 70.4761 36.0373C70.4539 36.0361 70.4107 36.0122 70.3008 35.9848C70.2718 36.1128 70.3128 36.1798 70.426 36.1426C70.5381 36.127 70.6292 36.0886 70.656 36.0036ZM70.0709 36.1238L70.1819 36.1297C70.2285 36.089 70.2308 36.0459 70.1432 36.0197C70.0555 35.9934 70.0322 36.0138 70.0288 36.0784C70.0953 36.0819 70.0942 36.1034 70.0709 36.1238ZM69.8324 36.0032C69.837 35.9171 69.8159 35.8943 69.7493 35.8908C69.767 35.9781 69.7869 36.0224 69.8324 36.0032ZM69.5262 35.9006C69.4175 35.8516 69.3532 35.805 69.331 35.8039C69.2809 35.9092 69.2786 35.9523 69.3452 35.9558C69.4107 35.9808 69.4795 35.9413 69.5262 35.9006ZM68.3353 38.2129C68.3797 38.2153 68.4252 38.1961 68.4263 38.1745C68.3597 38.171 68.3376 38.1698 68.3353 38.2129ZM69.2354 35.9284C69.1079 35.8136 68.9548 35.7623 68.7772 35.7529C68.5996 35.7435 68.4232 35.7126 68.2246 35.6805C68.5273 35.8477 68.8791 35.9311 69.2354 35.9284ZM67.7153 34.7897C67.6931 34.7885 67.6487 34.7862 67.5832 34.7611C67.5178 34.7361 67.4723 34.7552 67.4688 34.8198C67.5132 34.8222 67.5798 34.8257 67.6231 34.8496C67.6675 34.852 67.713 34.8328 67.7153 34.7897ZM68.4788 37.184C68.4731 37.2916 68.4498 37.312 68.4077 37.2666C68.3655 37.2212 68.3456 37.1769 68.3012 37.1746C68.2557 37.1937 68.2102 37.2129 68.1635 37.2536C68.118 37.2728 68.0724 37.292 68.028 37.2897C68.0326 37.2035 68.0115 37.1808 67.9449 37.1773C67.8493 37.3018 67.6695 37.3354 67.3843 37.2556C67.098 37.1972 66.8761 37.1854 66.7184 37.2203C66.8447 37.3565 66.9745 37.4282 67.1322 37.3934C67.312 37.3597 67.5129 37.3488 67.6928 37.3151C67.7793 37.3629 67.8869 37.4333 68.0411 37.4631C68.1942 37.5144 68.3075 37.4772 68.3809 37.3515C68.7116 37.4122 69.02 37.4718 69.3086 37.4871C69.5972 37.5024 69.9535 37.4996 70.3342 37.455C70.3411 37.3258 70.3012 37.2373 70.2358 37.2123C69.9404 37.3262 69.6262 37.3743 69.3399 37.316C69.0303 37.278 68.7662 37.2208 68.4788 37.184ZM66.8986 34.6601C66.8752 34.6804 66.8519 34.7008 66.8308 34.6781C66.8098 34.6554 66.8086 34.6769 66.8052 34.7415C66.8285 34.7211 66.8519 34.7008 66.8729 34.7235C66.8951 34.7247 66.8963 34.7031 66.8986 34.6601ZM66.4441 37.3569C66.4896 37.3377 66.5573 37.3197 66.6029 37.3005C66.6484 37.2814 66.6951 37.2406 66.6985 37.176C66.6564 37.1306 66.5909 37.1056 66.5221 37.1451C66.431 37.1835 66.4054 37.2469 66.4441 37.3569ZM66.5901 34.6005C66.5013 34.5958 66.478 34.6162 66.4768 34.6377C66.5434 34.6412 66.5889 34.6221 66.5901 34.6005ZM66.3448 34.6091C66.3493 34.523 66.3283 34.5003 66.2571 34.5829C66.2958 34.6929 66.3402 34.6953 66.3448 34.6091ZM66.0493 35.5652C66.471 35.5876 66.825 35.6279 67.088 35.7066C67.352 35.7638 67.6628 35.7803 67.9758 35.7537C67.8751 35.554 67.722 35.5027 67.5388 35.601C67.3344 35.6765 67.1779 35.6898 67.047 35.6397C66.8495 35.586 66.652 35.5324 66.4756 35.5014C66.2991 35.4705 66.1005 35.4384 65.8563 35.4254C65.8296 35.5104 65.8506 35.5331 65.9172 35.5366C65.9651 35.4744 66.0083 35.4983 66.0493 35.5652ZM65.542 37.158C65.5573 37.2883 65.6649 37.3588 65.8635 37.3909C66.0621 37.4231 66.2187 37.4098 66.3331 37.351C66.3576 37.3091 66.3598 37.2661 66.3166 37.2422C66.2733 37.2183 66.2745 37.1968 66.3445 37.1357C66.2312 37.1729 66.1179 37.2101 65.9848 37.203C65.8738 37.1971 65.7873 37.1494 65.7241 37.0812C65.6996 37.1231 65.6308 37.1627 65.542 37.158ZM65.5632 35.4963L65.652 35.501L65.6566 35.4149L65.5678 35.4102L65.5632 35.4963ZM65.4958 37.609C65.5004 37.5229 65.456 37.5205 65.3848 37.6031C65.4292 37.6055 65.4725 37.6294 65.4713 37.6509C65.4469 37.6928 65.448 37.6713 65.4958 37.609ZM64.4998 37.9233C64.411 37.9186 64.3876 37.939 64.3865 37.9605C64.4531 37.9641 64.4986 37.9449 64.4998 37.9233ZM65.7267 34.5116C65.6356 34.55 65.6567 34.5727 65.7466 34.5558C65.8365 34.539 65.8809 34.5414 65.8553 34.6048C65.5201 34.6302 65.297 34.64 65.1427 34.6102C64.9885 34.5805 64.7443 34.5675 64.3857 34.6133C65.1302 34.8471 65.8803 34.9732 66.6128 35.012C67.3453 35.0508 68.1199 35.1351 68.8934 35.2408C69.2685 35.3039 69.6424 35.3885 69.9964 35.4288C70.3493 35.4907 70.7454 35.5765 71.1859 35.6646C71.2303 35.6669 71.2758 35.6478 71.2992 35.6274C71.3225 35.607 71.3902 35.589 71.4568 35.5926C71.8951 35.7238 72.3578 35.8131 72.8205 35.9024C73.2399 35.9678 73.7249 36.0582 74.2775 36.1307C74.3173 36.2192 74.405 36.2454 74.5393 36.2309C74.6292 36.2141 74.7414 36.1985 74.8523 36.2043C74.5905 36.1041 74.3265 36.0469 74.0402 35.9886C73.7761 35.9314 73.4921 35.83 73.2104 35.6855C73.1603 35.7908 73.0914 35.8303 73.0026 35.8256C72.8939 35.7767 72.7852 35.7277 72.6754 35.7003C72.5877 35.6741 72.4802 35.6036 72.3504 35.5319C72.2104 35.6541 72.0527 35.6889 71.9008 35.6161C71.7488 35.5433 71.5968 35.4704 71.4682 35.3772C71.4392 35.5053 71.3037 35.5413 71.084 35.4864C70.8643 35.4316 70.6669 35.378 70.536 35.3278C70.5804 35.3302 70.6469 35.3337 70.7124 35.3588C70.7778 35.3838 70.8234 35.3647 70.8268 35.3001C70.7403 35.2523 70.6538 35.2045 70.5439 35.1771C70.4341 35.1497 70.3863 35.2119 70.4261 35.3004C70.2918 35.3149 70.2497 35.2695 70.3208 35.1869C69.981 35.2984 69.6469 35.3023 69.2753 35.1747C68.9037 35.047 68.5263 35.027 68.1455 35.0716C68.1279 34.9843 68.0203 34.9138 67.8228 34.8602C67.4842 34.9502 67.1945 34.9565 66.9315 34.8778C66.6464 34.7979 66.3823 34.7407 66.0938 34.7254C66.0738 34.6812 66.0761 34.6381 66.0995 34.6177C66.1228 34.5974 66.1461 34.577 66.1496 34.5124C66.0374 34.5281 65.9487 34.5234 65.9065 34.4779C65.8399 34.4744 65.7956 34.4721 65.7267 34.5116ZM64.2958 34.6302C64.318 34.6313 64.2981 34.5871 64.2127 34.5178C64.1882 34.5597 64.1848 34.6243 64.2281 34.6482C64.2924 34.6948 64.2924 34.6948 64.2958 34.6302ZM63.8586 35.3196C64.1295 35.2476 64.417 35.2844 64.701 35.3858C64.985 35.4873 65.2081 35.4775 65.3481 35.3553C65.2348 35.3925 65.1227 35.4082 64.9918 35.3581C64.8609 35.3079 64.7289 35.2793 64.5758 35.228C64.4437 35.1995 64.3117 35.1709 64.1785 35.1638C64.0442 35.1783 63.9531 35.2166 63.8586 35.3196ZM63.1782 37.659C63.2027 37.6171 63.2272 37.5752 63.2716 37.5775C63.2938 37.5787 63.3171 37.5584 63.3205 37.4938L63.1651 37.4855C63.1372 37.592 63.1338 37.6566 63.1782 37.659ZM63.0767 34.1121L63.1877 34.118L63.1832 34.2041L63.0722 34.1982L63.0767 34.1121ZM62.6523 37.5016C62.67 37.5889 62.7565 37.6366 62.8675 37.6425C62.9773 37.6699 63.0473 37.6089 63.0519 37.5227C63.0098 37.4773 62.9443 37.4522 62.8976 37.493C62.8288 37.5325 62.761 37.5505 62.6523 37.5016ZM62.7642 34.549C62.9873 34.5392 63.1871 34.5498 63.4079 34.5831C63.6288 34.6164 63.8063 34.6258 63.9429 34.5683C63.721 34.5565 63.5235 34.5029 63.3049 34.4265C63.0852 34.3717 62.9054 34.4053 62.7642 34.549ZM62.448 37.5771C62.399 37.6609 62.3768 37.6597 62.448 37.5771C62.5391 37.5387 62.5169 37.5376 62.448 37.5771ZM62.4939 34.1892L62.5827 34.1939L62.5873 34.1077L62.4985 34.103L62.4939 34.1892ZM62.2084 37.478C62.185 37.4984 62.1617 37.5188 62.1407 37.496C62.1196 37.4733 62.1185 37.4949 62.115 37.5595C62.1384 37.5391 62.1617 37.5188 62.1828 37.5415C62.2038 37.5642 62.205 37.5426 62.2084 37.478ZM61.8242 37.5872C61.8253 37.5657 61.8043 37.543 61.7832 37.5203C61.7622 37.4976 61.7388 37.5179 61.691 37.5802C61.7354 37.5825 61.7787 37.6064 61.7775 37.628C61.7986 37.6507 61.7997 37.6291 61.8242 37.5872ZM61.58 37.5743C61.6199 37.6628 61.6643 37.6652 61.6688 37.579C61.6734 37.4929 61.6512 37.4917 61.58 37.5743ZM61.6959 34.9675C61.8011 35.0811 61.9753 35.1551 62.2627 35.1919C62.5279 35.2275 62.7078 35.1939 62.8034 35.0694C62.9531 35.1853 63.1495 35.2605 63.3703 35.2937C63.5911 35.327 63.7266 35.291 63.8222 35.1665C63.668 35.1368 63.5137 35.107 63.3572 35.1203C63.1785 35.1324 63.0709 35.0619 63.0112 34.9292C62.878 34.9222 62.7203 34.957 62.5371 35.0553C62.3538 35.1535 62.2018 35.0807 62.0789 34.8798C62.0487 35.0294 61.9799 35.0689 61.9178 34.9793C61.8103 34.9088 61.7437 34.9053 61.6959 34.9675ZM61.2673 35.0744C61.3572 35.0575 61.4238 35.0611 61.467 35.0849C61.5103 35.1088 61.557 35.0681 61.5837 34.9832C61.4938 35 61.4494 34.9976 61.4528 34.933C61.4329 34.8888 61.3908 34.8434 61.3242 34.8398C61.2997 34.8817 61.273 34.9667 61.2673 35.0744ZM61.3118 34.2345C61.4449 34.2416 61.515 34.1805 61.5218 34.0513L61.322 34.0407L61.3118 34.2345ZM61.2509 34.1233C61.2754 34.0814 61.2332 34.036 61.1456 34.0098C61.0358 33.9824 60.9902 34.0016 61.0312 34.0685C61.05 34.1343 61.1388 34.139 61.2509 34.1233ZM60.6864 37.6349C60.8219 37.5989 60.9562 37.5845 61.0649 37.6334C61.1736 37.6824 61.2647 37.644 61.3381 37.5183C61.2249 37.5555 61.0905 37.57 60.9596 37.5199C60.8066 37.4686 60.7155 37.5069 60.6864 37.6349ZM60.7716 34.7674C60.7761 34.6812 60.7329 34.6574 60.6652 34.6754C60.6862 34.6981 60.7073 34.7208 60.6828 34.7627C60.6595 34.783 60.6805 34.8057 60.7471 34.8093C60.726 34.7866 60.7272 34.765 60.7716 34.7674ZM60.6566 34.4158C61.0141 34.3915 61.3704 34.3888 61.7244 34.4291C62.0562 34.4683 62.388 34.5075 62.721 34.5251C62.618 34.3685 62.3772 34.291 62.0198 34.3152C61.6624 34.3395 61.3949 34.3469 61.2617 34.3398C61.0454 34.2204 60.8713 34.1464 60.7392 34.1178C60.7557 34.2267 60.7301 34.2901 60.6624 34.3081C60.618 34.3057 60.6157 34.3488 60.6566 34.4158ZM60.7192 34.9158C60.5883 34.8656 60.5006 34.8394 60.4341 34.8359C60.3885 34.8551 60.2764 34.8707 60.1398 34.9283C60.3561 35.0477 60.5103 35.0775 60.6247 35.0187C60.7391 34.96 60.8945 34.9682 61.1142 35.0231C61.0743 34.9346 61.0556 34.8688 61.1045 34.785C61.1535 34.7012 61.1125 34.6343 61.0038 34.5853C60.9549 34.6691 60.8848 34.7302 60.8604 34.7721C60.8125 34.8343 60.7659 34.875 60.7192 34.9158ZM59.9352 37.5304C59.9727 37.6619 60.0814 37.7109 60.2624 37.6557C60.4201 37.6208 60.5533 37.6279 60.6153 37.7176C60.5999 37.5872 60.4924 37.5167 60.2926 37.5061C60.115 37.4967 59.9818 37.4896 59.9352 37.5304ZM59.9825 37.0578L60.1333 37.1522C60.0877 37.1713 60.0422 37.1905 60.0189 37.2109C59.9955 37.2312 59.9733 37.2301 59.9067 37.2265C59.909 37.1835 59.9335 37.1416 59.9557 37.1428C60.0234 37.1247 60.0246 37.1032 59.9825 37.0578ZM59.7802 34.1534C59.7779 34.1965 59.82 34.2419 59.8855 34.2669C59.9731 34.2932 60.0608 34.3194 60.1495 34.3241C60.2383 34.3288 60.3493 34.3347 60.4392 34.3179C60.5292 34.301 60.5747 34.2819 60.5758 34.2603C60.4706 34.1468 60.3397 34.0967 60.2053 34.1111C60.0488 34.1244 59.9145 34.1389 59.7802 34.1534ZM59.7505 34.7133C59.7016 34.7971 59.656 34.8162 59.6338 34.8151C59.6361 34.772 59.6162 34.7278 59.594 34.7266C59.594 34.7266 59.6395 34.7074 59.7505 34.7133ZM59.3501 37.6505C59.3956 37.6313 59.4622 37.6349 59.5032 37.7018C59.5407 37.8334 59.494 37.8741 59.3421 37.8013C59.3888 37.7606 59.4132 37.7187 59.391 37.7175C59.3677 37.7378 59.3478 37.6936 59.3501 37.6505ZM59.3761 34.2184C59.4182 34.2638 59.4836 34.2888 59.5736 34.272C59.6635 34.2552 59.6891 34.1918 59.6703 34.126C59.6026 34.144 59.5582 34.1416 59.4916 34.1381C59.4472 34.1358 59.4005 34.1765 59.3761 34.2184ZM59.2133 33.929C59.3465 33.9361 59.4142 33.9181 59.3733 33.8511L59.2845 33.8464L59.2133 33.929ZM59.02 37.158C59.0701 37.0526 59.1145 37.055 59.1099 37.1411C59.0832 37.2261 59.0598 37.2465 59.02 37.158ZM58.5419 36.9383C58.5863 36.9406 58.6552 36.9011 58.703 36.8388C58.6575 36.858 58.612 36.8772 58.5898 36.876C58.5465 36.8522 58.5454 36.8737 58.5419 36.9383ZM58.2852 37.1622C58.2864 37.1407 58.3319 37.1215 58.3985 37.125C58.3974 37.1466 58.3518 37.1658 58.2852 37.1622ZM58.1498 37.1982C58.1509 37.1767 58.1742 37.1563 58.1976 37.136C58.2209 37.1156 58.242 37.1383 58.2386 37.2029L58.1498 37.1982ZM58.2099 33.9622C58.244 34.1584 58.396 34.2312 58.6191 34.2215C58.8422 34.2117 59.0431 34.2007 59.1763 34.2078C59.1342 34.1624 59.1154 34.0966 59.141 34.0332C59.1666 33.9697 59.1467 33.9255 59.0591 33.8992C59.0312 34.0057 58.9179 34.0429 58.7181 34.0323C58.5184 34.0218 58.3419 33.9908 58.2099 33.9622ZM58.1802 34.5221C58.0448 34.5581 58.0203 34.6 58.1313 34.6059C58.2434 34.5903 58.2445 34.5687 58.1802 34.5221ZM57.985 34.4254C58.0237 34.5354 58.0681 34.5378 58.0727 34.4516C58.055 34.3643 58.034 34.3416 57.985 34.4254ZM57.96 34.057L57.9555 34.1431L58.1108 34.1513L58.1165 34.0437L58.0056 34.0378C58.0044 34.0593 57.9822 34.0581 57.96 34.057ZM57.8017 34.5237L57.8905 34.5284C57.9173 34.4434 57.9196 34.4003 57.8541 34.3753C57.8518 34.4183 57.8285 34.4387 57.8075 34.416L57.8017 34.5237ZM59.9825 37.0578C59.8282 37.028 59.7161 37.0437 59.6671 37.1275C59.6182 37.2112 59.5283 37.2281 59.3951 37.221C59.3752 37.1768 59.3541 37.1541 59.3342 37.1098C59.3131 37.0871 59.2921 37.0644 59.2733 36.9986C59.0291 36.9857 58.806 36.9955 58.604 37.028C58.4019 37.0604 58.2021 37.0499 58.028 36.9758C57.9369 37.0142 57.9113 37.0776 57.9546 37.1015C57.9967 37.1469 57.9733 37.1673 57.8823 37.2057C57.9113 37.0776 57.8692 37.0322 57.7337 37.0682C57.5983 37.1042 57.5083 37.1211 57.4395 37.1606C57.5726 37.1677 57.6813 37.2166 57.7889 37.2871C57.8743 37.3564 57.9864 37.3407 58.1498 37.1982C58.1031 37.239 58.1008 37.282 58.1896 37.2867C58.2141 37.2448 58.2585 37.2472 58.2983 37.3357C58.3381 37.4242 58.4047 37.4277 58.4736 37.3882C58.5203 37.3474 58.5447 37.3055 58.5237 37.2828C58.5026 37.2601 58.4816 37.2374 58.485 37.1728C58.5283 37.1967 58.5948 37.2002 58.6193 37.1583C58.666 37.1176 58.6882 37.1188 58.6848 37.1834C58.6614 37.2038 58.6381 37.2241 58.5937 37.2218C58.5715 37.2206 58.5482 37.2409 58.5447 37.3055C58.5869 37.351 58.6745 37.3772 58.8088 37.3627C58.921 37.3471 59.0319 37.3529 59.1173 37.4223C59.0997 37.3349 59.1008 37.3134 59.1452 37.3158C59.1896 37.3181 59.2129 37.2978 59.2585 37.2786C59.4315 37.3741 59.6745 37.4086 59.9187 37.4215C60.1628 37.4345 60.4104 37.3828 60.6358 37.3299C60.8555 37.3848 61.0985 37.4192 61.3882 37.413C61.6779 37.4067 61.9033 37.3539 62.1088 37.2568C62.3285 37.3116 62.5027 37.3857 62.6569 37.4154C62.81 37.4667 62.9454 37.4307 63.0855 37.3086C63.4127 37.4339 63.7889 37.4754 64.2352 37.4558C64.637 37.4339 65.061 37.4132 65.4827 37.4356C65.4896 37.3063 65.4486 37.2394 65.3376 37.2335C65.2267 37.2276 65.1367 37.2445 65.0889 37.3067C64.5351 37.2558 63.9802 37.2264 63.4031 37.1958C62.8914 37.1903 62.4019 37.186 61.888 37.2235C61.8681 37.1793 61.8703 37.1362 61.8925 37.1374C61.9147 37.1386 61.9381 37.1182 61.9415 37.0536C61.7884 37.0023 61.6541 37.0168 61.5596 37.1197C61.4651 37.2227 61.3752 37.2395 61.2887 37.1918C61.382 37.1103 61.4053 37.09 61.4042 37.1115C61.1765 37.2074 60.9967 37.2411 60.8214 37.1886C60.6671 37.1588 60.514 37.1075 60.3831 37.0574C60.333 37.1627 60.2864 37.2035 60.2642 37.2023C60.3109 37.1616 60.3131 37.1185 60.2033 37.0911C60.0747 36.9979 60.0303 36.9955 59.9825 37.0578ZM57.2056 36.9539C57.2522 36.9132 57.341 36.9179 57.4719 36.968C57.5806 37.0169 57.6706 37.0001 57.6996 36.8721C57.6097 36.8889 57.5209 36.8842 57.4332 36.858C57.3245 36.809 57.2557 36.8486 57.2056 36.9539ZM59.738 34.9502C59.6913 34.9909 59.6423 35.0747 59.6389 35.1393C59.5325 35.0472 59.4215 35.0414 59.286 35.0774C59.1506 35.1134 59.0185 35.0848 58.8922 34.9485C58.8689 34.9689 58.8432 35.0323 58.8398 35.0969C58.6856 35.0672 58.5092 35.0362 58.3526 35.0495C58.1961 35.0628 58.0407 35.0546 57.9064 35.0691C57.7721 35.0836 57.64 35.055 57.508 35.0264C57.376 34.9978 57.2473 34.9046 57.121 34.7683C57.656 34.7535 58.1233 34.7566 58.4995 34.7982C58.8524 34.8601 59.273 34.9039 59.738 34.9502ZM57.149 33.8197L57.2378 33.8244L57.2412 33.7598L57.1524 33.7551L57.149 33.8197ZM56.9457 34.7159C57.0356 34.699 57.0556 34.7433 57.051 34.8294C57.0288 34.8282 57.0066 34.8271 56.9855 34.8043C56.9645 34.7816 56.9423 34.7805 56.9201 34.7793L56.9457 34.7159ZM57.3427 37.3066C57.3882 37.2875 57.4116 37.2671 57.3905 37.2444C57.3461 37.242 57.345 37.2636 57.3427 37.3066C57.2106 37.2781 57.1896 37.2553 57.3029 37.2182C57.415 37.2025 57.4617 37.1618 57.4195 37.1164C57.1953 37.1477 57.0154 37.1813 56.8811 37.1958C56.7468 37.2103 56.547 37.1997 56.3063 37.1222C56.4093 37.2788 56.5601 37.3732 56.7821 37.3849C57.0262 37.3979 57.2049 37.3857 57.3427 37.3066ZM56.0109 37.2361C56.0331 37.2373 56.0985 37.2623 56.2061 37.3328L56.2163 37.139C56.0843 37.1104 56.0154 37.15 56.0109 37.2361ZM56.3467 36.7788C56.3866 36.8673 56.3854 36.8888 56.2744 36.8829C56.1868 36.8567 56.0969 36.8735 56.0069 36.8904C55.9893 36.8031 56.0348 36.7839 56.1225 36.8101C56.2545 36.8387 56.3211 36.8422 56.3467 36.7788ZM56.0214 34.5157C56.0704 34.4319 56.1148 34.4343 56.1102 34.5204C56.1057 34.6066 56.0835 34.6054 56.0214 34.5157ZM55.872 37.3367C55.8276 37.3344 55.7821 37.3535 55.7809 37.3751C55.8475 37.3786 55.8697 37.3798 55.872 37.3367ZM55.6541 36.8285C55.6484 36.9362 55.5584 36.953 55.4053 36.9017C55.4287 36.8813 55.4742 36.8621 55.5186 36.8645C55.563 36.8669 55.6085 36.8477 55.6541 36.8285ZM55.5354 34.4468L55.6464 34.4527C55.6441 34.4957 55.5974 34.5365 55.4864 34.5306C55.4876 34.509 55.4887 34.4875 55.5109 34.4887C55.5331 34.4899 55.5342 34.4683 55.5354 34.4468ZM55.3148 37.3504C55.2436 37.433 55.2436 37.433 55.3148 37.3504C55.4058 37.312 55.3837 37.3108 55.3148 37.3504ZM55.3205 37.2427L55.2784 37.1973L55.1674 37.1914C55.1429 37.2333 55.1628 37.2775 55.2283 37.3026C55.2727 37.305 55.3182 37.2858 55.3205 37.2427C55.3637 37.2666 55.4303 37.2701 55.5203 37.2533C55.4935 37.3383 55.5123 37.404 55.5988 37.4518C55.6011 37.4087 55.6244 37.3884 55.6466 37.3896C55.6676 37.4123 55.691 37.3919 55.7365 37.3727C55.6546 37.2388 55.6147 37.1503 55.5937 37.1276C55.6113 37.2149 55.5658 37.2341 55.4793 37.1863C55.3262 37.135 55.2807 37.1542 55.3205 37.2427ZM54.6851 33.6891C54.6408 33.6868 54.5975 33.6629 54.5986 33.6414C54.5998 33.6198 54.5776 33.6186 54.5099 33.6367C54.4632 33.6774 54.4609 33.7204 54.5485 33.7467C54.6362 33.7729 54.6817 33.7537 54.6851 33.6891ZM55.341 36.8551C55.2021 36.9557 54.9989 37.0097 54.7548 36.9968C54.4873 37.0042 54.3108 36.9733 54.1811 36.9016C54.403 36.9134 54.604 36.9024 54.7616 36.8676C54.9415 36.8339 55.1424 36.823 55.341 36.8551ZM54.2389 33.7087C54.2833 33.711 54.3289 33.6918 54.3533 33.65C54.3778 33.6081 54.4245 33.5673 54.4712 33.5266C54.4256 33.5458 54.3579 33.5638 54.3124 33.583C54.268 33.5806 54.2423 33.6441 54.2389 33.7087ZM53.4639 36.9932C53.4651 36.9717 53.5106 36.9525 53.5772 36.956C53.5761 36.9775 53.5305 36.9967 53.4639 36.9932ZM56.7939 33.8008L56.7973 33.7362C56.6886 33.6873 56.643 33.7065 56.6373 33.8141L56.7927 33.8224C56.8103 33.9097 56.8081 33.9528 56.7403 33.9708C56.6305 33.9433 56.5662 33.8968 56.5241 33.8513C56.482 33.8059 56.4364 33.8251 56.3852 33.9519C56.301 33.8611 56.3032 33.818 56.3943 33.7797C56.4854 33.7413 56.4433 33.6959 56.3124 33.6458L55.9458 33.8423C55.906 33.7538 55.8394 33.7503 55.7694 33.8113C55.6994 33.8724 55.655 33.8701 55.6572 33.827C55.6675 33.6332 55.6277 33.5447 55.5611 33.5412C55.5355 33.6046 55.5099 33.668 55.5064 33.7326C55.5019 33.8188 55.4563 33.838 55.3465 33.8105C55.3266 33.7663 55.3289 33.7232 55.3744 33.704C55.4199 33.6849 55.4444 33.643 55.4467 33.5999C55.3522 33.7029 55.2833 33.7424 55.1945 33.7377C55.1057 33.733 54.9936 33.7487 54.857 33.8062C54.8593 33.7631 54.8838 33.7212 54.9504 33.7248C54.9948 33.7271 55.0181 33.7068 54.9993 33.641C54.8684 33.5909 54.7796 33.5862 54.7085 33.6688C54.7529 33.6711 54.795 33.7165 54.7916 33.7811C54.6982 33.8626 54.6083 33.8794 54.4973 33.8735C54.3875 33.8461 54.2776 33.8187 54.1678 33.7913C54.0579 33.7639 53.9481 33.7365 53.8371 33.7306C53.7261 33.7247 53.635 33.7631 53.5849 33.8684C54.3374 33.9514 54.9577 34.0059 55.4262 33.9875C55.9168 33.9703 56.3818 34.0165 56.8655 34.1286C56.828 33.997 56.8547 33.912 56.9669 33.8964C56.9156 34.0232 56.9344 34.089 57.0664 34.1176C57.1985 34.1462 57.2884 34.1294 57.3584 34.0683C57.3072 34.1951 57.326 34.2609 57.4369 34.2668C57.4449 34.1161 57.5149 34.055 57.6237 34.1039C57.7324 34.1529 57.8433 34.1588 57.9355 34.0989C57.9424 33.9697 57.9026 33.8812 57.7927 33.8538C57.585 33.9939 57.4284 34.0072 57.2566 33.8901C57.0847 33.7731 56.9305 33.7433 56.7939 33.8008ZM53.3157 34.3292L53.4267 34.3351L53.4221 34.4212L53.3111 34.4153L53.3157 34.3292ZM53.2236 33.5469C53.2258 33.5038 53.2059 33.4596 53.1837 33.4584C53.1615 33.4573 53.1382 33.4776 53.0904 33.5399C53.1359 33.5207 53.1803 33.523 53.1792 33.5446C53.2002 33.5673 53.2002 33.5673 53.2236 33.5469ZM53.3079 37.4168C53.2533 37.6083 53.0711 37.685 52.7604 37.6685C52.4718 37.6533 52.2755 37.5781 52.1935 37.4442C52.4155 37.4559 52.5709 37.4642 52.7052 37.4497C52.8395 37.4352 53.0404 37.4242 53.3079 37.4168ZM51.803 33.4717C51.7762 33.5566 51.7973 33.5793 51.9094 33.5637C51.9993 33.5468 52.0881 33.5515 52.1314 33.5754C52.1359 33.4893 52.0927 33.4654 52.0261 33.4619C51.9384 33.4356 51.8707 33.4537 51.803 33.4717ZM51.6419 33.5711L51.7529 33.577L51.7586 33.4693L51.6032 33.4611C51.602 33.4826 51.6009 33.5041 51.622 33.5269C51.6442 33.528 51.643 33.5496 51.6419 33.5711ZM51.8127 37.4888C51.8105 37.5318 51.8304 37.5761 51.8736 37.6C51.9169 37.6239 51.9135 37.6885 51.8878 37.7519C51.8702 37.6646 51.7837 37.6168 51.6727 37.6109C51.5629 37.5835 51.4707 37.6434 51.4439 37.7284C51.3386 37.6148 51.3432 37.5287 51.4565 37.4915C51.5475 37.4531 51.6807 37.4602 51.8127 37.4888ZM51.1423 37.5396C51.1855 37.5635 51.2054 37.6078 51.1588 37.6485C51.1121 37.6892 51.0899 37.688 51.0489 37.6211C51.0501 37.5995 51.0734 37.5792 51.0945 37.6019C51.1389 37.6042 51.14 37.5827 51.1423 37.5396ZM50.8968 33.7692C51.3829 33.8381 51.8035 33.882 52.1831 33.8589C52.5627 33.8358 52.9623 33.857 53.3584 33.9428C53.3607 33.8997 53.4062 33.8805 53.4717 33.9056C53.5593 33.9318 53.5605 33.9103 53.5206 33.8218C53.1712 33.6953 52.7938 33.6753 52.3442 33.7595C52.3465 33.7164 52.3499 33.6518 52.3755 33.5884C52.4011 33.5249 52.3812 33.4807 52.3146 33.4772C52.2623 33.6256 52.1467 33.7058 52.0124 33.7203C51.8781 33.7348 51.7238 33.705 51.5918 33.6764C51.4375 33.6467 51.3055 33.6181 51.1501 33.6098C51.038 33.6255 50.9469 33.6638 50.8968 33.7692ZM50.8666 33.9187L50.9554 33.9234L50.9611 33.8158L50.8724 33.8111L50.8666 33.9187ZM50.4278 34.2194L50.5832 34.2276C50.5809 34.2707 50.5786 34.3138 50.5564 34.3126C50.5342 34.3114 50.5331 34.333 50.5297 34.3976L50.4187 34.3917L50.4278 34.2194ZM50.4677 33.4657L50.5787 33.4716L50.5821 33.407L50.4711 33.4011L50.4677 33.4657ZM50.8337 33.701L50.3897 33.6775C50.363 33.7625 50.4284 33.7875 50.5838 33.7958C50.7415 33.7609 50.8314 33.7441 50.8337 33.701ZM50.3555 34.3235C50.3509 34.4097 50.3276 34.43 50.31 34.3427C50.3379 34.2362 50.3612 34.2159 50.3555 34.3235ZM52.3914 34.1291C52.3868 34.2152 52.4079 34.2379 52.4523 34.2403C52.4967 34.2426 52.5177 34.2653 52.5143 34.3299C52.491 34.3503 52.3567 34.3648 52.1569 34.3542C52.1836 34.2692 52.1637 34.225 52.0983 34.1999C52.0328 34.1749 52.0351 34.1318 52.0818 34.0911L51.8376 34.0781C51.8296 34.2289 51.7784 34.3557 51.664 34.4145C51.6685 34.3283 51.6919 34.308 51.7141 34.3091C51.7363 34.3103 51.7374 34.2888 51.6742 34.2207C51.5877 34.1729 51.5655 34.1717 51.5832 34.259C51.6008 34.3463 51.5997 34.3679 51.5342 34.3428L51.5422 34.1921C51.4511 34.2304 51.3834 34.2484 51.3413 34.203C51.2992 34.1576 51.2326 34.1541 51.1848 34.2163L51.195 34.0225C51.1518 33.9986 51.0841 34.0166 51.0573 34.1016C51.0083 34.1854 50.9884 34.1411 50.9509 34.0096C50.8831 34.0276 50.8143 34.0671 50.7676 34.1078C50.6987 34.1474 50.6344 34.1008 50.5957 33.9908C50.4779 34.1141 50.3623 34.1943 50.2479 34.2531C50.1347 34.2903 50.0203 34.349 49.8848 34.385C50.0191 34.3705 50.1745 34.3787 50.3498 34.4312C50.5251 34.4837 50.6793 34.5135 50.8125 34.5205C51.1899 34.5405 51.5695 34.5174 51.9503 34.4728C52.3322 34.4067 52.6873 34.4255 52.9958 34.485C53.4597 34.5528 53.9025 34.5978 54.3697 34.601C54.837 34.6041 55.3242 34.6516 55.8746 34.7671C55.9212 34.7264 56.0123 34.688 56.1233 34.6939L56.4784 34.7127C56.4597 34.6469 56.4397 34.6027 56.4432 34.5381C56.4466 34.4735 56.4267 34.4292 56.3601 34.4257C56.228 34.3971 56.0949 34.3901 55.9594 34.4261C55.8239 34.4621 55.693 34.412 55.5667 34.2757C55.5599 34.4049 55.5109 34.4887 55.3965 34.5474C55.3766 34.5032 55.3789 34.4601 55.4244 34.4409C55.4699 34.4217 55.4722 34.3787 55.4534 34.3129C55.3214 34.2843 55.2747 34.325 55.3145 34.4135C55.3532 34.5235 55.3066 34.5642 55.1979 34.5153C55.1557 34.4699 55.0926 34.4017 55.0505 34.3563C54.9873 34.2882 54.923 34.2416 54.8587 34.195C54.8131 34.2142 54.7875 34.2776 54.8052 34.3649C54.8228 34.4522 54.8205 34.4953 54.7539 34.4918C54.7095 34.4894 54.6896 34.4452 54.7152 34.3817C54.7409 34.3183 54.7443 34.2537 54.7244 34.2095C54.59 34.224 54.5212 34.2635 54.5411 34.3077C54.561 34.352 54.5798 34.4178 54.5997 34.462C54.331 34.491 54.199 34.4624 54.2502 34.3355C54.2269 34.3559 54.2036 34.3762 54.2013 34.4193C54.2001 34.4408 54.1768 34.4612 54.1102 34.4577C54.0647 34.4769 53.9759 34.4721 53.845 34.422C53.7363 34.3731 53.7408 34.2869 53.8809 34.1648C53.7921 34.1601 53.7244 34.1781 53.6777 34.2188C53.631 34.2595 53.5633 34.2775 53.5166 34.3183C53.499 34.2309 53.4568 34.1855 53.4125 34.1832C53.347 34.1581 53.3038 34.1342 53.2605 34.1103C53.2303 34.2599 53.1136 34.3617 52.9104 34.4157C52.9605 34.3104 52.964 34.2458 52.8541 34.2184C52.7665 34.1921 52.7022 34.1455 52.6822 34.1013C52.6344 34.1635 52.5445 34.1804 52.3914 34.1291ZM49.6664 33.4664C49.7107 33.4688 49.7773 33.4723 49.8206 33.4962C49.8638 33.5201 49.9094 33.5009 49.9128 33.4363C49.8707 33.3909 49.8052 33.3658 49.7608 33.3635C49.6931 33.3815 49.6686 33.4234 49.6664 33.4664ZM49.4557 34.0815C49.5445 34.0862 49.6099 34.1113 49.6976 34.1375C49.7852 34.1638 49.8097 34.1219 49.8165 33.9927C49.7488 34.0107 49.6589 34.0275 49.5934 34.0024C49.5502 33.9786 49.5035 34.0193 49.4557 34.0815ZM50.8759 37.5255C50.9846 37.5745 51.0256 37.6414 50.9766 37.7252C50.8412 37.7612 50.7068 37.7757 50.5748 37.7471C50.4428 37.7185 50.3073 37.7545 50.1673 37.8767L50.1775 37.6829C50.0398 37.762 49.951 37.7573 49.889 37.6676C49.8434 37.6868 49.7734 37.7478 49.7233 37.8532C49.6835 37.7647 49.6402 37.7408 49.618 37.7396C49.5959 37.7384 49.5304 37.7134 49.465 37.6883C49.4206 37.686 49.3972 37.7063 49.3938 37.7709C49.4137 37.8152 49.3892 37.8571 49.3659 37.8774C49.3204 37.8966 49.2549 37.8715 49.2361 37.8058C49.1952 37.7388 49.173 37.7376 49.124 37.8214C49.1098 37.6695 49.2032 37.5881 49.4485 37.5795C49.6716 37.5697 49.8935 37.5815 50.1178 37.5501L50.5617 37.5737C50.6949 37.5807 50.807 37.5651 50.8759 37.5255ZM49.0915 33.3928C49.0648 33.4778 49.108 33.5016 49.2201 33.486C49.3323 33.4703 49.4011 33.4308 49.4034 33.3877C49.3567 33.4284 49.289 33.4465 49.2469 33.401C49.2048 33.3556 49.1604 33.3533 49.0915 33.3928ZM48.9827 34.186C49.026 34.2099 49.0914 34.235 49.1813 34.2182C49.2713 34.2013 49.269 34.2444 49.22 34.3282C49.0658 34.2984 49.0003 34.2733 48.9827 34.186ZM48.9361 33.3846L48.8473 33.3799L48.8428 33.466L48.9316 33.4707L48.9361 33.3846ZM48.7636 33.6993C48.9412 33.7088 49.2064 33.7444 49.5371 33.8051C49.8678 33.8658 50.1376 33.8153 50.3675 33.6763C50.3476 33.6321 50.3277 33.5879 50.3288 33.5663C50.33 33.5448 50.3101 33.5005 50.2458 33.4539L50.0016 33.441C49.9503 33.5679 49.8581 33.6278 49.7682 33.6446C49.6783 33.6614 49.5673 33.6555 49.4341 33.6485L49.0568 33.6285C48.9481 33.5796 48.8348 33.6167 48.7636 33.6993ZM48.6942 34.1708C48.7363 34.2162 48.7784 34.2616 48.8006 34.2628L48.7072 34.3442C48.685 34.343 48.6628 34.3418 48.664 34.3203C48.6651 34.2988 48.6429 34.2976 48.6207 34.2964C48.6219 34.2749 48.623 34.2534 48.6452 34.2545C48.6674 34.2557 48.6919 34.2138 48.6942 34.1708ZM48.2833 33.5227C48.3231 33.6112 48.3687 33.592 48.3732 33.5059C48.3556 33.4186 48.3334 33.4174 48.2833 33.5227ZM48.2776 33.6304C48.2332 33.6281 48.1877 33.6472 48.1865 33.6688C48.2309 33.6711 48.2765 33.6519 48.2776 33.6304ZM48.1741 37.6847C48.2162 37.7301 48.2128 37.7947 48.0984 37.8535C48.0062 37.9134 47.9584 37.9756 47.9538 38.0618C47.8451 38.0128 47.8485 37.9482 47.9419 37.8668C48.0341 37.8069 48.1263 37.747 48.1741 37.6847ZM47.8228 34.2326C47.9138 34.1942 47.9138 34.1942 47.8228 34.2326C47.7738 34.3163 47.7738 34.3163 47.8228 34.2326ZM47.17 33.5285C47.1677 33.5716 47.1433 33.6135 47.1199 33.6339C47.0966 33.6542 47.0943 33.6973 47.1142 33.7415C47.2707 33.7282 47.4273 33.7149 47.5849 33.6801C47.7414 33.6668 47.919 33.6762 48.1398 33.7095C48.0403 33.4883 47.9105 33.4166 47.7284 33.4933C47.5451 33.5916 47.3664 33.6037 47.17 33.5285ZM47.7746 37.6636C47.8833 37.7125 47.902 37.7783 47.8531 37.8621C47.8053 37.9243 47.7575 37.9866 47.7318 38.05C47.5987 38.0429 47.4877 38.0371 47.4 38.0108C47.3124 37.9846 47.2435 38.0241 47.1945 38.1079C47.1558 37.9979 47.0671 37.9932 46.9527 38.0519C46.8371 38.1322 46.7728 38.0856 46.7574 37.9552C46.7341 37.9755 46.6886 37.9947 46.6442 37.9924C46.5998 37.99 46.5764 38.0104 46.573 38.075C46.4643 38.026 46.4245 37.9375 46.4746 37.8322C46.6954 37.8655 46.9174 37.8773 47.1872 37.8268C47.4336 37.7967 47.6368 37.7426 47.7746 37.6636ZM46.6447 33.7814C46.6879 33.8053 46.7323 33.8077 46.7579 33.7443C46.7824 33.7024 46.8291 33.6616 46.8735 33.664C46.9156 33.7094 46.9355 33.7537 46.9133 33.7525C46.8911 33.7513 46.8678 33.7717 46.8644 33.8363C46.9742 33.8637 47.0197 33.8445 46.9799 33.756C46.9611 33.6902 46.9424 33.6245 46.9014 33.5575C46.857 33.5552 46.8115 33.5743 46.7881 33.5947C46.7648 33.6151 46.7204 33.6127 46.6771 33.5888C46.6783 33.5673 46.6572 33.5446 46.635 33.5434L46.6447 33.7814ZM46.4062 33.6608C46.4261 33.7051 46.4694 33.729 46.5149 33.7098C46.5661 33.5829 46.5462 33.5387 46.4108 33.5747C46.2753 33.6107 46.2508 33.6526 46.3151 33.6992C46.3419 33.6142 46.3874 33.5951 46.4062 33.6608ZM46.1084 34.66C46.1261 34.7473 46.1494 34.727 46.1762 34.642C46.1807 34.5559 46.1585 34.5547 46.1084 34.66ZM45.7888 37.7527C45.7899 37.7312 45.8132 37.7108 45.8354 37.712C45.8576 37.7132 45.8343 37.7335 45.7888 37.7527ZM45.7888 37.7527C45.7865 37.7958 45.7631 37.8161 45.741 37.815C45.6977 37.7911 45.721 37.7707 45.7888 37.7527ZM45.8462 33.3073C45.7972 33.391 45.7972 33.391 45.8462 33.3073C45.9373 33.2689 45.9373 33.2689 45.8462 33.3073ZM45.6629 33.4055C45.7284 33.4306 45.7528 33.3887 45.7352 33.3014C45.5798 33.2931 45.4888 33.3315 45.4853 33.3961C45.5309 33.3769 45.5975 33.3805 45.6629 33.4055ZM45.0978 38.1912C45.0534 38.1888 45.0078 38.208 45.0067 38.2295C45.0733 38.2331 45.0966 38.2127 45.0978 38.1912ZM45.5405 33.615L45.2076 33.5973C45.1808 33.6823 45.2229 33.7277 45.3561 33.7348C45.5103 33.7645 45.5792 33.725 45.5405 33.615ZM44.8314 38.1771L44.8257 38.2847L44.9367 38.2906C44.9634 38.2057 44.9435 38.1614 44.8559 38.1352C44.8536 38.1782 44.8536 38.1782 44.8314 38.1771ZM45.0732 33.6118C45.0266 33.6525 44.981 33.6717 44.9611 33.6275C44.9412 33.5832 44.8968 33.5809 44.849 33.6431C44.8701 33.6658 44.9355 33.6909 45.001 33.716C45.0664 33.741 45.0909 33.6991 45.0732 33.6118ZM44.5133 37.8795C44.6709 37.8446 44.8286 37.8098 45.0073 37.7977C45.1638 37.7844 45.3425 37.7723 45.5446 37.7398C45.4279 37.8416 45.2691 37.8979 45.046 37.9077C44.8217 37.939 44.6442 37.9296 44.5133 37.8795ZM44.5946 33.824C44.5968 33.7809 44.6213 33.739 44.6891 33.721C44.7346 33.7019 44.7357 33.6803 44.6936 33.6349C44.6913 33.678 44.6669 33.7199 44.5991 33.7379C44.5524 33.7786 44.5513 33.8001 44.5946 33.824ZM48.9827 34.186C48.985 34.143 48.9417 34.1191 48.874 34.1371C48.8063 34.1551 48.7852 34.1324 48.812 34.0474C48.701 34.0415 48.6333 34.0596 48.5866 34.1003C48.5399 34.141 48.4733 34.1375 48.4102 34.0693C48.4056 34.1555 48.3578 34.2177 48.2445 34.2549C48.2713 34.1699 48.2514 34.1257 48.1626 34.121C48.0749 34.0948 48.0761 34.0732 48.1683 34.0133C48.0783 34.0302 48.0339 34.0278 48.0129 34.0051C47.9918 33.9824 47.9486 33.9585 47.9042 33.9561C47.8131 33.9945 47.7209 34.0544 47.6065 34.1131C47.4921 34.1719 47.3823 34.1444 47.277 34.0309C47.3202 34.0548 47.3646 34.0571 47.3891 34.0152C47.4136 33.9733 47.3925 33.9506 47.3703 33.9495C47.3458 33.9913 47.3225 34.0117 47.3026 33.9675C47.2827 33.9232 47.2605 33.922 47.1927 33.94C47.1859 34.0693 47.1381 34.1315 47.0738 34.0849C47.0083 34.0598 46.9616 34.1006 46.9548 34.2298C46.8438 34.2239 46.7328 34.218 46.623 34.1906C46.5131 34.1632 46.4044 34.1142 46.277 33.9995C46.1438 33.9925 46.0516 34.0524 45.9793 34.1565C45.9292 34.2618 45.8171 34.2775 45.6896 34.1627C45.845 34.171 45.9372 34.1111 45.944 33.9819C45.9019 33.9364 45.8364 33.9114 45.7898 33.9521C45.7209 33.9916 45.6742 34.0324 45.6486 34.0958C45.6008 34.158 45.5541 34.1988 45.5086 34.2179C45.463 34.2371 45.4198 34.2132 45.4022 34.1259C45.5353 34.133 45.6065 34.0504 45.5701 33.8973C45.4312 33.9979 45.2758 33.9897 45.1239 33.9168C44.973 33.8225 44.8154 33.8573 44.6742 34.001C44.6475 34.0859 44.6685 34.1087 44.7806 34.093C44.8706 34.0762 44.9372 34.0797 44.9559 34.1455C44.9058 34.2508 44.8159 34.2676 44.6862 34.196C44.5786 34.1255 44.5109 34.1435 44.5473 34.2966C45.2587 34.3127 45.9258 34.3264 46.5496 34.3163C47.1944 34.3288 47.8848 34.3222 48.6418 34.3191C48.775 34.3262 48.9736 34.3583 49.2166 34.3928C49.4818 34.4284 49.6617 34.3948 49.8017 34.2726C49.7596 34.2272 49.6942 34.2021 49.6253 34.2417C49.5564 34.2812 49.4887 34.2992 49.3999 34.2945L49.409 34.1222C49.3214 34.096 49.2781 34.0721 49.2548 34.0925C49.2314 34.1128 49.166 34.0878 49.1028 34.0196C49.0795 34.04 49.0561 34.0604 49.0317 34.1023C49.0294 34.1453 49.0061 34.1657 48.9827 34.186ZM44.5133 37.8795C44.4643 37.9633 44.3744 37.9801 44.2645 37.9527C44.2702 37.845 44.3602 37.8282 44.5133 37.8795ZM44.1114 37.9014L44.2224 37.9073L44.2167 38.0149L44.1057 38.0091L44.1114 37.9014ZM43.9634 33.553C43.9788 33.6834 44.0431 33.73 44.1341 33.6916C44.2252 33.6533 44.3151 33.6364 44.3595 33.6388C44.3641 33.5527 44.343 33.5299 44.2764 33.5264C44.2742 33.5695 44.2286 33.5887 44.1632 33.5636C44.0977 33.5385 44.0311 33.535 43.9634 33.553ZM43.9737 33.3592C43.8849 33.3545 43.8615 33.3749 43.8604 33.3964C43.927 33.3999 43.9714 33.4023 43.9737 33.3592ZM43.265 33.7104C43.3083 33.7343 43.3538 33.7151 43.3572 33.6505C43.3128 33.6481 43.2463 33.6446 43.2252 33.6219C43.1819 33.598 43.1575 33.6399 43.1085 33.7237C43.1552 33.683 43.2218 33.6865 43.265 33.7104ZM42.5179 42.3518C42.5446 42.2669 42.5657 42.2896 42.5611 42.3757C42.5566 42.4619 42.5566 42.4619 42.5179 42.3518ZM44.0227 37.8967C43.8604 38.0177 43.6572 38.0717 43.4119 38.0803C43.1666 38.0889 42.9213 38.0975 42.676 38.1061C42.9048 37.9886 43.108 37.9346 43.33 37.9464C43.552 37.9581 43.7751 37.9484 44.0227 37.8967ZM42.9201 33.4978L43.0311 33.5036L43.0368 33.396L42.9258 33.3901L42.9201 33.4978ZM43.4921 34.0463C43.4898 34.0894 43.4875 34.1325 43.5086 34.1552C43.5296 34.1779 43.5051 34.2198 43.4363 34.2593C43.2786 34.2942 43.1676 34.2883 43.1033 34.2417C43.0612 34.1963 42.9758 34.127 42.8671 34.078C42.8871 34.1222 42.8848 34.1653 42.8392 34.1845C42.7937 34.2037 42.7914 34.2468 42.8113 34.291C43.0111 34.3016 43.2553 34.3145 43.5871 34.3537C43.9189 34.3929 44.1887 34.3424 44.393 34.2668C44.3532 34.1783 44.2866 34.1748 44.2621 34.2167C44.2155 34.2574 44.1933 34.2562 44.1511 34.2108C44.1756 34.1689 44.2223 34.1282 44.2678 34.109C44.3134 34.0898 44.3589 34.0707 44.3845 34.0072C44.187 33.9536 44.0538 33.9465 43.915 34.0471C43.7994 34.1274 43.7118 34.1012 43.6543 33.9254C43.6275 34.0103 43.6042 34.0307 43.5598 34.0283C43.5786 34.0941 43.5575 34.0714 43.4921 34.0463ZM46.2458 37.9497C46.2401 38.0573 46.1923 38.1196 46.1257 38.1161C46.0357 38.1329 45.9948 38.0659 45.9771 37.9786C45.9094 37.9966 45.8183 38.035 45.7717 38.0757L45.6083 38.2182C45.5195 38.2135 45.4996 38.1693 45.503 38.1047C45.3863 38.2065 45.2708 38.2867 45.1342 38.3443C45.0198 38.403 44.8399 38.4367 44.6179 38.4249C44.5758 38.3795 44.5559 38.3352 44.6003 38.3376C44.6447 38.3399 44.647 38.2969 44.6282 38.2311C44.4261 38.2636 44.3328 38.345 44.2827 38.4503C44.1717 38.4444 44.1507 38.4217 44.1985 38.3595C44.2451 38.3188 44.2486 38.2542 44.2065 38.2087C44.1108 38.3332 43.9976 38.3704 43.8445 38.3191C43.6914 38.2678 43.5758 38.3481 43.5001 38.5168C43.3891 38.511 43.347 38.4655 43.3527 38.3579C43.2349 38.4812 43.0994 38.5172 42.9697 38.4456C42.8177 38.3727 42.7044 38.4099 42.5855 38.5548C42.5434 38.5093 42.5246 38.4436 42.5479 38.4232C42.5724 38.3813 42.5969 38.3394 42.5992 38.2964C43.1142 38.2373 43.6293 38.1782 44.1433 38.1406C44.5673 38.1199 45.0392 38.0369 45.5343 37.9336C45.5787 37.9359 45.6208 37.9813 45.6174 38.046C45.7142 37.8999 45.9384 37.8686 46.2458 37.9497ZM42.8769 33.4739C42.8814 33.3877 42.8382 33.3638 42.7716 33.3603L42.7659 33.468L42.8769 33.4739ZM42.7887 33.0373C42.7899 33.0158 42.8132 32.9954 42.8798 32.9989C42.8565 33.0193 42.8331 33.0397 42.7887 33.0373ZM42.5451 38.056C42.5405 38.1421 42.5161 38.184 42.4495 38.1805C42.4039 38.1996 42.3607 38.1757 42.3396 38.153C42.3431 38.0884 42.4119 38.0489 42.5451 38.056ZM42.0517 42.3271C42.0785 42.2422 42.0995 42.2649 42.095 42.351C42.0682 42.436 42.0682 42.436 42.0517 42.3271ZM41.8195 42.5092C41.8206 42.4877 41.844 42.4673 41.8662 42.4685C41.8884 42.4697 41.9094 42.4924 41.9083 42.5139C41.906 42.557 41.9049 42.5785 41.8838 42.5558C41.8849 42.5343 41.8639 42.5115 41.8195 42.5092ZM42.2998 33.4433C42.3174 33.5306 42.3407 33.5103 42.3453 33.4241C42.351 33.3164 42.3499 33.338 42.2998 33.4433ZM42.0932 38.1832C41.9998 38.2646 41.9776 38.2634 41.9822 38.1773C41.9856 38.1127 42.03 38.115 42.0932 38.1832ZM42.1307 33.6935C42.3504 33.7483 42.4824 33.7769 42.5735 33.7385C42.6646 33.7002 42.7977 33.7072 43.0186 33.7405C43.0021 33.6317 42.9378 33.5851 42.849 33.5804C42.7602 33.5757 42.6726 33.5494 42.6316 33.4825C42.5815 33.5878 42.4904 33.6262 42.4039 33.5784C42.3151 33.5737 42.224 33.612 42.1307 33.6935ZM41.4643 42.4904C41.5577 42.4089 41.5799 42.4101 41.5753 42.4963C41.5708 42.5824 41.5486 42.5812 41.4643 42.4904ZM41.6936 38.162C41.8058 38.1464 41.849 38.1702 41.8445 38.2564L41.6891 38.2481L41.6936 38.162ZM41.4472 38.1921C41.5582 38.198 41.6014 38.2219 41.598 38.2865L41.4426 38.2783L41.4472 38.1921ZM40.9543 33.6312C41.1364 33.5544 41.2018 33.5795 41.1307 33.6621C41.0595 33.7447 41.0772 33.832 41.1859 33.881C41.1904 33.7948 41.2149 33.7529 41.2815 33.7565C41.327 33.7373 41.4158 33.742 41.5046 33.7467C41.5934 33.7514 41.6833 33.7346 41.7955 33.7189C41.8854 33.7021 41.9776 33.6422 42.0254 33.5799C41.9833 33.5345 41.9179 33.5094 41.8513 33.5059C41.7835 33.5239 41.6936 33.5408 41.6259 33.5588C41.6282 33.5157 41.6304 33.4726 41.6538 33.4523C41.6771 33.4319 41.6561 33.4092 41.5906 33.3841C41.5849 33.4918 41.5371 33.5541 41.4705 33.5505C41.4028 33.5685 41.3362 33.565 41.2707 33.5399C41.2053 33.5149 41.1387 33.5114 41.0721 33.5078C41.0044 33.5258 40.9577 33.5666 40.9543 33.6312ZM40.2435 42.4257C40.3277 42.5165 40.3499 42.5177 40.3545 42.4316C40.3801 42.3682 40.3357 42.3658 40.2435 42.4257ZM41.203 38.1792C41.2451 38.2246 41.2429 38.2677 41.1751 38.2857C41.0852 38.3025 41.0175 38.3205 40.9275 38.3374C40.8376 38.3542 40.7266 38.3483 40.5923 38.3628C40.4813 38.3569 40.3914 38.3737 40.2781 38.4109C40.3738 38.2864 40.5104 38.2289 40.6857 38.2814C40.9065 38.3147 41.0641 38.2798 41.203 38.1792ZM40.1245 42.5706C39.9914 42.5635 39.9236 42.5815 39.9225 42.603C39.9834 42.7142 40.05 42.7178 40.1245 42.5706ZM39.8462 42.3615C39.8394 42.4907 39.8815 42.5361 39.9515 42.475C40.0204 42.4355 40.1103 42.4186 40.2202 42.4461C40.227 42.3169 40.1849 42.2714 40.1149 42.3325C40.0449 42.3936 39.9549 42.4104 39.8462 42.3615ZM40.3321 34.0301C40.2433 34.0254 40.22 34.0457 40.2189 34.0673C40.2854 34.0708 40.3298 34.0732 40.3321 34.0301ZM40.0777 38.8322C40.0754 38.8753 39.9832 38.9352 39.8256 38.97C39.8523 38.8851 39.9445 38.8252 40.0777 38.8322ZM39.5872 42.6285C39.6316 42.6308 39.676 42.6332 39.6971 42.6559C39.7181 42.6786 39.7415 42.6582 39.7671 42.5948C39.7472 42.5506 39.7039 42.5267 39.6595 42.5243C39.614 42.5435 39.5895 42.5854 39.5872 42.6285ZM39.6886 42.3963C39.6442 42.394 39.5987 42.4131 39.5975 42.4347C39.6419 42.437 39.6874 42.4178 39.6886 42.3963ZM39.4763 42.6226C39.5218 42.6034 39.5451 42.5831 39.5229 42.5819C39.4785 42.5795 39.4774 42.6011 39.4763 42.6226C39.3664 42.5952 39.3454 42.5725 39.4142 42.5329C39.482 42.5149 39.5076 42.4515 39.4888 42.3857C39.379 42.3583 39.3334 42.3775 39.3499 42.4863C39.3676 42.5737 39.3419 42.6371 39.2742 42.6551C39.4074 42.6621 39.4751 42.6441 39.4763 42.6226ZM38.9481 42.5082C39.079 42.5584 39.1701 42.52 39.2446 42.3728C39.1769 42.3908 39.1314 42.41 39.0648 42.4064C38.976 42.4017 38.9515 42.4436 38.9481 42.5082ZM40.0584 38.3561C39.9406 38.4794 39.7818 38.5358 39.582 38.5252C39.3823 38.5146 39.1591 38.5244 38.956 38.5784C39.096 38.4563 39.277 38.4011 39.4989 38.4128C39.6987 38.4234 39.8996 38.4125 40.0584 38.3561ZM40.3549 33.5994L40.3629 33.4487C40.1563 33.5673 39.9753 33.6225 39.7755 33.6119C39.5758 33.6013 39.3936 33.678 39.2081 33.8194C39.4989 33.7916 39.8131 33.7435 40.1039 33.7157C40.3948 33.6879 40.66 33.7235 40.8763 33.843C40.8831 33.7138 40.8655 33.6265 40.8444 33.6037C40.7568 33.5775 40.7124 33.5752 40.6879 33.617C40.6634 33.6589 40.619 33.6566 40.5758 33.6327C40.5769 33.6112 40.6014 33.5693 40.6259 33.5274C40.6503 33.4855 40.6526 33.4424 40.586 33.4389C40.516 33.5 40.4238 33.5599 40.3549 33.5994ZM39.1431 34.2046C39.2541 34.2105 39.274 34.2548 39.204 34.3158C39.134 34.3769 39.113 34.3542 39.1431 34.2046ZM38.6573 42.536C38.6595 42.493 38.6829 42.4726 38.7495 42.4761C38.7927 42.5 38.8593 42.5035 38.9037 42.5059L38.9094 42.3982C38.8872 42.397 38.865 42.3959 38.844 42.3732C38.8229 42.3504 38.8007 42.3493 38.7785 42.3481C38.7762 42.3912 38.7296 42.4319 38.6618 42.4499C38.573 42.4452 38.5707 42.4882 38.6573 42.536ZM41.9337 34.0502C41.9161 33.9628 41.8939 33.9617 41.8227 34.0443C41.6053 33.9464 41.3822 33.9562 41.109 34.0712C40.837 34.1648 40.6093 34.2607 40.3827 34.3351C40.4072 34.2932 40.4328 34.2298 40.4818 34.146C40.5086 34.061 40.5108 34.018 40.4454 33.9929C40.2997 34.2227 40.1152 34.3425 39.8921 34.3523C39.8978 34.2446 39.9235 34.1812 39.969 34.162C40.0145 34.1428 40.039 34.1009 40.0857 34.0602C39.9747 34.0543 39.9058 34.0939 39.9024 34.1585C39.8768 34.2219 39.8512 34.2853 39.7823 34.3249C39.7669 34.1945 39.7248 34.1491 39.6781 34.1898C39.6315 34.2305 39.5859 34.2497 39.5393 34.2904L39.5507 34.0751C39.4152 34.1111 39.3031 34.1267 39.2154 34.1005C39.1278 34.0743 39.0168 34.0684 38.8825 34.0829C38.8768 34.1905 38.9189 34.236 38.9855 34.2395C39.0521 34.243 39.0708 34.3088 39.0418 34.4368C39.3748 34.4545 39.6201 34.4459 39.8443 34.4145C40.0464 34.3821 40.3349 34.3973 40.6667 34.4365C41.0498 34.3488 41.4283 34.3473 41.8045 34.3888C42.1796 34.4519 42.5171 34.3834 42.7926 34.2252C42.7493 34.2013 42.7283 34.1786 42.7505 34.1798C42.7727 34.181 42.796 34.1606 42.7971 34.1391C42.7072 34.1559 42.6628 34.1536 42.6651 34.1105C42.6452 34.0662 42.6253 34.022 42.6053 33.9778C42.3099 34.0917 42.0157 34.1841 41.7459 34.2346C41.4761 34.285 41.1875 34.2698 40.9035 34.1683C40.9479 34.1707 40.9935 34.1515 40.9946 34.13C40.9958 34.1084 41.0191 34.0881 41.0857 34.0916C41.2189 34.0987 41.3509 34.1272 41.5051 34.157C41.6594 34.1868 41.7726 34.1496 41.8683 34.0251C41.9081 34.1136 41.9525 34.1159 41.9337 34.0502ZM38.5763 38.6015C38.5775 38.58 38.6008 38.5596 38.6674 38.5631C38.6662 38.5847 38.6429 38.605 38.5763 38.6015ZM38.371 42.4777C38.322 42.5615 38.322 42.5615 38.371 42.4777C38.462 42.4393 38.462 42.4393 38.371 42.4777ZM38.2452 42.7517C38.285 42.8402 38.3305 42.821 38.3351 42.7349C38.3397 42.6488 38.2953 42.6464 38.2452 42.7517ZM38.3731 38.6555C38.3754 38.6125 38.3987 38.5921 38.4209 38.5933C38.442 38.616 38.4653 38.5956 38.5109 38.5765C38.5086 38.6195 38.4853 38.6399 38.4631 38.6387C38.4409 38.6375 38.3965 38.6352 38.3731 38.6555ZM38.731 34.4204C38.7544 34.4 38.821 34.4035 38.8841 34.4717L38.8967 34.2348C38.6747 34.223 38.5592 34.3033 38.5512 34.454C38.64 34.4587 38.6844 34.4611 38.731 34.4204ZM38.2577 42.5149C38.3044 42.4741 38.3067 42.4311 38.1968 42.4037C38.1092 42.3774 38.0636 42.3966 38.0602 42.4612C38.1046 42.4636 38.149 42.4659 38.1701 42.4886C38.1689 42.5102 38.1911 42.5113 38.2577 42.5149ZM38.4505 34.2543C38.4061 34.252 38.3605 34.2712 38.3594 34.2927C38.426 34.2962 38.4493 34.2759 38.4505 34.2543ZM38.2212 38.5827C38.2644 38.6066 38.2843 38.6508 38.2599 38.6927C38.2354 38.7346 38.1898 38.7538 38.1466 38.7299C38.1267 38.6857 38.129 38.6426 38.1734 38.6449C38.1956 38.6461 38.2189 38.6258 38.2212 38.5827ZM38.3276 34.0535C38.2832 34.0511 38.2388 34.0488 38.2399 34.0272C38.241 34.0057 38.2189 34.0045 38.1523 34.001C38.1056 34.0417 38.1033 34.0848 38.191 34.111C38.3019 34.1169 38.3253 34.0965 38.3276 34.0535ZM37.5673 42.5215C37.7016 42.507 37.7904 42.5117 37.8337 42.5356C37.8769 42.5595 37.9225 42.5403 37.9714 42.4565C37.9259 42.4757 37.8371 42.471 37.7284 42.422C37.6186 42.3946 37.573 42.4138 37.5673 42.5215ZM37.8949 34.6568C38.0036 34.7057 38.0702 34.7093 38.097 34.6243C38.0549 34.5789 37.9894 34.5538 37.9672 34.5526C37.9217 34.5718 37.8972 34.6137 37.8949 34.6568ZM37.6781 34.127C37.6759 34.1701 37.7191 34.194 37.8312 34.1783C37.9434 34.1627 38.0344 34.1243 38.0811 34.0836C37.9701 34.0777 37.8813 34.073 37.8358 34.0922C37.7914 34.0898 37.7459 34.109 37.6781 34.127ZM37.0767 42.5387L37.1877 42.5445L37.1923 42.4584L37.0813 42.4525L37.0767 42.5387ZM36.9458 42.4885C36.9623 42.5974 36.9845 42.5986 36.9902 42.4909C36.9959 42.3832 36.9959 42.3832 36.9458 42.4885ZM37.2194 34.3835C37.2438 34.3416 37.2672 34.3212 37.3116 34.3236C37.3326 34.3463 37.3537 34.369 37.3526 34.3905C37.3281 34.4324 37.3047 34.4528 37.3059 34.4312C37.307 34.4097 37.286 34.387 37.2194 34.3835ZM36.9855 34.1767C37.0908 34.2903 37.0862 34.3764 36.9507 34.4124C36.8375 34.4496 36.834 34.5142 36.9649 34.5643C37.0782 34.5271 37.2137 34.4911 37.3247 34.497C37.4578 34.5041 37.57 34.4884 37.6622 34.4285C37.6542 34.5793 37.6718 34.6666 37.7384 34.6701C37.7931 34.4786 37.9075 34.4199 38.0617 34.4497C38.216 34.4794 38.3281 34.4638 38.4214 34.3824C38.3349 34.3346 38.2473 34.3083 38.1352 34.324C38.023 34.3397 37.9365 34.2919 37.8967 34.2034C37.8454 34.3302 37.7754 34.3913 37.7333 34.3459C37.6901 34.322 37.6013 34.3173 37.4869 34.376C37.4892 34.333 37.5148 34.2695 37.5825 34.2515C37.6292 34.2108 37.6303 34.1893 37.5438 34.1415C37.5193 34.1834 37.4283 34.2218 37.2507 34.2124C37.2518 34.1908 37.253 34.1693 37.2763 34.1489C37.2996 34.1286 37.3008 34.107 37.3019 34.0855C37.2143 34.0593 37.1688 34.0785 37.1431 34.1419C37.072 34.2245 37.0486 34.2448 36.9855 34.1767ZM37.7271 38.6645C37.7692 38.7099 37.7892 38.7542 37.7436 38.7733C37.6759 38.7914 37.6093 38.7878 37.5416 38.8058C37.4516 38.8227 37.3629 38.818 37.2718 38.8563C37.1819 38.8732 37.1363 38.8923 37.1118 38.9342C36.8677 38.9213 36.7112 38.9346 36.6212 38.9514C36.7601 38.8508 36.9411 38.7956 37.1853 38.8086C37.4095 38.7772 37.5894 38.7436 37.7271 38.6645ZM36.8005 33.8862C37.0948 33.7938 37.43 33.7684 37.7385 33.8279C38.0703 33.8671 38.339 33.8381 38.5877 33.7649C38.4591 33.6717 38.3048 33.642 38.1273 33.6326C37.9485 33.6447 37.8131 33.6807 37.6987 33.7394C37.5945 33.6043 37.4403 33.5746 37.2371 33.6286C37.0328 33.7041 36.895 33.7832 36.8005 33.8862ZM36.8574 34.4938C36.813 34.4915 36.7686 34.4891 36.7475 34.4664C36.7265 34.4437 36.7043 34.4425 36.6377 34.439C36.5887 34.5228 36.5876 34.5443 36.6986 34.5502C36.8096 34.5561 36.8551 34.5369 36.8574 34.4938ZM36.7413 34.1638C36.6024 34.2644 36.5768 34.3278 36.6878 34.3337C36.7976 34.3611 36.8232 34.2977 36.7413 34.1638ZM36.6588 33.6195C36.6987 33.708 36.7209 33.7092 36.7254 33.6231C36.7078 33.5358 36.6856 33.5346 36.6588 33.6195ZM36.537 34.2393C36.5757 34.3494 36.6201 34.3517 36.6246 34.2656C36.6303 34.1579 36.6081 34.1567 36.537 34.2393ZM36.1755 39.3813L36.2643 39.386L36.2689 39.2999L36.1801 39.2952L36.1755 39.3813ZM36.4077 34.578C36.41 34.5349 36.4112 34.5134 36.4322 34.5361C36.4533 34.5588 36.4743 34.5815 36.5409 34.5851C36.5688 34.4786 36.5512 34.3912 36.4869 34.3447C36.4226 34.2981 36.4271 34.2119 36.5193 34.152C36.3839 34.188 36.3139 34.2491 36.3537 34.3376C36.3491 34.4237 36.3679 34.4895 36.4077 34.578ZM35.7885 39.1233C35.7498 39.0132 35.8199 38.9522 36.0418 38.9639C36.2649 38.9541 36.3993 38.9397 36.4915 38.8798C36.4402 39.0066 36.348 39.0665 36.2171 39.0164C36.1073 38.989 35.9718 39.025 35.7885 39.1233ZM36.0339 33.6512C36.0772 33.6751 36.1437 33.6786 36.1694 33.6152C36.216 33.5745 36.2183 33.5314 36.1529 33.5064C36.1284 33.5483 36.1039 33.5901 36.0817 33.589C36.1039 33.5901 36.0806 33.6105 36.0339 33.6512ZM35.6309 39.1581C35.5421 39.1534 35.5432 39.1319 35.591 39.0696C35.6599 39.0301 35.6588 39.0516 35.6309 39.1581ZM35.9297 34.3583C35.9308 34.3368 35.9097 34.3141 35.8887 34.2914C35.8676 34.2687 35.8443 34.289 35.7965 34.3513C35.8409 34.3536 35.8841 34.3775 35.883 34.399C35.8818 34.4206 35.9052 34.4002 35.9297 34.3583ZM35.7772 33.8752C35.8671 33.8583 36.0225 33.8666 36.2877 33.9022C36.5529 33.9379 36.6884 33.9018 36.7174 33.7738C36.582 33.8098 36.4921 33.8267 36.4721 33.7824C36.4522 33.7382 36.3646 33.7119 36.2337 33.6618C36.2513 33.7491 36.2502 33.7707 36.1836 33.7671C36.1392 33.7648 36.0726 33.7612 36.0293 33.7374C35.9861 33.7135 35.9195 33.7099 35.874 33.7291C35.8284 33.7483 35.7817 33.789 35.7772 33.8752ZM35.8068 34.1575C35.7624 34.1551 35.7168 34.1743 35.7157 34.1958C35.7823 34.1994 35.8056 34.179 35.8068 34.1575ZM35.8364 33.5976C35.792 33.5952 35.7465 33.6144 35.7453 33.6359C35.8119 33.6395 35.8341 33.6406 35.8364 33.5976ZM35.3913 39.059L35.4801 39.0637L35.4755 39.1499L35.3867 39.1452L35.3913 39.059ZM35.1154 42.5859C35.3618 42.5558 35.5849 42.546 35.7614 42.577C35.9378 42.6079 36.0955 42.5731 36.2133 42.4497C36.0778 42.4858 35.8991 42.4979 35.6561 42.4634C35.4575 42.4313 35.2554 42.4638 35.1154 42.5859ZM35.4777 34.4855C35.48 34.4425 35.5034 34.4221 35.5256 34.4233C35.5466 34.446 35.5921 34.4268 35.6377 34.4076C35.6132 34.4495 35.5899 34.4699 35.5455 34.4675C35.5233 34.4664 35.5011 34.4652 35.4777 34.4855ZM35.5108 33.8611C35.6372 33.9973 35.7049 33.9793 35.7152 33.7855C35.5843 33.7354 35.5165 33.7534 35.5108 33.8611ZM35.5678 33.6265C35.5234 33.6242 35.4778 33.6434 35.4767 33.6649C35.5211 33.6672 35.5666 33.6481 35.5678 33.6265ZM34.8699 39.6576C34.9831 39.6205 35.0298 39.5797 35.0309 39.5582C35.011 39.514 34.9678 39.4901 34.9222 39.5093C34.8545 39.5273 34.8511 39.5919 34.8699 39.6576ZM35.0868 33.8818C35.3088 33.8935 35.4232 33.8348 35.43 33.7056C35.3179 33.7213 35.2035 33.78 35.0868 33.8818ZM34.904 34.3904C34.9075 34.3258 34.9075 34.3258 34.904 34.3904C34.9473 34.4143 34.9695 34.4154 35.015 34.3962C34.9951 34.352 35.0196 34.3101 35.0862 34.3136C35.1528 34.3172 35.1772 34.2753 35.1608 34.1664C35.1152 34.1856 35.0242 34.224 34.9331 34.2623C34.8432 34.2792 34.8187 34.3211 34.904 34.3904ZM34.5605 42.5565C34.4518 42.5076 34.4074 42.5052 34.404 42.5698C34.3783 42.6333 34.4449 42.6368 34.5605 42.5565ZM35.1937 39.8476C35.1447 39.9313 35.0326 39.947 34.8994 39.9399C34.7662 39.9329 34.6319 39.9474 34.5397 40.0073C34.5887 39.9235 34.6797 39.8851 34.8129 39.8922C34.925 39.8765 35.0594 39.862 35.1937 39.8476ZM34.3724 39.8041C34.3946 39.8052 34.4156 39.8279 34.3923 39.8483C34.369 39.8687 34.3701 39.8471 34.3724 39.8041ZM34.3724 39.8041C34.3269 39.8232 34.3047 39.8221 34.3058 39.8005C34.3303 39.7586 34.3525 39.7598 34.3724 39.8041ZM34.4123 34.4291C34.3656 34.4698 34.3189 34.5105 34.3178 34.5321C34.2723 34.5513 34.2279 34.5489 34.229 34.5274C34.2301 34.5058 34.2091 34.4831 34.1869 34.4819C34.2324 34.4628 34.3013 34.4232 34.4123 34.4291ZM34.2587 33.9675C34.3685 33.9949 34.5017 34.0019 34.6138 33.9863C34.7259 33.9706 34.8159 33.9538 34.9081 33.8939C34.9992 33.8555 35.0259 33.7706 35.0316 33.6629C34.9627 33.7025 34.8717 33.7408 34.8039 33.7588C34.7362 33.7768 34.6719 33.7302 34.6321 33.6417C34.6275 33.7279 34.603 33.7698 34.5364 33.7662C34.4687 33.7843 34.4243 33.7819 34.3577 33.7784C34.2911 33.7748 34.2245 33.7713 34.1568 33.7893C34.0891 33.8073 34.0424 33.848 34.039 33.9126C34.06 33.9354 34.1477 33.9616 34.2587 33.9675ZM33.5096 39.2833C33.5586 39.1995 33.603 39.2018 33.5984 39.288C33.595 39.3526 33.5506 39.3502 33.5096 39.2833ZM33.6463 33.7623C33.6907 33.7646 33.7351 33.767 33.7339 33.7885C33.7328 33.8101 33.755 33.8112 33.7772 33.8124C33.7783 33.7909 33.7795 33.7693 33.8017 33.7705C33.8239 33.7717 33.825 33.7502 33.8261 33.7286C33.8039 33.7274 33.7817 33.7263 33.7829 33.7047C33.784 33.6832 33.7618 33.682 33.7396 33.6808L33.6463 33.7623ZM33.9445 34.0156C33.9269 33.9283 33.8836 33.9044 33.817 33.9009C33.7504 33.8974 33.685 33.8723 33.5973 33.8461C33.5893 33.9968 33.6081 34.0626 33.677 34.023C33.7237 33.9823 33.8124 33.987 33.9445 34.0156ZM33.48 34.3797C33.4533 34.4647 33.4743 34.4874 33.542 34.4694C33.6098 34.4514 33.6764 34.4549 33.7196 34.4788C33.7242 34.3926 33.7043 34.3484 33.6377 34.3449C33.5944 34.321 33.5489 34.3402 33.48 34.3797ZM32.9962 39.7311C33.1072 39.737 33.1971 39.7202 33.2882 39.6818C33.3792 39.6435 33.447 39.6255 33.538 39.5871C33.4515 39.5393 33.3639 39.5131 33.2506 39.5503C33.1374 39.5875 33.0673 39.6485 32.9962 39.7311ZM36.0452 34.2781C36.0207 34.32 36.0406 34.3642 36.1072 34.3677C36.1738 34.3713 36.1949 34.394 36.1693 34.4574C36.1226 34.4981 36.0549 34.5161 35.9684 34.4683C35.8818 34.4206 35.7931 34.4159 35.6809 34.4315C35.7276 34.3908 35.731 34.3262 35.6889 34.2808C35.599 34.2976 35.5546 34.2953 35.5113 34.2714C35.4681 34.2475 35.4015 34.244 35.3315 34.305C35.307 34.3469 35.3269 34.3912 35.3924 34.4162C35.4578 34.4413 35.4567 34.4628 35.41 34.5036C35.2091 34.5145 35.0526 34.5278 34.8972 34.5196C34.764 34.5125 34.6075 34.5258 34.4732 34.5403C34.4965 34.5199 34.5233 34.435 34.5301 34.3058C34.3969 34.2987 34.3059 34.3371 34.258 34.3993C34.2102 34.4616 34.1203 34.4784 33.9883 34.4498C33.9826 34.5575 33.9359 34.5982 33.8693 34.5947C33.826 34.5708 33.7162 34.5434 33.5597 34.5567C33.4032 34.57 33.3121 34.6084 33.2398 34.7125C33.3496 34.7399 33.4162 34.7434 33.4618 34.7243C33.5073 34.7051 33.575 34.6871 33.686 34.693C33.7293 34.7168 33.7281 34.7384 33.6814 34.7791C33.6359 34.7983 33.6336 34.8413 33.7201 34.8891C33.838 34.7658 33.9979 34.6879 34.2 34.6554C34.4242 34.6241 34.6251 34.6131 34.8482 34.6034C35.0935 34.5948 35.3155 34.6065 35.5597 34.6195C35.8039 34.6324 36.0281 34.6011 36.2535 34.5482C36.2336 34.504 36.2159 34.4167 36.2205 34.3305C36.2262 34.2229 36.1596 34.2193 36.0452 34.2781ZM32.9826 34.5261C33.1846 34.4936 33.299 34.4349 33.3457 34.3942C33.2336 34.4098 33.1448 34.4051 33.1015 34.3813C33.0594 34.3358 33.0338 34.3993 32.9826 34.5261ZM32.743 34.427C32.7816 34.5371 32.826 34.5394 32.8306 34.4533C32.8352 34.3671 32.8141 34.3444 32.743 34.427ZM31.8004 34.5715C31.8169 34.6803 31.8391 34.6815 31.8448 34.5738C31.8505 34.4661 31.8505 34.4661 31.8004 34.5715ZM31.3644 39.8606C31.4486 39.9515 31.5175 39.9119 31.6131 39.7874C31.5676 39.8066 31.5221 39.8258 31.4777 39.8235C31.4321 39.8426 31.3877 39.8403 31.3644 39.8606ZM31.5659 34.7966C31.7901 34.7653 32.0355 34.7567 32.3462 34.7731C32.6336 34.81 32.9034 34.7595 33.1322 34.642C32.9091 34.6518 32.6416 34.6592 32.3309 34.6428C31.9757 34.6239 31.7281 34.6756 31.5659 34.7966ZM31.5755 35.0346C31.5812 34.927 31.5613 34.8827 31.5391 34.8815C31.5369 34.9246 31.5147 34.9234 31.4503 34.8768C31.4446 34.9845 31.4646 35.0288 31.5755 35.0346ZM31.0365 40.1672C31.0809 40.1695 31.0821 40.148 31.0633 40.0822C31.02 40.0583 30.9745 40.0775 30.9489 40.141C30.9233 40.2044 30.921 40.2475 30.9876 40.251C30.991 40.1864 31.0143 40.166 31.0365 40.1672ZM30.7878 40.2404C30.7423 40.2596 30.7189 40.2799 30.7411 40.2811C30.7633 40.2823 30.7867 40.2619 30.7878 40.2404C30.8976 40.2678 30.9198 40.269 30.8789 40.202C30.8157 40.1339 30.7924 40.1543 30.7878 40.2404ZM30.9334 40.8528C30.8435 40.8696 30.7536 40.8864 30.6614 40.9463C30.646 40.8159 30.6938 40.7537 30.8037 40.7811C30.9135 40.8085 31.0478 40.794 31.1622 40.7353C31.1144 40.7976 31.0234 40.8359 30.9334 40.8528ZM30.5482 40.1413C30.4395 40.0924 30.4173 40.0912 30.4594 40.1366C30.5004 40.2036 30.5448 40.2059 30.5482 40.1413C30.5914 40.1652 30.658 40.1687 30.6825 40.1268C30.7292 40.0861 30.7081 40.0634 30.6216 40.0156C30.6205 40.0372 30.5972 40.0575 30.575 40.0564C30.5528 40.0552 30.5505 40.0983 30.5482 40.1413ZM30.4605 40.9573C30.4138 40.998 30.3227 41.0364 30.2561 41.0328C30.1673 41.0281 30.0996 41.0461 30.0074 41.106C30.0341 41.0211 30.103 40.9815 30.2151 40.9659C30.3284 40.9287 30.395 40.9322 30.4605 40.9573ZM29.6329 40.6111C29.8128 40.5774 29.9938 40.5223 30.1748 40.4671C30.3336 40.4107 30.4924 40.3543 30.6301 40.2752C30.205 40.3175 29.8652 40.4291 29.6329 40.6111ZM29.4177 41.3123C29.3932 41.3542 29.3022 41.3926 29.169 41.3855C29.1724 41.3209 29.2623 41.3041 29.4177 41.3123ZM29.0877 40.8198L29.1986 40.8256L29.2044 40.718L29.0934 40.7121L29.0877 40.8198ZM30.8636 34.6082C30.7025 34.7077 30.5437 34.764 30.3883 34.7558C30.2318 34.7691 30.0986 34.762 29.9432 34.7538C29.7879 34.7456 29.6535 34.7601 29.5414 34.7757C29.4293 34.7914 29.2927 34.8489 29.176 34.9507C29.5767 34.9503 29.9563 34.9273 30.3581 34.9054C30.7378 34.8823 31.0963 34.8365 31.4572 34.7476C31.3473 34.7202 31.2142 34.7132 31.1032 34.7073C31.0133 34.7241 30.9267 34.6763 30.8636 34.6082ZM29.1686 34.6696C29.2107 34.715 29.2762 34.7401 29.3428 34.7436C29.4105 34.7256 29.435 34.6837 29.4185 34.5748C29.373 34.594 29.3274 34.6132 29.283 34.6109C29.2398 34.587 29.1931 34.6277 29.1686 34.6696ZM28.8502 41.5198C28.848 41.5629 28.8013 41.6036 28.7347 41.6001C28.7159 41.5343 28.7615 41.5151 28.8502 41.5198ZM28.863 34.9773C28.8607 35.0204 28.9039 35.0443 28.9728 35.0047C29.0639 34.9664 29.1094 34.9472 29.1339 34.9053C29.0883 34.9245 29.0218 34.9209 28.9341 34.8947C28.8687 34.8696 28.8453 34.89 28.863 34.9773ZM28.8311 34.7381L28.9865 34.7463C29.0309 34.7487 29.0542 34.7283 29.0354 34.6625C28.9045 34.6124 28.8368 34.6304 28.8311 34.7381ZM28.4626 41.6936C28.4125 41.7989 28.3215 41.8373 28.2128 41.7884C28.2384 41.7249 28.3294 41.6866 28.4626 41.6936ZM32.9115 33.7665L32.8671 33.7642C32.866 33.7857 32.8648 33.8073 32.8415 33.8276C32.8181 33.848 32.817 33.8695 32.8136 33.9341C32.685 33.8409 32.5939 33.8793 32.5205 34.005C32.4983 34.0038 32.4761 34.0026 32.455 33.9799C32.434 33.9572 32.4118 33.956 32.3452 33.9525C32.3696 33.9106 32.3953 33.8472 32.4186 33.8268C32.4431 33.7849 32.3998 33.761 32.311 33.7563C32.1676 33.9431 32.0111 33.9564 31.817 33.8381C31.8113 33.9458 31.7868 33.9877 31.7202 33.9842C31.587 33.9771 31.5216 33.952 31.5227 33.9305C31.5461 33.9102 31.5916 33.891 31.636 33.8933C31.6804 33.8957 31.7037 33.8753 31.7516 33.8131C31.5541 33.7594 31.4419 33.7751 31.3907 33.9019C31.3406 34.0072 31.2518 34.0025 31.1255 33.8663C31.1232 33.9093 31.0765 33.9501 31.0088 33.9681C30.9411 33.9861 30.8733 34.0041 30.8255 34.0663C30.7811 34.064 30.7379 34.0401 30.7413 33.9755C30.7436 33.9324 30.7236 33.8882 30.6571 33.8847C30.517 34.0068 30.3138 34.0608 30.0463 34.0682C29.7788 34.0757 29.5335 34.0843 29.3548 34.0964C29.3349 34.0521 29.3594 34.0103 29.426 34.0138C29.4925 34.0173 29.4937 33.9958 29.4527 33.9288C29.3173 33.9648 29.1585 34.0212 28.9797 34.0333C28.7999 34.067 28.6633 34.1245 28.5466 34.2263C28.9239 34.2463 29.2569 34.264 29.5688 34.2589C29.8585 34.2526 30.1482 34.2464 30.439 34.2186C30.7299 34.1908 31.0207 34.1631 31.3548 34.1592C31.7122 34.1349 32.0919 34.1118 32.4482 34.1091C32.4493 34.0876 32.4504 34.066 32.4738 34.0457C32.4971 34.0253 32.4983 34.0038 32.5017 33.9392C32.5239 33.9404 32.5438 33.9846 32.5404 34.0492C32.7003 33.9713 32.879 33.9592 33.0555 33.9901C33.2319 34.0211 33.3674 33.985 33.4852 33.8617C33.3543 33.8116 33.2445 33.7842 33.1756 33.8237C33.1067 33.8633 32.9946 33.8789 32.8614 33.8719L32.9115 33.7665C32.957 33.7474 32.9804 33.727 32.9582 33.7258C32.9138 33.7235 32.9126 33.745 32.9115 33.7665ZM28.5403 34.7659C28.649 34.8148 28.6945 34.7956 28.7002 34.688L28.5448 34.6797C28.5004 34.6774 28.4993 34.6989 28.5403 34.7659ZM28.1794 34.8547C28.1783 34.8763 28.1549 34.8966 28.0883 34.8931C28.0895 34.8716 28.135 34.8524 28.1794 34.8547ZM32.5591 39.5784C32.3371 39.5667 32.1339 39.6207 31.9495 39.7405C31.9472 39.7835 31.9916 39.7859 32.0616 39.7248C32.1538 39.6649 32.176 39.6661 32.1715 39.7522C32.1225 39.836 32.0081 39.8947 31.8504 39.9296C31.6928 39.9644 31.5807 39.9801 31.493 39.9538C31.6438 40.0482 31.8669 40.0384 32.1402 39.9233C32.3445 39.8478 32.5488 39.7722 32.7532 39.6967L32.8641 39.7026C32.7799 39.6117 32.7577 39.6105 32.7532 39.6967C32.6667 39.6489 32.6001 39.6454 32.5522 39.7076C32.5044 39.7699 32.3923 39.7855 32.2603 39.7569C32.3069 39.7162 32.3758 39.6767 32.4424 39.6802C32.5522 39.7076 32.5767 39.6657 32.5591 39.5784C33.1419 39.5013 33.5916 39.4172 33.9302 39.3271C34.2689 39.2371 34.7185 39.153 35.2569 39.0735C35.1169 39.1957 34.8682 39.2689 34.5318 39.3158C34.1966 39.3412 33.9035 39.4121 33.6536 39.5068C33.9421 39.5221 34.2996 39.4979 34.6826 39.4102C35.0657 39.3225 35.3821 39.2313 35.632 39.1366C35.743 39.1424 35.7885 39.1233 35.7897 39.1017C36.056 39.1158 36.3691 39.0892 36.7498 39.0446C37.1096 38.9773 37.4926 38.8896 37.8324 38.778C37.8757 38.8019 37.9411 38.827 37.9633 38.8282C37.9855 38.8293 38.0288 38.8532 38.0697 38.9202C38.6127 38.7546 39.22 38.6356 39.8928 38.5417C40.5655 38.4478 41.1239 38.4126 41.5877 38.4803C41.639 38.3535 41.7756 38.2959 41.9754 38.3065C42.1751 38.3171 42.3538 38.305 42.4882 38.2905C42.4392 38.3743 42.3914 38.4365 42.3646 38.5215C42.3379 38.6064 42.2468 38.6448 42.1125 38.6593C42.0926 38.615 42.0727 38.5708 42.0294 38.5469C42.0083 38.5242 41.9873 38.5015 41.9907 38.4369C41.8575 38.4298 41.7665 38.4682 41.7408 38.5316C41.7152 38.595 41.6674 38.6573 41.6207 38.698C41.4853 38.734 41.4198 38.709 41.4267 38.5798C41.2912 38.6158 41.2013 38.6326 41.1569 38.6302C41.1136 38.6064 41.0248 38.6017 40.8473 38.5922C40.8205 38.6772 40.8416 38.6999 40.9093 38.6819C40.977 38.6639 41.0214 38.6663 41.0402 38.732C40.9457 38.835 40.8558 38.8518 40.7704 38.7825C40.685 38.7132 40.5951 38.7301 40.4983 38.8761C40.4807 38.7888 40.483 38.7457 40.5063 38.7254C40.4608 38.7445 40.3931 38.7625 40.3475 38.7817C40.302 38.8009 40.2775 38.8428 40.2963 38.9086C40.2809 38.7782 40.2166 38.7316 40.1244 38.7915C40.0333 38.8299 39.9679 38.8048 39.9514 38.696C39.8159 38.732 39.6992 38.8338 39.6258 38.9594C39.5524 39.0851 39.3725 39.1188 39.1096 39.0401L39.1176 38.8893C38.891 38.9637 38.689 38.9962 38.5336 38.988C38.3549 39.0001 38.1528 39.0326 37.9473 39.1297C37.9496 39.0866 37.9519 39.0435 37.9297 39.0423C37.9075 39.0412 37.9087 39.0196 37.9121 38.955C37.8665 38.9742 37.7954 39.0568 37.6998 39.1813C37.6132 39.1335 37.5478 39.1085 37.459 39.1038C37.3691 39.1206 37.3657 39.1852 37.4032 39.3168C37.36 39.2929 37.3178 39.2475 37.2979 39.2032C37.278 39.159 37.257 39.1363 37.1904 39.1327C37.1215 39.1723 37.0515 39.2334 36.9826 39.2729C36.9359 39.3136 36.8227 39.3508 36.6883 39.3653C36.7384 39.26 36.7419 39.1954 36.6531 39.1907C36.5654 39.1644 36.4977 39.1824 36.4499 39.2447C36.4709 39.2674 36.492 39.2901 36.5364 39.2924C36.5808 39.2948 36.5796 39.3163 36.6229 39.3402C36.5762 39.3809 36.4851 39.4193 36.3952 39.4361C36.3053 39.453 36.1932 39.4686 36.081 39.4843L36.089 39.3335C35.978 39.3277 35.8881 39.3445 35.8426 39.3637C35.797 39.3828 35.7293 39.4009 35.6405 39.3961C35.6747 39.5923 35.649 39.6557 35.517 39.6271C35.5193 39.5841 35.5449 39.5207 35.6138 39.4811C35.5238 39.4979 35.4339 39.5148 35.3451 39.5101C35.2563 39.5054 35.1664 39.5222 35.1209 39.5414C35.1385 39.6287 35.1818 39.6526 35.2273 39.6334C35.2728 39.6142 35.3628 39.5974 35.4293 39.6009C35.3115 39.7242 35.1749 39.7818 35.0195 39.7735C34.8641 39.7653 34.6632 39.7763 34.4378 39.8291C34.4401 39.786 34.4635 39.7657 34.5301 39.7692C34.5733 39.7931 34.6188 39.7739 34.6223 39.7093C34.3781 39.6964 34.1538 39.7277 33.9285 39.7805C33.7019 39.8549 33.4964 39.952 33.2676 40.0694L33.2756 39.9187C33.1624 39.9559 33.1145 40.0181 33.1544 40.1066C33.2631 40.1556 33.4184 40.1638 33.6427 40.1325C33.3427 40.3326 32.9574 40.4633 32.4867 40.5247C32.016 40.5862 31.6341 40.6523 31.341 40.7232C31.592 40.6069 31.8874 40.493 32.2027 40.4233C32.4958 40.3525 32.7668 40.2805 33.0587 40.2311C33.1054 40.1904 33.1299 40.1485 33.0866 40.1246C33.0434 40.1008 33.0212 40.0996 32.9791 40.0542C32.8226 40.0675 32.6182 40.143 32.3871 40.3035C32.3439 40.2796 32.3006 40.2558 32.3029 40.2127C32.304 40.1912 32.283 40.1684 32.2631 40.1242C32.2175 40.1434 32.1709 40.1841 32.1464 40.226C32.1219 40.2679 32.0974 40.3098 32.0285 40.3493C31.2402 40.5235 30.473 40.7204 29.7245 40.9831C28.9994 41.2254 28.3152 41.5347 27.651 41.8882C27.6487 41.9312 27.6686 41.9755 27.713 41.9778C27.7574 41.9802 27.7807 41.9598 27.8286 41.8976C27.873 41.8999 27.9151 41.9454 27.9094 42.053C27.9304 42.0757 27.9515 42.0984 27.9748 42.0781C27.9982 42.0577 27.997 42.0793 27.9936 42.1439C28.6094 42.2845 29.2964 42.3424 30.0755 42.3405C30.8547 42.3386 31.5906 42.3128 32.281 42.3062C33.9071 42.2844 35.4433 42.2794 36.8918 42.2481C38.3391 42.2384 39.8298 42.2526 41.3847 42.3134C41.2458 42.414 41.1103 42.45 41.0005 42.4226C40.8684 42.394 40.7353 42.387 40.6243 42.3811C40.5975 42.4661 40.5286 42.5056 40.4387 42.5224C40.3488 42.5393 40.2577 42.5776 40.211 42.6183C40.3875 42.6493 40.5651 42.6587 40.7438 42.6466C40.9003 42.6333 41.0779 42.6427 41.2321 42.6724C41.1854 42.7131 41.1154 42.7742 41.0255 42.791C40.9344 42.8294 40.869 42.8044 40.8291 42.7159C39.9566 42.7992 39.1074 42.8622 38.236 42.924C37.409 42.9882 36.5621 43.0081 35.7397 42.9861C35.6953 42.9838 35.6498 43.0029 35.6253 43.0448C35.6008 43.0867 35.5775 43.1071 35.5086 43.1466C34.1478 43.2041 32.8757 43.2663 31.6947 43.2901C30.5125 43.3354 29.2473 43.2684 27.8768 43.0878C27.8347 43.0424 27.7937 42.9755 27.7749 42.9097C27.7562 42.8439 27.7152 42.777 27.6731 42.7315C27.4665 42.8502 27.2621 42.9257 27.0612 42.9367C27.0504 42.7201 27.0362 42.5682 27.0186 42.4809C27.001 42.3936 27.0112 42.1998 27.0261 41.9198C27.2965 41.4375 27.6943 41.0699 28.243 40.7966C28.7906 40.5449 29.3125 40.3566 29.7855 40.2521C30.3109 39.9992 30.9005 39.7929 31.5534 39.6547C32.1385 39.5345 32.7247 39.3928 33.311 39.2511C33.2597 39.378 33.1453 39.4367 32.9888 39.45C32.8101 39.4622 32.6746 39.4982 32.5591 39.5784ZM27.3746 34.9201C27.4856 34.9259 27.5533 34.9079 27.579 34.8445C27.5346 34.8422 27.4913 34.8183 27.4702 34.7956C27.4492 34.7728 27.427 34.7717 27.3593 34.7897L27.3746 34.9201ZM27.1526 34.9083C27.197 34.9107 27.2648 34.8926 27.3126 34.8304C27.2005 34.8461 27.1327 34.8641 27.1526 34.9083ZM26.9529 34.8977C26.9927 34.9862 27.0371 34.9886 27.0417 34.9024C27.0451 34.8378 27.0229 34.8366 26.9529 34.8977ZM26.7087 34.8848C26.7474 34.9948 26.7918 34.9972 26.7964 34.911C26.8009 34.8249 26.7787 34.8237 26.7087 34.8848ZM26.5089 34.8742C26.46 34.958 26.46 34.958 26.5089 34.8742C26.6 34.8358 26.6 34.8358 26.5089 34.8742ZM27.8408 34.9448C27.7952 34.9639 27.7742 34.9412 27.8021 34.8347C27.8288 34.7498 27.7856 34.7259 27.6945 34.7642C27.6877 34.8935 27.6165 34.9761 27.5044 34.9917C27.3922 35.0074 27.2357 35.0207 27.1014 35.0352C26.9449 35.0485 26.8117 35.0414 26.6774 35.0559C26.5431 35.0704 26.452 35.1087 26.4241 35.2152C26.8071 35.1275 27.1879 35.0829 27.5886 35.0826C27.9893 35.0822 28.3934 35.0172 28.7998 34.9092C28.6899 34.8818 28.6012 34.8771 28.4879 34.9143C28.3968 34.9526 28.3302 34.9491 28.3114 34.8833C28.2915 34.8391 28.316 34.7972 28.3826 34.8007C28.4492 34.8042 28.4737 34.7623 28.4549 34.6966C28.3206 34.711 28.1863 34.7255 28.0963 34.7423C27.962 34.7568 27.892 34.8179 27.8408 34.9448ZM26.2112 35.0312L26.3222 35.0371C26.3467 34.9952 26.3268 34.9509 26.2613 34.9259C26.1959 34.9008 26.1504 34.92 26.1469 34.9846C26.2135 34.9881 26.2124 35.0097 26.2112 35.0312ZM25.9472 34.974C25.8117 35.01 25.7872 35.0519 25.8982 35.0578C26.0092 35.0637 26.0115 35.0206 25.9472 34.974ZM25.6779 35.4348C25.6289 35.5186 25.6079 35.4959 25.6779 35.4348C25.769 35.3965 25.7479 35.3737 25.6779 35.4348ZM25.485 35.295C25.6227 35.216 25.757 35.2015 25.9124 35.2097C26.0667 35.2395 26.201 35.225 26.3376 35.1674C26.1879 35.0515 26.0103 35.0421 25.8504 35.12C25.6904 35.1979 25.6039 35.1502 25.6131 34.9779C25.4531 35.0558 25.403 35.1611 25.485 35.295ZM25.4315 35.465C25.3871 35.4626 25.3415 35.4818 25.3404 35.5033C25.4081 35.4853 25.4303 35.4865 25.4315 35.465ZM27.1191 34.2803C26.7759 34.4565 26.4173 34.5022 26.0201 34.438C25.6228 34.3738 25.2409 34.4399 24.9187 34.6388C25.4094 34.6216 25.9899 34.5876 26.6826 34.5379C27.3752 34.4882 27.9814 34.3907 28.5011 34.2455C28.3445 34.2588 28.2324 34.2745 28.167 34.2494C28.1237 34.2255 28.0116 34.2412 27.8329 34.2533C27.8129 34.2091 27.8152 34.166 27.8608 34.1468C27.9063 34.1276 27.8619 34.1253 27.7509 34.1194C27.6741 34.3097 27.4709 34.3637 27.1191 34.2803ZM23.9597 34.6744C23.9819 34.6755 24.003 34.6983 23.9995 34.7629C24.135 34.7268 24.2693 34.7124 24.3581 34.7171C24.468 34.7445 24.5801 34.7288 24.7167 34.6713C24.7235 34.5421 24.6837 34.4536 24.5739 34.4262C24.5215 34.5746 24.4071 34.6333 24.275 34.6047C24.1652 34.5773 24.0531 34.5929 23.9597 34.6744ZM24.4127 35.3678C24.3273 35.2985 24.2619 35.2734 24.2163 35.2926C24.1708 35.3118 24.1065 35.2652 24.0223 35.1744C23.9989 35.1947 23.9756 35.2151 23.9955 35.2593C24.0166 35.282 23.9932 35.3024 23.9243 35.3419C23.9044 35.2977 23.8845 35.2534 23.8646 35.2092C23.8447 35.165 23.8003 35.1626 23.7326 35.1806C23.7724 35.2691 23.8145 35.3145 23.8145 35.3145C23.8134 35.336 23.7889 35.3779 23.7189 35.439C23.8287 35.4664 23.9175 35.4711 24.0086 35.4328C24.0996 35.3944 24.1884 35.3991 24.296 35.4696C24.3193 35.4492 24.3427 35.4289 24.3871 35.4312C24.3871 35.4312 24.4104 35.4109 24.4127 35.3678C24.6346 35.3796 24.79 35.3878 24.88 35.371C24.9699 35.3541 25.1019 35.3827 25.2562 35.4125C25.3028 35.3718 25.3518 35.288 25.3575 35.1803C25.3632 35.0726 25.2989 35.026 25.1657 35.019C25.119 35.0597 25.1168 35.1028 25.2044 35.129C25.292 35.1552 25.2909 35.1768 25.1998 35.2151C24.9955 35.2907 24.8623 35.2836 24.7536 35.2347C24.6449 35.1857 24.4918 35.1344 24.2698 35.1227C24.2431 35.2077 24.2641 35.2304 24.3751 35.2362C24.4651 35.2194 24.5072 35.2648 24.4804 35.3498C24.4383 35.3044 24.4161 35.3032 24.4127 35.3678ZM23.436 35.3161C23.547 35.3219 23.6159 35.2824 23.6859 35.2213C23.6648 35.1986 23.6216 35.1747 23.5538 35.1927C23.4872 35.1892 23.4406 35.2299 23.436 35.3161ZM23.226 35.4993C23.3159 35.4825 23.4058 35.4656 23.4946 35.4703C23.5834 35.475 23.6301 35.4343 23.6335 35.3697C23.4559 35.3603 23.3205 35.3963 23.226 35.4993ZM23.1662 35.3665L23.255 35.3713L23.2596 35.2851L23.1708 35.2804L23.1662 35.3665ZM22.7354 35.5165C22.7752 35.605 22.8207 35.5858 22.8253 35.4997C22.8298 35.4135 22.8076 35.4123 22.7354 35.5165ZM22.7445 35.3442L22.8333 35.3489L22.8378 35.2628L22.749 35.2581L22.7445 35.3442ZM22.6119 34.9053C22.814 34.8728 23.0382 34.8415 23.2391 34.8305C23.4401 34.8196 23.6421 34.7871 23.822 34.7534C23.6734 34.616 23.4748 34.5839 23.2249 34.6786C23.0206 34.7542 22.8163 34.8297 22.6119 34.9053ZM22.2248 35.4894C22.2271 35.4464 22.2294 35.4033 22.2516 35.4045C22.2738 35.4057 22.2527 35.3829 22.234 35.3172C22.123 35.3113 22.0552 35.3293 22.0097 35.3485C21.9642 35.3677 21.8976 35.3641 21.8344 35.296C21.9385 35.4311 21.934 35.5172 21.8219 35.5329C21.7097 35.5485 21.6841 35.612 21.7251 35.6789C21.8406 35.5986 21.9983 35.5638 22.177 35.5517C22.3557 35.5396 22.5333 35.549 22.6653 35.5776C22.6699 35.4914 22.6722 35.4484 22.6967 35.4065C22.7211 35.3646 22.679 35.3191 22.5925 35.2714C22.6079 35.4018 22.5823 35.4652 22.4923 35.482C22.4024 35.4988 22.3136 35.4941 22.2248 35.4894ZM21.5174 34.9769C21.6284 34.9828 21.7616 34.9898 21.8959 34.9753C22.0524 34.962 22.1435 34.9237 22.2135 34.8626C22.0792 34.8771 21.9449 34.8915 21.8128 34.863C21.6586 34.8332 21.5675 34.8716 21.5174 34.9769ZM21.2333 35.7176C21.1445 35.7129 21.1212 35.7333 21.1201 35.7548C21.1878 35.7368 21.2322 35.7392 21.2333 35.7176ZM20.6193 35.1236C20.7547 35.0876 20.9113 35.0743 21.0666 35.0826C21.2209 35.1123 21.3353 35.0536 21.4087 34.9279C21.2755 34.9209 21.1412 34.9354 20.9847 34.9487C20.806 34.9608 20.6916 35.0195 20.6193 35.1236ZM20.4484 35.8272L20.5594 35.8331C20.564 35.747 20.5207 35.7231 20.4542 35.7196L20.4484 35.8272ZM19.9112 35.8851C20.0665 35.8934 20.1809 35.8346 20.2544 35.709C20.1155 35.8096 19.9812 35.8241 19.8269 35.7943C19.6738 35.743 19.5816 35.8029 19.5071 35.9501C19.6215 35.8914 19.7558 35.8769 19.9112 35.8851ZM19.5207 35.6917C19.4974 35.7121 19.4741 35.7324 19.4308 35.7085C19.4098 35.6858 19.3864 35.7062 19.383 35.7708C19.4063 35.7504 19.4297 35.7301 19.4729 35.7539C19.5162 35.7778 19.5173 35.7563 19.5207 35.6917ZM18.8576 36.0237C18.9476 36.0068 19.0153 35.9888 19.1041 35.9935C19.1929 35.9982 19.2395 35.9575 19.2652 35.8941C19.1109 35.8643 18.9743 35.9219 18.8576 36.0237ZM18.5213 36.0706C18.5235 36.0276 18.5702 35.9869 18.6601 35.97C18.7501 35.9532 18.7512 35.9317 18.6437 35.8612C18.6414 35.9042 18.5947 35.945 18.527 35.963C18.4592 35.981 18.4569 36.024 18.5213 36.0706ZM17.7796 36.2041L17.8684 36.2088L17.8741 36.1011L17.7853 36.0964L17.7796 36.2041ZM17.0215 36.2287C17.1103 36.2334 17.1336 36.2131 17.1371 36.1485C17.0693 36.1665 17.0238 36.1857 17.0215 36.2287ZM62.0079 34.1202C61.9646 34.0964 61.8992 34.0713 61.877 34.0701C61.8326 34.0678 61.8115 34.0451 61.7683 34.0212C61.7438 34.0631 61.7415 34.1061 61.7626 34.1288C61.7836 34.1516 61.8047 34.1743 61.8012 34.2389C61.9378 34.1813 62.0067 34.1418 62.0079 34.1202C62.0523 34.1226 62.0955 34.1465 62.0932 34.1896C62.0909 34.2326 62.1342 34.2565 62.2008 34.26C62.2919 34.2217 62.3175 34.1582 62.2742 34.1344C62.2321 34.0889 62.2333 34.0674 62.3021 34.0279L62.7017 34.049C62.857 34.0573 62.9857 34.1505 63.0887 34.3071C63.1985 34.3345 63.244 34.3153 63.2253 34.2495C63.2065 34.1837 63.231 34.1419 63.2987 34.1238C63.606 34.2049 63.9379 34.2441 64.2486 34.2605C64.5816 34.2782 65.001 34.3436 65.5081 34.4352C65.507 34.4568 65.5059 34.4783 65.4825 34.4987C65.4592 34.519 65.458 34.5406 65.4569 34.5621C65.5656 34.611 65.61 34.6134 65.5713 34.5034C65.5537 34.4161 65.556 34.373 65.6225 34.3765C67.8098 34.6867 69.886 34.9911 71.8957 35.2919C73.9042 35.6142 75.8393 36.0623 77.7021 36.6144C77.2951 36.3122 76.8393 36.0937 76.3777 35.9828C75.9161 35.872 75.4124 35.7157 74.911 35.5164C74.2895 35.4835 73.5838 35.3597 72.7716 35.144C71.9595 34.9282 71.2093 34.8021 70.4768 34.7632C69.8832 34.6238 69.2873 34.5275 68.6903 34.4527C68.0932 34.3778 67.4285 34.321 66.6983 34.2392C66.1058 34.0782 65.4877 33.9807 64.8884 33.9489C64.2669 33.916 63.6488 33.8185 63.0341 33.6563C62.3659 33.6641 61.7 33.6289 61.0586 33.5517C60.4171 33.4745 59.7734 33.4404 59.1052 33.4482C58.889 33.3288 58.5782 33.3123 58.1286 33.3965C58.0853 33.3726 58.021 33.326 58.0011 33.2817C57.959 33.2363 57.8935 33.2113 57.7825 33.2054C56.9789 33.2492 56.1576 33.2057 55.3608 33.1203C54.5196 33.0325 53.6528 33.0082 52.8024 33.0927C52.0779 32.9032 51.3676 32.8655 50.6493 32.9787C50.3887 32.8569 50.1001 32.8416 49.7825 32.9543C49.4661 33.0455 49.2008 33.0099 48.9669 32.8031C48.737 32.9421 48.4905 32.9723 48.2287 32.872C47.9669 32.7718 47.6971 32.8223 47.3995 32.9792C46.9402 32.8253 46.4086 32.7756 45.7836 32.8073C45.1576 32.8605 44.6248 32.8323 44.161 32.7645L44.0443 32.8663C43.8514 32.7265 43.6749 32.6956 43.4706 32.7711C43.2663 32.8467 43.1109 32.8384 42.939 32.7214C42.1775 32.8106 41.396 32.8556 40.618 32.8359C39.8621 32.8175 39.1251 32.8648 38.3857 32.9552C38.2514 32.9697 38.1171 32.9842 37.9839 32.9771C37.8507 32.9701 37.7164 32.9845 37.5821 32.999C37.4478 33.0135 37.3146 33.0064 37.1825 32.9779C37.0505 32.9493 36.9185 32.9207 36.7853 32.9136C36.429 32.9163 36.0704 32.9621 35.713 32.9864C35.31 33.0298 34.9514 33.0756 34.594 33.0999C34.3697 33.1312 34.1688 33.1421 33.9469 33.1304C33.726 33.0971 33.5274 33.065 33.3066 33.0317C32.9013 33.1182 32.4306 33.1796 31.8933 33.2375C31.356 33.2954 30.8222 33.2887 30.2906 33.239C29.751 33.34 29.0783 33.4339 28.319 33.4801C27.5586 33.5478 26.7994 33.5939 26.0868 33.5993C25.9701 33.7011 25.8568 33.7383 25.7458 33.7324C25.7003 33.7516 25.6559 33.7493 25.636 33.705C25.6161 33.6608 25.595 33.6381 25.5284 33.6346C25.4106 33.7579 25.2518 33.8142 25.0543 33.7606C24.8557 33.7285 24.7014 33.6987 24.5927 33.6498C24.5904 33.6928 24.5438 33.7336 24.476 33.7516C24.4083 33.7696 24.3406 33.7876 24.2928 33.8498C23.2859 33.9476 22.2557 34.0658 21.2045 34.1613C20.1976 34.2591 19.1874 34.4215 18.1947 34.6713C17.4133 34.7163 16.584 34.8235 15.7291 34.9942C14.8742 35.1648 14.0438 35.2936 13.2612 35.3601C13.2566 35.4462 13.2999 35.4701 13.3665 35.4736C13.4342 35.4556 13.4997 35.4807 13.5429 35.5046C13.9015 35.4588 14.239 35.3903 14.5987 35.323C14.8918 35.2521 15.2504 35.2063 15.7188 35.188C15.7655 35.1472 15.8566 35.1089 15.9232 35.1124C16.012 35.1171 16.0797 35.0991 16.1275 35.0369C18.6341 34.7809 21.1862 34.5058 23.7349 34.2954C26.3969 34.0477 29.0133 33.8192 31.5632 33.5871C31.5842 33.6099 31.6719 33.6361 31.8051 33.6431C34.6668 33.406 37.5451 33.2778 40.4176 33.2572C41.8872 33.2487 43.3567 33.2402 44.7807 33.2508C46.1604 33.2591 47.5389 33.289 48.9162 33.3403C49.1171 33.3294 49.2748 33.2945 49.4325 33.2597C49.5901 33.2249 49.7677 33.2343 49.9862 33.3106C50.6322 33.3017 51.2782 33.2927 51.9231 33.3053C52.5679 33.3178 53.2771 33.377 54.0506 33.4828C54.6544 33.4284 55.3437 33.4433 56.1194 33.506C56.8952 33.5687 57.6476 33.6517 58.3334 33.7312C58.9749 33.8084 59.6186 33.8425 60.2879 33.8132C60.935 33.7827 61.5753 33.8814 62.2321 34.0889C62.0767 34.0807 62.009 34.0987 62.0079 34.1202ZM12.7114 35.6549C12.758 35.6142 12.848 35.5973 12.9811 35.6044C13.091 35.6318 13.1821 35.5934 13.2088 35.5085C12.988 35.4752 12.807 35.5304 12.7114 35.6549ZM12.4194 35.7042C12.4649 35.685 12.5326 35.667 12.577 35.6694C12.6214 35.6717 12.6681 35.631 12.6715 35.5664C12.4718 35.5558 12.4017 35.6169 12.4194 35.7042ZM11.6778 35.8377C11.8155 35.7586 11.9498 35.7441 12.0597 35.7715C12.1695 35.7989 12.2606 35.7606 12.334 35.6349C12.1985 35.6709 12.0642 35.6854 11.9544 35.658C11.8235 35.6078 11.7313 35.6677 11.6778 35.8377ZM10.5821 35.9308L10.4933 35.9261L10.4876 36.0338L10.5764 36.0385L10.5821 35.9308ZM54.8731 37.2838C54.8708 37.3269 54.8908 37.3711 54.9118 37.3938C54.9573 37.3746 54.9807 37.3543 54.983 37.3112C54.9386 37.3089 54.9175 37.2861 54.8731 37.2838C54.991 37.1605 55.1509 37.0826 55.3307 37.0489C55.5106 37.0152 55.7115 37.0043 55.9124 36.9933L56.514 36.982C56.7149 36.9711 56.8948 36.9374 57.0314 36.8799C56.9438 36.8536 56.8106 36.8466 56.6319 36.8587C56.6598 36.7522 56.7508 36.7138 56.9062 36.7221C57.0616 36.7303 57.1714 36.7577 57.2568 36.827C58.4634 36.7398 59.67 36.6525 60.8732 36.6299C62.0554 36.5845 63.2563 36.605 64.4549 36.6685C64.8556 36.6681 65.3451 36.6724 65.9245 36.66C66.5028 36.669 67.081 36.678 67.6581 36.7086L71.8534 36.9309C72.1419 36.9461 72.3463 36.8706 72.443 36.7245C72.4829 36.813 72.5483 36.8381 72.6383 36.8213C72.665 36.7363 72.6673 36.6932 72.6007 36.6897C72.5574 36.6658 72.4897 36.6838 72.4419 36.7461C72.4687 36.6611 72.4476 36.6384 72.381 36.6349C72.3133 36.6529 72.27 36.629 72.2513 36.5632C72.2291 36.562 72.2046 36.6039 72.1989 36.7116C72.068 36.6615 71.9803 36.6353 71.9137 36.6317C71.8682 36.6509 71.7783 36.6677 71.6639 36.7265C71.6696 36.6188 71.6508 36.553 71.6297 36.5303C71.4909 36.6309 71.3799 36.625 71.3178 36.5354C71.2558 36.4457 71.146 36.4183 71.0082 36.4974C70.9627 36.5166 70.9183 36.5142 70.9206 36.4711C70.9229 36.4281 70.9018 36.4054 70.8819 36.3611C70.5245 36.3854 70.1471 36.3654 69.7533 36.2365C69.3361 36.1281 68.9166 36.0627 68.4949 36.0403C68.4072 36.0141 68.3617 36.0333 68.3583 36.0979C68.3327 36.1613 68.2871 36.1805 68.2217 36.1554L68.2274 36.0477C68.1175 36.0203 68.0498 36.0383 68.002 36.1006C67.9542 36.1628 67.9109 36.1389 67.8722 36.0289C67.85 36.0277 67.8255 36.0696 67.8221 36.1342C67.6736 35.9968 67.4539 35.942 67.2075 35.9721C66.9388 36.0011 66.7413 35.9474 66.5928 35.81C66.4983 35.9129 66.4294 35.9525 66.3406 35.9478C66.2519 35.9431 66.1642 35.9168 66.0766 35.8906C65.9889 35.8644 65.8791 35.8369 65.7692 35.8095C65.6594 35.7821 65.5473 35.7978 65.4328 35.8565C65.4118 35.8338 65.393 35.768 65.3987 35.6603C65.0168 35.7265 64.6617 35.7077 64.3333 35.6039C64.0049 35.5001 63.6753 35.4179 63.3447 35.3572C63.2991 35.3764 63.2525 35.4171 63.2502 35.4601C63.2479 35.5032 63.2234 35.5451 63.1989 35.587C62.9349 35.5298 62.6497 35.4499 62.3424 35.3689C62.035 35.2878 61.7231 35.2929 61.4266 35.4283C61.2792 35.2693 61.1039 35.2169 60.8996 35.2924C60.6952 35.368 60.5643 35.3179 60.4625 35.1397C60.3492 35.1769 60.2138 35.2129 60.0794 35.2274C59.9229 35.2407 59.8375 35.1714 59.7778 35.0386C59.7602 34.9513 59.7835 34.931 59.8711 34.9572C59.9588 34.9835 60.0254 34.987 60.0709 34.9678C60.051 34.9236 60.01 34.8566 59.9668 34.8327C59.9247 34.7873 59.9048 34.743 59.8626 34.6976C59.8182 34.6953 59.7727 34.7145 59.7704 34.7575C59.7681 34.8006 59.746 34.7994 59.6805 34.7744C59.6816 34.7528 59.6617 34.7086 59.5974 34.662C59.5507 34.7027 59.4819 34.7422 59.4153 34.7387C59.3487 34.7352 59.3242 34.7771 59.3407 34.8859C59.2132 34.7712 59.0613 34.6984 58.8837 34.689C58.7073 34.658 58.5764 34.6079 58.4688 34.5374C58.4176 34.6643 58.4363 34.73 58.5485 34.7144C58.6606 34.6987 58.7016 34.7657 58.697 34.8518C58.4995 34.7982 58.2798 34.7433 57.9913 34.7281C57.7027 34.7128 57.5519 34.6184 57.4933 34.4641C57.3555 34.5432 57.2855 34.6043 57.3253 34.6928C57.3276 34.6497 57.2599 34.6677 57.2377 34.6665C57.2155 34.6654 57.1256 34.6822 56.9912 34.6967C57.018 34.6117 57.0857 34.5937 57.1523 34.5972C57.1347 34.5099 57.0914 34.486 57.0226 34.5256C56.9537 34.5651 56.9104 34.5412 56.8928 34.4539C56.8461 34.4946 56.7983 34.5569 56.7516 34.5976C56.705 34.6383 56.6361 34.6779 56.5251 34.672C56.545 34.7162 56.6327 34.7425 56.7448 34.7268C56.8569 34.7112 56.899 34.7566 56.8501 34.8404C56.821 34.9684 56.7977 34.9887 56.7567 34.9218C56.7391 34.8345 56.6958 34.8106 56.6503 34.8298C56.5046 35.0596 56.3481 35.0729 56.1574 34.89C56.1119 34.9092 56.0663 34.9284 56.0419 34.9703C56.0185 34.9907 55.9952 35.011 55.9286 35.0075C55.7966 34.9789 55.6645 34.9503 55.5535 34.9444C55.4425 34.9386 55.3327 34.9111 55.2473 34.8418C54.7766 34.9033 54.4215 34.8845 54.1574 34.8273C53.8933 34.7701 53.5405 34.7082 53.1199 34.6643C53.0931 34.7493 53.0009 34.8092 52.8654 34.8452C52.8222 34.8213 52.7601 34.7317 52.7226 34.6001C52.5883 34.6146 52.5183 34.6757 52.5126 34.7833C52.2963 34.6639 52.142 34.6341 52.0066 34.6701C51.8933 34.7073 51.7567 34.7649 51.6212 34.8009C51.5336 34.7747 51.5125 34.7519 51.5592 34.7112C51.6048 34.6921 51.6082 34.6274 51.5894 34.5617C51.5018 34.5354 51.4784 34.5558 51.475 34.6204C51.4938 34.6862 51.4693 34.7281 51.4016 34.7461C51.2917 34.7187 51.2263 34.6936 51.2029 34.714C51.1796 34.7343 51.1375 34.6889 51.0976 34.6004C51.0533 34.5981 51.0299 34.6184 51.0288 34.6399C51.0498 34.6627 51.0265 34.683 51.002 34.7249C50.7402 34.6247 50.5171 34.6344 50.335 34.7112C50.1528 34.7879 49.9753 34.7785 49.7812 34.6602C49.7322 34.744 49.6645 34.762 49.6446 34.7178C49.6025 34.6724 49.578 34.7142 49.5711 34.8435C49.1039 34.8403 48.681 34.8395 48.3025 34.841C47.9018 34.8414 47.5734 34.7376 47.2729 34.5274C47.1784 34.6303 47.1096 34.6699 47.0208 34.6652C46.932 34.6605 46.8665 34.6354 46.8011 34.6103C46.7356 34.5853 46.6702 34.5602 46.6047 34.5351C46.5393 34.5101 46.4926 34.5508 46.4659 34.6358C46.4215 34.6334 46.3782 34.6095 46.3816 34.5449C46.3839 34.5019 46.364 34.4576 46.2974 34.4541C46.253 34.4517 46.2285 34.4936 46.2228 34.6013C46.2393 34.7101 46.2826 34.734 46.3514 34.6945C46.216 34.7305 46.0595 34.7438 45.8608 34.7117C45.6622 34.6796 45.5535 34.6306 45.5114 34.5852C45.4658 34.6044 45.4192 34.6451 45.4169 34.6882C45.4146 34.7312 45.3901 34.7731 45.3657 34.815C45.2558 34.7876 45.2126 34.7637 45.237 34.7218C45.2604 34.7015 45.2405 34.6572 45.2205 34.613C45.0418 34.6251 44.8842 34.6599 44.7043 34.6936C44.5466 34.7284 44.4379 34.6795 44.3338 34.5444C44.2171 34.6462 44.1249 34.7061 44.0139 34.7002C43.924 34.717 43.8119 34.7327 43.6531 34.7891C43.6588 34.6814 43.64 34.6156 43.5956 34.6133C43.5523 34.5894 43.5091 34.5655 43.4681 34.4985C43.4237 34.4962 43.4004 34.5166 43.397 34.5812C43.4169 34.6254 43.3924 34.6673 43.3247 34.6853C43.2826 34.6399 43.2171 34.6148 43.1494 34.6328C43.0816 34.6508 43.0384 34.6269 43.043 34.5408C43.0208 34.5396 42.9963 34.5815 42.9906 34.6892C42.9029 34.663 42.8153 34.6367 42.7254 34.6535C42.6354 34.6704 42.5466 34.6657 42.4556 34.704C42.3656 34.7209 42.2979 34.7389 42.2103 34.7126C42.1226 34.6864 42.0583 34.6398 42.0196 34.5298C41.6764 34.706 41.3178 34.7517 40.8995 34.6648C40.48 34.5994 40.1016 34.6009 39.784 34.7137C39.7862 34.6706 39.7885 34.6275 39.8107 34.6287C39.8329 34.6299 39.834 34.6084 39.8375 34.5437C39.7919 34.5629 39.7453 34.6036 39.7208 34.6455C39.6963 34.6874 39.6274 34.727 39.5608 34.7234C39.5665 34.6158 39.5478 34.55 39.5267 34.5273C39.4334 34.6087 39.2979 34.6447 39.118 34.6784C38.916 34.7109 38.7851 34.6608 38.7253 34.528C38.6809 34.5257 38.6331 34.5879 38.6263 34.7171C38.2467 34.7402 37.9547 34.7895 37.776 34.8016C37.5739 34.8341 37.3075 34.82 36.9313 34.7785C36.9359 34.6924 36.9592 34.672 36.9814 34.6732C37.0036 34.6744 37.0048 34.6528 36.9416 34.5847C36.8505 34.6231 36.7805 34.6841 36.6872 34.7656C36.5938 34.847 36.505 34.8423 36.3986 34.7503C36.3753 34.7706 36.3519 34.791 36.3064 34.8102C36.2831 34.8305 36.2375 34.8497 36.2142 34.8701C36.1009 34.9073 36.011 34.9241 35.9023 34.8751C35.8158 34.8274 35.7048 34.8215 35.5927 34.8371L35.4327 34.9151C35.4094 34.9354 35.3861 34.9558 35.3838 34.9988C35.2728 34.993 35.1851 34.9667 35.0764 34.9178C34.9899 34.87 34.8801 34.8426 34.7247 34.8344C34.435 34.8406 34.122 34.8672 33.7867 34.8926C33.4504 34.9396 33.1163 34.9435 32.76 34.9462C32.2904 34.9861 31.8209 35.026 31.3502 35.0875C30.8351 35.1466 30.3444 35.1638 29.8573 35.1164C29.6973 35.1943 29.4719 35.2471 29.2255 35.2772C28.9568 35.3062 28.7804 35.2753 28.6541 35.139C28.493 35.2384 28.3552 35.3175 28.242 35.3547C28.1754 35.3512 28.0877 35.3249 28.0467 35.258C27.7479 35.4365 27.3893 35.4823 26.9909 35.4396C26.5925 35.3969 26.2573 35.4223 25.9397 35.5351C25.6079 35.4959 25.1827 35.5382 24.621 35.638C24.058 35.7593 23.5686 35.755 23.1747 35.6261C23.1047 35.6872 23.0358 35.7268 22.9448 35.7651C22.8537 35.8035 22.7427 35.7976 22.634 35.7487C22.5885 35.7678 22.5418 35.8086 22.5395 35.8516C22.5372 35.8947 22.5128 35.9366 22.4439 35.9761C22.313 35.926 22.1599 35.8747 21.9613 35.8426C21.7848 35.8116 21.6061 35.8238 21.4274 35.8359C21.3853 35.7905 21.3665 35.7247 21.391 35.6828C21.4155 35.6409 21.4411 35.5775 21.4434 35.5344C21.3978 35.5536 21.3523 35.5728 21.329 35.5931C21.3056 35.6135 21.2823 35.6339 21.2146 35.6519C21.1878 35.7368 21.1855 35.7799 21.2521 35.7834C21.2954 35.8073 21.3375 35.8527 21.334 35.9173C21.0443 35.9236 20.7068 35.9921 20.3226 36.1013C19.9606 36.2117 19.6487 36.2167 19.4547 36.0985C19.1815 36.2136 18.8661 36.2833 18.5099 36.286C18.1536 36.2887 17.9094 36.2758 17.733 36.2448C17.6385 36.3478 17.5463 36.4077 17.4341 36.4233C17.322 36.439 17.2099 36.4547 17.0989 36.4488C16.9879 36.4429 16.8991 36.4382 16.787 36.4538C16.6971 36.4707 16.606 36.509 16.5582 36.5713C16.5138 36.5689 16.4705 36.5451 16.4495 36.5223C16.4284 36.4996 16.3618 36.4961 16.2941 36.5141C16.1996 36.6171 16.0852 36.6758 15.9509 36.6903C15.8166 36.7048 15.6822 36.7192 15.5712 36.7134C15.4603 36.7075 15.3259 36.722 15.2138 36.7376C15.1017 36.7533 15.0095 36.8132 14.915 36.9161C14.7841 36.866 14.652 36.8374 14.5166 36.8734L14.1113 36.9599C13.9759 36.996 13.8415 37.0104 13.7061 37.0464C13.5718 37.0609 13.4397 37.0323 13.3555 36.9415C12.8523 37.1956 12.2871 37.36 11.6167 37.4108C10.9462 37.4617 10.3844 37.5615 9.88469 37.751C9.14877 37.7768 8.43048 37.8899 7.70763 38.0891C7.03031 38.2692 6.35984 38.3201 5.74061 38.2441C5.64611 38.347 5.5761 38.4081 5.50951 38.4046C5.44178 38.4226 5.35071 38.461 5.23402 38.5627C5.14523 38.558 5.07978 38.533 5.03653 38.5091C4.99328 38.4852 4.92783 38.4601 4.88571 38.4147C4.82825 38.2389 4.79412 38.0428 4.76 37.8466C4.72701 37.6289 4.69402 37.4112 4.68323 37.1947C4.67245 36.9782 4.70605 36.764 4.76185 36.551C4.81651 36.3596 4.91557 36.1705 5.05788 36.0052C5.273 36.1462 5.51489 36.2022 5.80687 36.1529C6.09885 36.1036 6.36864 36.0531 6.61509 36.023C7.06473 35.9388 7.51437 35.8547 7.96516 35.749C8.39374 35.6421 8.84225 35.5795 9.26741 35.5372C9.80812 35.4147 10.3255 35.3125 10.8639 35.2331C11.4479 35.1345 11.9175 35.0946 12.3392 35.1169C12.5891 35.0222 12.9044 34.9525 13.263 34.9067C13.6215 34.8609 14.0023 34.8163 14.4064 34.7513C14.8105 34.6864 15.1913 34.6417 15.5721 34.5971C15.9528 34.5525 16.2903 34.484 16.6068 34.3928C17.0086 34.3709 17.4338 34.3287 17.8368 34.2852C18.1953 34.2394 18.5551 34.1721 18.8937 34.0821C19.2711 34.1021 19.6274 34.0993 19.9415 34.0512C20.2546 34.0246 20.591 33.9776 20.9051 33.9295C21.2193 33.8814 21.5335 33.8332 21.8699 33.7863C22.2284 33.7405 22.5859 33.7162 22.92 33.7123C23.5517 33.5514 24.2678 33.4814 25.0481 33.4579C25.8284 33.4345 26.5666 33.3656 27.2194 33.2275C27.3304 33.2333 27.4181 33.2596 27.4835 33.2846C27.549 33.3097 27.6178 33.2702 27.6668 33.1864C28.2872 33.2408 28.9565 33.2115 29.6759 33.0769C30.3954 32.9422 31.0425 32.9117 31.5718 33.0045C31.8006 32.8871 32.0471 32.857 32.3345 32.8938C32.6219 32.9306 32.9127 32.9028 33.2059 32.832C34.5878 32.7972 35.8809 32.7577 37.0864 32.692C38.2919 32.6263 39.5173 32.6049 40.7614 32.6492C43.1479 32.5597 45.5532 32.5359 47.9561 32.5552C50.3591 32.5746 52.9351 32.6894 55.7074 32.8795C56.8372 32.9825 57.9681 33.064 59.1024 33.0809C60.2368 33.0979 61.321 33.2201 62.3785 33.4273C62.4894 33.4331 62.535 33.414 62.5384 33.3493C64.0631 33.5597 65.589 33.7485 67.0927 33.9361C68.5976 34.1022 70.0546 34.3306 71.4438 34.5769C71.5525 34.6259 71.618 34.6509 71.6624 34.6533C71.7079 34.6341 71.7967 34.6388 71.9299 34.6459C72.0574 34.7606 72.256 34.7927 72.5013 34.7841C72.7478 34.754 72.9231 34.8065 73.0716 34.9439C73.5821 34.9709 74.1114 35.0638 74.6817 35.2235C75.252 35.3833 75.7801 35.4977 76.3316 35.5917C76.3294 35.6348 76.3493 35.679 76.4147 35.7041C76.458 35.7279 76.479 35.7507 76.4534 35.8141C76.6765 35.8043 76.9173 35.8818 77.1768 36.0252C77.4352 36.19 77.7192 36.2914 78.0043 36.3713C77.9775 36.4563 77.9753 36.4994 78.0197 36.5017C78.0629 36.5256 78.1062 36.5495 78.1494 36.5734C78.0526 36.7194 78.0691 36.8282 78.1756 36.9203C78.2831 36.9907 78.3452 37.0804 78.406 37.1916C78.3548 37.3185 78.3468 37.4692 78.3832 37.6223C78.4196 37.7754 78.4782 37.9296 78.5602 38.0636C78.4481 38.0792 78.378 38.1403 78.3513 38.2252C78.3245 38.3102 78.2756 38.394 78.2266 38.4778C77.3683 38.713 76.5635 38.7784 75.7678 38.6714C74.9955 38.5441 74.1742 38.5006 73.3484 38.5433C73.2596 38.5386 73.2163 38.5147 73.2197 38.4501C73.1998 38.4058 73.1799 38.3616 73.1145 38.3365C72.9767 38.4156 72.8856 38.454 72.839 38.4947C72.7923 38.5354 72.6813 38.5295 72.4827 38.4974L72.4884 38.3897C72.2653 38.3995 72.0211 38.3866 71.7348 38.3282C71.4485 38.2699 71.2243 38.3012 71.0177 38.4198C71.0456 38.3133 71.0268 38.2475 70.938 38.2428C70.8504 38.2166 70.7604 38.2334 70.6472 38.2706C70.5339 38.3078 70.4218 38.3234 70.2863 38.3595C70.1742 38.3751 70.0865 38.3489 70.0245 38.2592C70.0467 38.2604 70.0222 38.3023 69.93 38.3622C69.8856 38.3598 69.8646 38.3371 69.8669 38.294C69.8913 38.2522 69.8703 38.2294 69.8037 38.2259C69.6859 38.3492 69.4827 38.4033 69.1941 38.388C68.9055 38.3727 68.687 38.2963 68.5607 38.1601C68.4497 38.1542 68.4252 38.1961 68.4639 38.3061C68.0632 38.3065 67.6625 38.3068 67.2419 38.263C66.8435 38.2203 66.4206 38.2195 66.0177 38.2629C65.8868 38.2128 65.8014 38.1435 65.7815 38.0992C65.3096 38.1822 64.8623 38.2233 64.4172 38.2213C63.9721 38.2193 63.506 38.1946 63.0632 38.1496C63.0677 38.0634 63.049 37.9976 62.9847 37.9511C62.7524 38.1331 62.5048 38.1848 62.1941 38.1683C61.9067 38.1315 61.6449 38.0312 61.4309 37.8687C61.3398 37.9071 61.2721 37.9251 61.2277 37.9228C61.1844 37.8989 61.1178 37.8953 61.0746 37.8715C61.0313 37.8476 60.9647 37.844 60.9215 37.8202C60.8782 37.7963 60.8316 37.837 60.8048 37.9219C60.8247 37.9662 60.8668 38.0116 60.9334 38.0151C61 38.0187 61.0655 38.0437 61.1064 38.1107C60.9721 38.1252 60.8167 38.1169 60.6403 38.086C60.4639 38.055 60.3563 37.9846 60.2954 37.8734C60.1799 37.9536 60.0689 37.9477 59.9391 37.8761C59.8094 37.8044 59.7194 37.8213 59.6448 37.9685C59.5583 37.9207 59.5618 37.8561 59.6096 37.7938C59.6574 37.7316 59.6608 37.667 59.5743 37.6192C59.4832 37.6576 59.4576 37.721 59.5009 37.7449C59.543 37.7903 59.5407 37.8334 59.4718 37.8729C59.44 37.6337 59.288 37.5609 59.0393 37.6341C58.7906 37.7073 58.5652 37.7601 58.3421 37.7699L58.3523 37.5761C58.2402 37.5917 58.2157 37.6336 58.2356 37.6779C58.2778 37.7233 58.2755 37.7664 58.2066 37.8059C58.119 37.7797 58.0757 37.7558 58.0524 37.7761C58.029 37.7965 57.9414 37.7703 57.8093 37.7417C57.8116 37.6986 57.8361 37.6567 57.8594 37.6363C57.8828 37.616 57.8839 37.5945 57.8651 37.5287C57.753 37.5443 57.7075 37.5635 57.7496 37.6089C57.7707 37.6316 57.7894 37.6974 57.786 37.762C57.6306 37.7538 57.4963 37.7683 57.4052 37.8066C57.3142 37.845 57.2043 37.8176 57.0535 37.7232C57.0803 37.6383 57.148 37.6203 57.2578 37.6477C57.3677 37.6751 57.4354 37.6571 57.4622 37.5721C57.3313 37.522 57.1326 37.4899 56.8862 37.52C56.6398 37.5501 56.3944 37.5587 56.148 37.5889C56.2322 37.6797 56.3421 37.7071 56.4974 37.7154C56.654 37.7021 56.7871 37.7091 56.9448 37.6743C56.8503 37.7772 56.7148 37.8133 56.494 37.78C56.2732 37.7467 56.1389 37.7611 56.0911 37.8234C56.0467 37.821 56.0256 37.7983 56.0512 37.7349C56.0757 37.693 56.0791 37.6284 56.0592 37.5842C55.7684 37.6119 55.5009 37.6194 55.2789 37.6076C55.0581 37.5743 54.8128 37.5829 54.5009 37.588C54.4109 37.6048 54.391 37.5606 54.3956 37.4744C54.0279 37.6925 53.605 37.6917 53.1281 37.4505C53.4013 37.3354 53.6688 37.328 53.9516 37.4509C54.0017 37.3456 54.115 37.3084 54.2482 37.3155L54.8731 37.2838Z" fill="#FBBF17"/>
<path d="M44 10H59.2639V13.9584H48.4211V18.0662H57.9611V22.0246H48.4211V26.2962H59.4063V30.2546H44V10Z" fill="#003561"/>
<path d="M20.2639 10H5V30.2546H9.42114V22.0246H18.9611V18.0662H9.42114V13.9584H20.2639V10Z" fill="#003561"/>
<path d="M62 10H77.2639V13.9584H66.4211V18.0662H75.9611V22.0246H66.4211V26.2962H77.4063V30.2546H62V10Z" fill="#003561"/>
<path d="M23.0214 10H32.2765C34.8466 10 36.8472 10.7119 38.1714 12.0504C38.7549 12.6669 39.2092 13.3939 39.5075 14.1886C39.8058 14.9834 39.9422 15.8298 39.9085 16.678V16.7349C39.9708 18.1107 39.5796 19.4689 38.7951 20.6008C38.0105 21.7327 36.8759 22.5756 35.5657 23L40.5065 30.2261H35.2809L30.9452 23.7475H27.4496V30.2261H23L23.0214 10ZM31.9846 19.8247C34.1204 19.8247 35.3948 18.6714 35.3948 16.977V16.92C35.3948 15.012 34.0635 14.0296 31.8992 14.0296H27.4496V19.839L31.9846 19.8247Z" fill="#003561"/>
</svg>
